solid Visualization Toolkit generated SLA File
 facet normal 0.95105063192813954 0 -0.30903510400775902
  outer loop
   vertex 112 126 189
   vertex 112 0 189
   vertex 110.08999633789062 126 183.12199401855469
  endloop
 endfacet
 facet normal 0.95105063192813954 0 -0.30903510400775902
  outer loop
   vertex 110.08999633789062 0 183.12199401855469
   vertex 110.08999633789062 126 183.12199401855469
   vertex 112 0 189
  endloop
 endfacet
 facet normal 0.58781521760400901 0 -0.80899522245384836
  outer loop
   vertex 110.08999633789062 126 183.12199401855469
   vertex 110.08999633789062 0 183.12199401855469
   vertex 105.08999633789062 126 179.48899841308594
  endloop
 endfacet
 facet normal 0.58781521760400901 0 -0.80899522245384836
  outer loop
   vertex 105.08999633789062 0 179.48899841308594
   vertex 105.08999633789062 126 179.48899841308594
   vertex 110.08999633789062 0 183.12199401855469
  endloop
 endfacet
 facet normal 0 0 -1
  outer loop
   vertex 105.08999633789062 126 179.48899841308594
   vertex 105.08999633789062 0 179.48899841308594
   vertex 98.910003662109375 126 179.48899841308594
  endloop
 endfacet
 facet normal 0 0 -1
  outer loop
   vertex 98.910003662109375 0 179.48899841308594
   vertex 98.910003662109375 126 179.48899841308594
   vertex 105.08999633789062 0 179.48899841308594
  endloop
 endfacet
 facet normal -0.58781521760400901 0 -0.80899522245384836
  outer loop
   vertex 98.910003662109375 126 179.48899841308594
   vertex 98.910003662109375 0 179.48899841308594
   vertex 93.910003662109375 126 183.12199401855469
  endloop
 endfacet
 facet normal -0.58781521760400901 -0 -0.80899522245384836
  outer loop
   vertex 93.910003662109375 0 183.12199401855469
   vertex 93.910003662109375 126 183.12199401855469
   vertex 98.910003662109375 0 179.48899841308594
  endloop
 endfacet
 facet normal -0.95105063192813954 0 -0.30903510400775902
  outer loop
   vertex 93.910003662109375 126 183.12199401855469
   vertex 93.910003662109375 0 183.12199401855469
   vertex 92 126 189
  endloop
 endfacet
 facet normal -0.95105063192813954 -0 -0.30903510400775902
  outer loop
   vertex 92 0 189
   vertex 92 126 189
   vertex 93.910003662109375 0 183.12199401855469
  endloop
 endfacet
 facet normal -0.95105039614603315 0 0.30903582962251064
  outer loop
   vertex 92 126 189
   vertex 92 0 189
   vertex 93.910003662109375 126 194.87799072265625
  endloop
 endfacet
 facet normal -0.95105039614603315 0 0.30903582962251064
  outer loop
   vertex 93.910003662109375 0 194.87799072265625
   vertex 93.910003662109375 126 194.87799072265625
   vertex 92 0 189
  endloop
 endfacet
 facet normal -0.58781521760400901 0 0.80899522245384836
  outer loop
   vertex 93.910003662109375 126 194.87799072265625
   vertex 93.910003662109375 0 194.87799072265625
   vertex 98.910003662109375 126 198.510986328125
  endloop
 endfacet
 facet normal -0.58781521760400901 0 0.80899522245384836
  outer loop
   vertex 98.910003662109375 0 198.510986328125
   vertex 98.910003662109375 126 198.510986328125
   vertex 93.910003662109375 0 194.87799072265625
  endloop
 endfacet
 facet normal 0 0 1
  outer loop
   vertex 98.910003662109375 126 198.510986328125
   vertex 98.910003662109375 0 198.510986328125
   vertex 105.08999633789062 126 198.510986328125
  endloop
 endfacet
 facet normal 0 0 1
  outer loop
   vertex 105.08999633789062 0 198.510986328125
   vertex 105.08999633789062 126 198.510986328125
   vertex 98.910003662109375 0 198.510986328125
  endloop
 endfacet
 facet normal 0.58781521760400901 -0 0.80899522245384836
  outer loop
   vertex 105.08999633789062 126 198.510986328125
   vertex 105.08999633789062 0 198.510986328125
   vertex 110.08999633789062 126 194.87799072265625
  endloop
 endfacet
 facet normal 0.58781521760400901 0 0.80899522245384836
  outer loop
   vertex 110.08999633789062 0 194.87799072265625
   vertex 110.08999633789062 126 194.87799072265625
   vertex 105.08999633789062 0 198.510986328125
  endloop
 endfacet
 facet normal 0.95105039614603315 -0 0.30903582962251064
  outer loop
   vertex 110.08999633789062 126 194.87799072265625
   vertex 110.08999633789062 0 194.87799072265625
   vertex 112 126 189
  endloop
 endfacet
 facet normal 0.95105039614603315 0 0.30903582962251064
  outer loop
   vertex 112 0 189
   vertex 112 126 189
   vertex 110.08999633789062 0 194.87799072265625
  endloop
 endfacet
 facet normal 0 1 0
  outer loop
   vertex 112 126 189
   vertex 110.08999633789062 126 183.12199401855469
   vertex 110.08999633789062 126 194.87799072265625
  endloop
 endfacet
 facet normal 0 1 0
  outer loop
   vertex 110.08999633789062 126 183.12199401855469
   vertex 105.08999633789062 126 179.48899841308594
   vertex 110.08999633789062 126 194.87799072265625
  endloop
 endfacet
 facet normal 0 1 0
  outer loop
   vertex 110.08999633789062 126 194.87799072265625
   vertex 105.08999633789062 126 179.48899841308594
   vertex 105.08999633789062 126 198.510986328125
  endloop
 endfacet
 facet normal 0 1 -0
  outer loop
   vertex 105.08999633789062 126 198.510986328125
   vertex 105.08999633789062 126 179.48899841308594
   vertex 98.910003662109375 126 198.510986328125
  endloop
 endfacet
 facet normal 0 1 0
  outer loop
   vertex 98.910003662109375 126 198.510986328125
   vertex 105.08999633789062 126 179.48899841308594
   vertex 93.910003662109375 126 194.87799072265625
  endloop
 endfacet
 facet normal 0 1 0
  outer loop
   vertex 93.910003662109375 126 194.87799072265625
   vertex 105.08999633789062 126 179.48899841308594
   vertex 92 126 189
  endloop
 endfacet
 facet normal 0 1 0
  outer loop
   vertex 92 126 189
   vertex 105.08999633789062 126 179.48899841308594
   vertex 93.910003662109375 126 183.12199401855469
  endloop
 endfacet
 facet normal 0 1 0
  outer loop
   vertex 98.910003662109375 126 179.48899841308594
   vertex 93.910003662109375 126 183.12199401855469
   vertex 105.08999633789062 126 179.48899841308594
  endloop
 endfacet
 facet normal 0 -1 0
  outer loop
   vertex 92 0 189
   vertex 93.910003662109375 0 183.12199401855469
   vertex 93.910003662109375 0 194.87799072265625
  endloop
 endfacet
 facet normal 0 -1 0
  outer loop
   vertex 93.910003662109375 0 183.12199401855469
   vertex 98.910003662109375 0 179.48899841308594
   vertex 93.910003662109375 0 194.87799072265625
  endloop
 endfacet
 facet normal 0 -1 0
  outer loop
   vertex 93.910003662109375 0 194.87799072265625
   vertex 98.910003662109375 0 179.48899841308594
   vertex 98.910003662109375 0 198.510986328125
  endloop
 endfacet
 facet normal 0 -1 0
  outer loop
   vertex 98.910003662109375 0 198.510986328125
   vertex 98.910003662109375 0 179.48899841308594
   vertex 105.08999633789062 0 198.510986328125
  endloop
 endfacet
 facet normal 0 -1 0
  outer loop
   vertex 105.08999633789062 0 198.510986328125
   vertex 98.910003662109375 0 179.48899841308594
   vertex 110.08999633789062 0 194.87799072265625
  endloop
 endfacet
 facet normal 0 -1 0
  outer loop
   vertex 110.08999633789062 0 194.87799072265625
   vertex 98.910003662109375 0 179.48899841308594
   vertex 112 0 189
  endloop
 endfacet
 facet normal 0 -1 0
  outer loop
   vertex 112 0 189
   vertex 98.910003662109375 0 179.48899841308594
   vertex 110.08999633789062 0 183.12199401855469
  endloop
 endfacet
 facet normal 0 -1 0
  outer loop
   vertex 105.08999633789062 0 179.48899841308594
   vertex 110.08999633789062 0 183.12199401855469
   vertex 98.910003662109375 0 179.48899841308594
  endloop
 endfacet
endsolid
