solid FlatGround
facet normal 0.0 0.0 -1.0
  outer loop
    vertex 300.0 299.9999999999999 -10.000000000000002
    vertex -300.0 -299.99999999999994 -10.000000000000002
    vertex -300.0 299.9999999999999 -10.000000000000002
  endloop
endfacet
facet normal 0.0 0.0 -1.0
  outer loop
    vertex -300.0 -299.99999999999994 -10.000000000000002
    vertex 300.0 299.9999999999999 -10.000000000000002
    vertex 300.0 -299.99999999999994 -10.000000000000002
  endloop
endfacet
facet normal -0.0 -0.0 1.0
  outer loop
    vertex 300.0 -299.99999999999994 0.0
    vertex -300.0 299.9999999999999 0.0
    vertex -300.0 -299.99999999999994 0.0
  endloop
endfacet
facet normal -0.0 -0.0 1.0
  outer loop
    vertex -300.0 299.9999999999999 0.0
    vertex 300.0 -299.99999999999994 0.0
    vertex 300.0 299.9999999999999 0.0
  endloop
endfacet
facet normal 0.0 -1.0 0.0
  outer loop
    vertex 300.0 -299.99999999999994 0.0
    vertex -300.0 -299.99999999999994 -10.000000000000002
    vertex 300.0 -299.99999999999994 -10.000000000000002
  endloop
endfacet
facet normal 0.0 -1.0 0.0
  outer loop
    vertex -300.0 -299.99999999999994 -10.000000000000002
    vertex 300.0 -299.99999999999994 0.0
    vertex -300.0 -299.99999999999994 0.0
  endloop
endfacet
facet normal -1.0 0.0 0.0
  outer loop
    vertex -300.0 299.9999999999999 0.0
    vertex -300.0 -299.99999999999994 -10.000000000000002
    vertex -300.0 -299.99999999999994 0.0
  endloop
endfacet
facet normal -1.0 0.0 0.0
  outer loop
    vertex -300.0 -299.99999999999994 -10.000000000000002
    vertex -300.0 299.9999999999999 0.0
    vertex -300.0 299.9999999999999 -10.000000000000002
  endloop
endfacet
facet normal -0.0 1.0 -0.0
  outer loop
    vertex -300.0 299.9999999999999 0.0
    vertex 300.0 299.9999999999999 -10.000000000000002
    vertex -300.0 299.9999999999999 -10.000000000000002
  endloop
endfacet
facet normal -0.0 1.0 -0.0
  outer loop
    vertex 300.0 299.9999999999999 -10.000000000000002
    vertex -300.0 299.9999999999999 0.0
    vertex 300.0 299.9999999999999 0.0
  endloop
endfacet
facet normal 1.0 -0.0 -0.0
  outer loop
    vertex 300.0 299.9999999999999 -10.000000000000002
    vertex 300.0 -299.99999999999994 0.0
    vertex 300.0 -299.99999999999994 -10.000000000000002
  endloop
endfacet
facet normal 1.0 -0.0 -0.0
  outer loop
    vertex 300.0 -299.99999999999994 0.0
    vertex 300.0 299.9999999999999 -10.000000000000002
    vertex 300.0 299.9999999999999 0.0
  endloop
endfacet
endsolid FlatGround
