solid Visualization Toolkit generated SLA File
 facet normal 0 -0.85844862044487247 -0.51289956722178598
  outer loop
   vertex 8 -5.4001836776733398 -2.6005914211273193
   vertex -7.0000004768371582 -4.8490467071533203 -3.5230386257171631
   vertex 8 -4.8490467071533203 -3.5230386257171631
  endloop
 endfacet
 facet normal 0 -0.85844862044487247 -0.51289956722178598
  outer loop
   vertex -7.0000004768371582 -5.4001836776733398 -2.6005914211273193
   vertex -7.0000004768371582 -4.8490467071533203 -3.5230386257171631
   vertex 8 -5.4001836776733398 -2.6005914211273193
  endloop
 endfacet
 facet normal 0 -0.75307168647452871 -0.65793847359035706
  outer loop
   vertex 8 -4.8490467071533203 -3.5230386257171631
   vertex -7.0000004768371582 -4.8490467071533203 -3.5230386257171631
   vertex 8 -4.1420578956604004 -4.3322529792785645
  endloop
 endfacet
 facet normal -3.483186817680354e-17 0.99597429384365632 0.089639310587654369
  outer loop
   vertex 8 5.9937515258789062 2.5014704053256086e-15
   vertex -7.0000004768371582 5.9937515258789062 -3.3272004739564633e-15
   vertex 8 5.8974294662475586 1.070225715637207
  endloop
 endfacet
 facet normal 0 -0.75307168647452871 -0.65793847359035706
  outer loop
   vertex -7.0000004768371582 -4.8490467071533203 -3.5230386257171631
   vertex -7.0000004768371582 -4.1420578956604004 -4.3322529792785645
   vertex 8 -4.1420578956604004 -4.3322529792785645
  endloop
 endfacet
 facet normal 0 -0.62348983541065761 -0.78183145571126211
  outer loop
   vertex 8 -4.1420578956604004 -4.3322529792785645
   vertex -7.0000004768371582 -4.1420578956604004 -4.3322529792785645
   vertex 8 -3.3019397258758545 -5.0022249221801758
  endloop
 endfacet
 facet normal -0 0.96396290563681286 0.26603668272671144
  outer loop
   vertex 8 5.8974294662475586 1.070225715637207
   vertex -7.0000004768371582 5.8974294662475586 1.070225715637207
   vertex 8 5.6115593910217285 2.106053352355957
  endloop
 endfacet
 facet normal -0 0.99597429384365654 0.089639310587653898
  outer loop
   vertex -7.0000004768371582 5.9937515258789062 -3.3272004739564633e-15
   vertex -7.0000004768371582 5.8974294662475586 1.070225715637207
   vertex 8 5.8974294662475586 1.070225715637207
  endloop
 endfacet
 facet normal 0 -0.47386859124399539 -0.88059557018669543
  outer loop
   vertex 8 -3.3019397258758545 -5.0022249221801758
   vertex -7.0000004768371582 -3.3019397258758545 -5.0022249221801758
   vertex 8 -2.3556942939758301 -5.5114212036132812
  endloop
 endfacet
 facet normal 0 -0.62348983541065761 -0.78183145571126211
  outer loop
   vertex -7.0000004768371582 -4.1420578956604004 -4.3322529792785645
   vertex -7.0000004768371582 -3.3019397258758545 -5.0022249221801758
   vertex 8 -3.3019397258758545 -5.0022249221801758
  endloop
 endfacet
 facet normal -0 0.90096871492997632 0.43388405676796565
  outer loop
   vertex 8 5.6115593910217285 2.106053352355957
   vertex -7.0000004768371582 5.6115593910217285 2.106053352355957
   vertex 8 5.1453285217285156 3.0741908550262451
  endloop
 endfacet
 facet normal -0 0.96396290563681286 0.26603668272671144
  outer loop
   vertex -7.0000004768371582 5.8974294662475586 1.070225715637207
   vertex -7.0000004768371582 5.6115593910217285 2.106053352355957
   vertex 8 5.6115593910217285 2.106053352355957
  endloop
 endfacet
 facet normal 0 -0.47386859124399539 -0.88059557018669543
  outer loop
   vertex -7.0000004768371582 -3.3019397258758545 -5.0022249221801758
   vertex -7.0000004768371582 -2.3556942939758301 -5.5114212036132812
   vertex 8 -2.3556942939758301 -5.5114212036132812
  endloop
 endfacet
 facet normal -0 0.90096871492997632 0.43388405676796565
  outer loop
   vertex -7.0000004768371582 5.6115593910217285 2.106053352355957
   vertex -7.0000004768371582 5.1453285217285156 3.0741908550262451
   vertex 8 5.1453285217285156 3.0741908550262451
  endloop
 endfacet
 facet normal 0 -0.30901698225917551 -0.95105652023180642
  outer loop
   vertex 8 -2.3556942939758301 -5.5114212036132812
   vertex -7.0000004768371582 -1.3337352275848389 -5.8434758186340332
   vertex 8 -1.3337352275848389 -5.8434758186340332
  endloop
 endfacet
 facet normal 0 -0.13423310024304191 -0.99094978419652602
  outer loop
   vertex 8 -1.3337352275848389 -5.8434758186340332
   vertex -7.0000004768371582 -1.3337352275848389 -5.8434758186340332
   vertex 8 -0.26890864968299866 -5.9877161979675293
  endloop
 endfacet
 facet normal 0 -0.30901698225917551 -0.95105652023180642
  outer loop
   vertex -7.0000004768371582 -2.3556942939758301 -5.5114212036132812
   vertex -7.0000004768371582 -1.3337352275848389 -5.8434758186340332
   vertex 8 -2.3556942939758301 -5.5114212036132812
  endloop
 endfacet
 facet normal -0 0.80901707821253466 0.58778513689991641
  outer loop
   vertex 8 5.1453285217285156 3.0741908550262451
   vertex -7.0000004768371582 4.5137233734130859 3.9435210227966309
   vertex 8 4.5137233734130859 3.9435210227966309
  endloop
 endfacet
 facet normal 0 0.80901707821253466 0.58778513689991641
  outer loop
   vertex -7.0000004768371582 5.1453285217285156 3.0741908550262451
   vertex -7.0000004768371582 4.5137233734130859 3.9435210227966309
   vertex 8 5.1453285217285156 3.0741908550262451
  endloop
 endfacet
 facet normal 0 0.044864920280647716 -0.99899306250254383
  outer loop
   vertex 8 -0.26890864968299866 -5.9877161979675293
   vertex -7.0000004768371582 -0.26890864968299866 -5.9877161979675293
   vertex 8 0.80456084012985229 -5.9395065307617188
  endloop
 endfacet
 facet normal 0 -0.13423310024304191 -0.99094978419652602
  outer loop
   vertex -7.0000004768371582 -1.3337352275848389 -5.8434758186340332
   vertex -7.0000004768371582 -0.26890864968299866 -5.9877161979675293
   vertex 8 -0.26890864968299866 -5.9877161979675293
  endloop
 endfacet
 facet normal -0 0.69106276312575432 0.72279475469942178
  outer loop
   vertex 8 4.5137233734130859 3.9435210227966309
   vertex -7.0000004768371582 3.7370429039001465 4.6861038208007812
   vertex 8 3.7370429039001465 4.6861038208007812
  endloop
 endfacet
 facet normal 0 0.69106276312575432 0.72279475469942178
  outer loop
   vertex -7.0000004768371582 4.5137233734130859 3.9435210227966309
   vertex -7.0000004768371582 3.7370429039001465 4.6861038208007812
   vertex 8 4.5137233734130859 3.9435210227966309
  endloop
 endfacet
 facet normal 0 0.22252075334182159 -0.97492795340588534
  outer loop
   vertex 8 0.80456084012985229 -5.9395065307617188
   vertex -7.0000004768371582 0.80456084012985229 -5.9395065307617188
   vertex 8 1.8521710634231567 -5.7003965377807617
  endloop
 endfacet
 facet normal 0 0.044864920280647716 -0.99899306250254383
  outer loop
   vertex -7.0000004768371582 -0.26890864968299866 -5.9877161979675293
   vertex -7.0000004768371582 0.80456084012985229 -5.9395065307617188
   vertex 8 0.80456084012985229 -5.9395065307617188
  endloop
 endfacet
 facet normal -0 0.55089693770547221 0.83457328259819885
  outer loop
   vertex 8 3.7370429039001465 4.6861038208007812
   vertex -7.0000004768371582 2.8402509689331055 5.2780709266662598
   vertex 8 2.8402509689331055 5.2780709266662598
  endloop
 endfacet
 facet normal 0 0.39302502509892845 -0.91952777535319008
  outer loop
   vertex 8 1.8521710634231567 -5.7003965377807617
   vertex -7.0000004768371582 1.8521710634231567 -5.7003965377807617
   vertex 8 2.8402509689331055 -5.2780709266662598
  endloop
 endfacet
 facet normal 0 0.55089693770547221 0.83457328259819885
  outer loop
   vertex -7.0000004768371582 3.7370429039001465 4.6861038208007812
   vertex -7.0000004768371582 2.8402509689331055 5.2780709266662598
   vertex 8 3.7370429039001465 4.6861038208007812
  endloop
 endfacet
 facet normal 0 0.22252075334182159 -0.97492795340588534
  outer loop
   vertex -7.0000004768371582 0.80456084012985229 -5.9395065307617188
   vertex -7.0000004768371582 1.8521710634231567 -5.7003965377807617
   vertex 8 1.8521710634231567 -5.7003965377807617
  endloop
 endfacet
 facet normal 0 0.39302502509892845 0.91952777535319008
  outer loop
   vertex -7.0000004768371582 2.8402509689331055 5.2780709266662598
   vertex -7.0000004768371582 1.8521710634231567 5.7003965377807617
   vertex 8 2.8402509689331055 5.2780709266662598
  endloop
 endfacet
 facet normal -0 0.39302502509892845 0.91952777535319008
  outer loop
   vertex 8 2.8402509689331055 5.2780709266662598
   vertex -7.0000004768371582 1.8521710634231567 5.7003965377807617
   vertex 8 1.8521710634231567 5.7003965377807617
  endloop
 endfacet
 facet normal 0 0.55089693770547221 -0.83457328259819885
  outer loop
   vertex 8 2.8402509689331055 -5.2780709266662598
   vertex -7.0000004768371582 2.8402509689331055 -5.2780709266662598
   vertex 8 3.7370429039001465 -4.6861038208007812
  endloop
 endfacet
 facet normal -0 0.22252075334182159 0.97492795340588534
  outer loop
   vertex 8 1.8521710634231567 5.7003965377807617
   vertex -7.0000004768371582 1.8521710634231567 5.7003965377807617
   vertex 8 0.80456084012985229 5.9395065307617188
  endloop
 endfacet
 facet normal 0 0.39302502509892845 -0.91952777535319008
  outer loop
   vertex -7.0000004768371582 1.8521710634231567 -5.7003965377807617
   vertex -7.0000004768371582 2.8402509689331055 -5.2780709266662598
   vertex 8 2.8402509689331055 -5.2780709266662598
  endloop
 endfacet
 facet normal -0 0.22252075334182159 0.97492795340588534
  outer loop
   vertex -7.0000004768371582 1.8521710634231567 5.7003965377807617
   vertex -7.0000004768371582 0.80456084012985229 5.9395065307617188
   vertex 8 0.80456084012985229 5.9395065307617188
  endloop
 endfacet
 facet normal 0 0.69106276312575432 -0.72279475469942178
  outer loop
   vertex 8 3.7370429039001465 -4.6861038208007812
   vertex -7.0000004768371582 3.7370429039001465 -4.6861038208007812
   vertex 8 4.5137233734130859 -3.9435210227966309
  endloop
 endfacet
 facet normal 0 0.55089693770547221 -0.83457328259819885
  outer loop
   vertex -7.0000004768371582 2.8402509689331055 -5.2780709266662598
   vertex -7.0000004768371582 3.7370429039001465 -4.6861038208007812
   vertex 8 3.7370429039001465 -4.6861038208007812
  endloop
 endfacet
 facet normal 0 0.044864920280647716 0.99899306250254383
  outer loop
   vertex -7.0000004768371582 0.80456084012985229 5.9395065307617188
   vertex -7.0000004768371582 -0.26890864968299866 5.9877161979675293
   vertex 8 0.80456084012985229 5.9395065307617188
  endloop
 endfacet
 facet normal -0 0.044864920280647716 0.99899306250254383
  outer loop
   vertex 8 0.80456084012985229 5.9395065307617188
   vertex -7.0000004768371582 -0.26890864968299866 5.9877161979675293
   vertex 8 -0.26890864968299866 5.9877161979675293
  endloop
 endfacet
 facet normal 0 0.80901707821253466 -0.58778513689991641
  outer loop
   vertex 8 4.5137233734130859 -3.9435210227966309
   vertex -7.0000004768371582 4.5137233734130859 -3.9435210227966309
   vertex 8 5.1453285217285156 -3.0741908550262451
  endloop
 endfacet
 facet normal 0 -0.13423310024304191 0.99094978419652602
  outer loop
   vertex 8 -0.26890864968299866 5.9877161979675293
   vertex -7.0000004768371582 -0.26890864968299866 5.9877161979675293
   vertex 8 -1.3337352275848389 5.8434758186340332
  endloop
 endfacet
 facet normal 0 0.69106276312575432 -0.72279475469942178
  outer loop
   vertex -7.0000004768371582 3.7370429039001465 -4.6861038208007812
   vertex -7.0000004768371582 4.5137233734130859 -3.9435210227966309
   vertex 8 4.5137233734130859 -3.9435210227966309
  endloop
 endfacet
 facet normal 0 -0.13423310024304191 0.99094978419652602
  outer loop
   vertex -7.0000004768371582 -0.26890864968299866 5.9877161979675293
   vertex -7.0000004768371582 -1.3337352275848389 5.8434758186340332
   vertex 8 -1.3337352275848389 5.8434758186340332
  endloop
 endfacet
 facet normal 0 0.80901707821253466 -0.58778513689991641
  outer loop
   vertex -7.0000004768371582 4.5137233734130859 -3.9435210227966309
   vertex -7.0000004768371582 5.1453285217285156 -3.0741908550262451
   vertex 8 5.1453285217285156 -3.0741908550262451
  endloop
 endfacet
 facet normal 0 0.90096871492997632 -0.43388405676796565
  outer loop
   vertex -7.0000004768371582 5.1453285217285156 -3.0741908550262451
   vertex -7.0000004768371582 5.6115593910217285 -2.106053352355957
   vertex 8 5.1453285217285156 -3.0741908550262451
  endloop
 endfacet
 facet normal 0 -0.30901698225917551 0.95105652023180642
  outer loop
   vertex -7.0000004768371582 -1.3337352275848389 5.8434758186340332
   vertex -7.0000004768371582 -2.3556942939758301 5.5114212036132812
   vertex 8 -1.3337352275848389 5.8434758186340332
  endloop
 endfacet
 facet normal 0 0.90096871492997632 -0.43388405676796565
  outer loop
   vertex 8 5.1453285217285156 -3.0741908550262451
   vertex -7.0000004768371582 5.6115593910217285 -2.106053352355957
   vertex 8 5.6115593910217285 -2.106053352355957
  endloop
 endfacet
 facet normal 0 -0.30901698225917551 0.95105652023180642
  outer loop
   vertex 8 -1.3337352275848389 5.8434758186340332
   vertex -7.0000004768371582 -2.3556942939758301 5.5114212036132812
   vertex 8 -2.3556942939758301 5.5114212036132812
  endloop
 endfacet
 facet normal 0 0.96396290563681286 -0.26603668272671144
  outer loop
   vertex 8 5.6115593910217285 -2.106053352355957
   vertex -7.0000004768371582 5.6115593910217285 -2.106053352355957
   vertex 8 5.8974294662475586 -1.070225715637207
  endloop
 endfacet
 facet normal 0 -0.47386859124399539 0.88059557018669543
  outer loop
   vertex 8 -2.3556942939758301 5.5114212036132812
   vertex -7.0000004768371582 -2.3556942939758301 5.5114212036132812
   vertex 8 -3.3019397258758545 5.0022249221801758
  endloop
 endfacet
 facet normal 0 0.96396290563681286 -0.26603668272671144
  outer loop
   vertex -7.0000004768371582 5.6115593910217285 -2.106053352355957
   vertex -7.0000004768371582 5.8974294662475586 -1.070225715637207
   vertex 8 5.8974294662475586 -1.070225715637207
  endloop
 endfacet
 facet normal 0 -0.47386859124399539 0.88059557018669543
  outer loop
   vertex -7.0000004768371582 -2.3556942939758301 5.5114212036132812
   vertex -7.0000004768371582 -3.3019397258758545 5.0022249221801758
   vertex 8 -3.3019397258758545 5.0022249221801758
  endloop
 endfacet
 facet normal 0 0.99597429384365654 -0.089639310587653981
  outer loop
   vertex 8 5.8974294662475586 -1.070225715637207
   vertex -7.0000004768371582 5.8974294662475586 -1.070225715637207
   vertex 8 5.9937515258789062 2.5014704053256086e-15
  endloop
 endfacet
 facet normal 3.4831868176803565e-17 0.99597429384365632 -0.089639310587654439
  outer loop
   vertex -7.0000004768371582 5.8974294662475586 -1.070225715637207
   vertex -7.0000004768371582 5.9937515258789062 -3.3272004739564633e-15
   vertex 8 5.9937515258789062 2.5014704053256086e-15
  endloop
 endfacet
 facet normal 0 -0.62348983541065761 0.78183145571126211
  outer loop
   vertex -7.0000004768371582 -3.3019397258758545 5.0022249221801758
   vertex -7.0000004768371582 -4.1420578956604004 4.3322529792785645
   vertex 8 -3.3019397258758545 5.0022249221801758
  endloop
 endfacet
 facet normal 0 -0.62348983541065761 0.78183145571126211
  outer loop
   vertex 8 -3.3019397258758545 5.0022249221801758
   vertex -7.0000004768371582 -4.1420578956604004 4.3322529792785645
   vertex 8 -4.1420578956604004 4.3322529792785645
  endloop
 endfacet
 facet normal 0 -0.75307168647452871 0.65793847359035706
  outer loop
   vertex 8 -4.1420578956604004 4.3322529792785645
   vertex -7.0000004768371582 -4.1420578956604004 4.3322529792785645
   vertex 8 -4.8490467071533203 3.5230386257171631
  endloop
 endfacet
 facet normal 0 -0.75307168647452871 0.65793847359035706
  outer loop
   vertex -7.0000004768371582 -4.1420578956604004 4.3322529792785645
   vertex -7.0000004768371582 -4.8490467071533203 3.5230386257171631
   vertex 8 -4.8490467071533203 3.5230386257171631
  endloop
 endfacet
 facet normal 0 -0.85844862044487247 0.51289956722178598
  outer loop
   vertex 8 -4.8490467071533203 3.5230386257171631
   vertex -7.0000004768371582 -4.8490467071533203 3.5230386257171631
   vertex 8 -5.4001836776733398 2.6005914211273193
  endloop
 endfacet
 facet normal 0 -0.85844862044487247 0.51289956722178598
  outer loop
   vertex -7.0000004768371582 -4.8490467071533203 3.5230386257171631
   vertex -7.0000004768371582 -5.4001836776733398 2.6005914211273193
   vertex 8 -5.4001836776733398 2.6005914211273193
  endloop
 endfacet
 facet normal 0 -0.93623494328775736 0.35137463051132423
  outer loop
   vertex 8 -5.4001836776733398 2.6005914211273193
   vertex -7.0000004768371582 -5.4001836776733398 2.6005914211273193
   vertex 8 -5.7777538299560547 1.5945587158203125
  endloop
 endfacet
 facet normal 0 -0.93623494328775736 0.35137463051132423
  outer loop
   vertex -7.0000004768371582 -5.4001836776733398 2.6005914211273193
   vertex -7.0000004768371582 -5.7777538299560547 1.5945587158203125
   vertex 8 -5.7777538299560547 1.5945587158203125
  endloop
 endfacet
 facet normal 0 -0.98392955450267261 0.17855708268274328
  outer loop
   vertex -7.0000004768371582 -5.7777538299560547 1.5945587158203125
   vertex -7.0000004768371582 -5.9696226119995117 0.53727573156356812
   vertex 8 -5.7777538299560547 1.5945587158203125
  endloop
 endfacet
 facet normal 0 -0.98392955450267261 0.17855708268274328
  outer loop
   vertex 8 -5.7777538299560547 1.5945587158203125
   vertex -7.0000004768371582 -5.9696226119995117 0.53727573156356812
   vertex 8 -5.9696226119995117 0.53727573156356812
  endloop
 endfacet
 facet normal 0 -1 0
  outer loop
   vertex 8 -5.9696226119995117 0.53727573156356812
   vertex -7.0000004768371582 -5.9696226119995117 0.53727573156356812
   vertex 8 -5.9696226119995117 -0.53727573156356812
  endloop
 endfacet
 facet normal 0 -1 0
  outer loop
   vertex -7.0000004768371582 -5.9696226119995117 0.53727573156356812
   vertex -7.0000004768371582 -5.9696226119995117 -0.53727573156356812
   vertex 8 -5.9696226119995117 -0.53727573156356812
  endloop
 endfacet
 facet normal 0 -0.98392955450267261 -0.17855708268274328
  outer loop
   vertex 8 -5.9696226119995117 -0.53727573156356812
   vertex -7.0000004768371582 -5.9696226119995117 -0.53727573156356812
   vertex 8 -5.7777538299560547 -1.5945587158203125
  endloop
 endfacet
 facet normal 0 -0.98392955450267261 -0.17855708268274328
  outer loop
   vertex -7.0000004768371582 -5.9696226119995117 -0.53727573156356812
   vertex -7.0000004768371582 -5.7777538299560547 -1.5945587158203125
   vertex 8 -5.7777538299560547 -1.5945587158203125
  endloop
 endfacet
 facet normal 0 -0.93623494328775736 -0.35137463051132423
  outer loop
   vertex 8 -5.7777538299560547 -1.5945587158203125
   vertex -7.0000004768371582 -5.7777538299560547 -1.5945587158203125
   vertex 8 -5.4001836776733398 -2.6005914211273193
  endloop
 endfacet
 facet normal 0 -0.93623494328775736 -0.35137463051132423
  outer loop
   vertex -7.0000004768371582 -5.7777538299560547 -1.5945587158203125
   vertex -7.0000004768371582 -5.4001836776733398 -2.6005914211273193
   vertex 8 -5.4001836776733398 -2.6005914211273193
  endloop
 endfacet
 facet normal -0 0.23931571466750717 0.97094180500850835
  outer loop
   vertex -7.0000004768371582 -0.30369770526885986 -2.5011756420135498
   vertex -7.0000004768371582 -0.89344334602355957 -2.3558163642883301
   vertex 8 -0.89344334602355957 -2.3558163642883301
  endloop
 endfacet
 facet normal 0 0.23931571466750717 0.97094180500850835
  outer loop
   vertex -7.0000004768371582 -0.30369770526885986 -2.5011756420135498
   vertex 8 -0.89344334602355957 -2.3558163642883301
   vertex 8 -0.30369770526885986 -2.5011756420135498
  endloop
 endfacet
 facet normal 0 0 1
  outer loop
   vertex -7.0000004768371582 0.30369770526885986 -2.5011756420135498
   vertex -7.0000004768371582 -0.30369770526885986 -2.5011756420135498
   vertex 8 -0.30369770526885986 -2.5011756420135498
  endloop
 endfacet
 facet normal 0 -0 1
  outer loop
   vertex -7.0000004768371582 0.30369770526885986 -2.5011756420135498
   vertex 8 -0.30369770526885986 -2.5011756420135498
   vertex 8 0.30369770526885986 -2.5011756420135498
  endloop
 endfacet
 facet normal 4.6838001325319123e-17 -0.99270884511338364 -0.12053691896532001
  outer loop
   vertex -7.0000004768371582 2.4463324546813965 0.60296684503555298
   vertex -7.0000004768371582 2.5195460319519043 -1.398628955198418e-15
   vertex 8 2.5195460319519043 4.4300420299627722e-15
  endloop
 endfacet
 facet normal 0 -0.23931571466750717 0.97094180500850835
  outer loop
   vertex -7.0000004768371582 0.89344334602355957 -2.3558163642883301
   vertex -7.0000004768371582 0.30369770526885986 -2.5011756420135498
   vertex 8 0.30369770526885986 -2.5011756420135498
  endloop
 endfacet
 facet normal 0 -0.99270884511338353 -0.12053691896532118
  outer loop
   vertex -7.0000004768371582 2.4463324546813965 0.60296684503555298
   vertex 8 2.5195460319519043 4.4300420299627722e-15
   vertex 8 2.4463324546813965 0.60296684503555298
  endloop
 endfacet
 facet normal 0 -0.23931571466750717 0.97094180500850835
  outer loop
   vertex -7.0000004768371582 0.89344334602355957 -2.3558163642883301
   vertex 8 0.30369770526885986 -2.5011756420135498
   vertex 8 0.89344334602355957 -2.3558163642883301
  endloop
 endfacet
 facet normal 0 -0.93501633902348258 -0.35460463301982359
  outer loop
   vertex -7.0000004768371582 2.2309472560882568 1.1708914041519165
   vertex 8 2.4463324546813965 0.60296684503555298
   vertex 8 2.2309472560882568 1.1708914041519165
  endloop
 endfacet
 facet normal 0 -0.46472313027195961 0.88545604757674512
  outer loop
   vertex -7.0000004768371582 1.4312652349472046 -2.0735456943511963
   vertex -7.0000004768371582 0.89344334602355957 -2.3558163642883301
   vertex 8 0.89344334602355957 -2.3558163642883301
  endloop
 endfacet
 facet normal 0 -0.93501633902348258 -0.35460463301982359
  outer loop
   vertex -7.0000004768371582 2.2309472560882568 1.1708914041519165
   vertex -7.0000004768371582 2.4463324546813965 0.60296684503555298
   vertex 8 2.4463324546813965 0.60296684503555298
  endloop
 endfacet
 facet normal 0 -0.46472313027195961 0.88545604757674512
  outer loop
   vertex -7.0000004768371582 1.4312652349472046 -2.0735456943511963
   vertex 8 0.89344334602355957 -2.3558163642883301
   vertex 8 1.4312652349472046 -2.0735456943511963
  endloop
 endfacet
 facet normal 0 -0.66312261734283129 0.74851078440353358
  outer loop
   vertex -7.0000004768371582 1.8859072923660278 -1.6707680225372314
   vertex 8 1.4312652349472046 -2.0735456943511963
   vertex 8 1.8859072923660278 -1.6707680225372314
  endloop
 endfacet
 facet normal 0 -0.82298382978185469 -0.56806479904812901
  outer loop
   vertex -7.0000004768371582 1.8859072923660278 1.6707680225372314
   vertex 8 2.2309472560882568 1.1708914041519165
   vertex 8 1.8859072923660278 1.6707680225372314
  endloop
 endfacet
 facet normal 0 -0.66312261734283129 0.74851078440353358
  outer loop
   vertex -7.0000004768371582 1.8859072923660278 -1.6707680225372314
   vertex -7.0000004768371582 1.4312652349472046 -2.0735456943511963
   vertex 8 1.4312652349472046 -2.0735456943511963
  endloop
 endfacet
 facet normal 0 -0.82298382978185469 -0.56806479904812901
  outer loop
   vertex -7.0000004768371582 1.8859072923660278 1.6707680225372314
   vertex -7.0000004768371582 2.2309472560882568 1.1708914041519165
   vertex 8 2.2309472560882568 1.1708914041519165
  endloop
 endfacet
 facet normal 0 -0.82298382978185469 0.56806479904812901
  outer loop
   vertex -7.0000004768371582 2.2309472560882568 -1.1708914041519165
   vertex -7.0000004768371582 1.8859072923660278 -1.6707680225372314
   vertex 8 1.8859072923660278 -1.6707680225372314
  endloop
 endfacet
 facet normal 0 -0.82298382978185469 0.56806479904812901
  outer loop
   vertex -7.0000004768371582 2.2309472560882568 -1.1708914041519165
   vertex 8 1.8859072923660278 -1.6707680225372314
   vertex 8 2.2309472560882568 -1.1708914041519165
  endloop
 endfacet
 facet normal 0 -0.66312261734283129 -0.74851078440353358
  outer loop
   vertex -7.0000004768371582 1.4312652349472046 2.0735456943511963
   vertex 8 1.8859072923660278 1.6707680225372314
   vertex 8 1.4312652349472046 2.0735456943511963
  endloop
 endfacet
 facet normal 0 -0.66312261734283129 -0.74851078440353358
  outer loop
   vertex -7.0000004768371582 1.4312652349472046 2.0735456943511963
   vertex -7.0000004768371582 1.8859072923660278 1.6707680225372314
   vertex 8 1.8859072923660278 1.6707680225372314
  endloop
 endfacet
 facet normal 0 -0.93501633902348258 0.35460463301982359
  outer loop
   vertex -7.0000004768371582 2.4463324546813965 -0.60296684503555298
   vertex 8 2.2309472560882568 -1.1708914041519165
   vertex 8 2.4463324546813965 -0.60296684503555298
  endloop
 endfacet
 facet normal 0 -0.93501633902348258 0.35460463301982359
  outer loop
   vertex -7.0000004768371582 2.4463324546813965 -0.60296684503555298
   vertex -7.0000004768371582 2.2309472560882568 -1.1708914041519165
   vertex 8 2.2309472560882568 -1.1708914041519165
  endloop
 endfacet
 facet normal 0 -0.46472313027195961 -0.88545604757674512
  outer loop
   vertex -7.0000004768371582 0.89344334602355957 2.3558163642883301
   vertex 8 1.4312652349472046 2.0735456943511963
   vertex 8 0.89344334602355957 2.3558163642883301
  endloop
 endfacet
 facet normal 0 -0.46472313027195961 -0.88545604757674512
  outer loop
   vertex -7.0000004768371582 0.89344334602355957 2.3558163642883301
   vertex -7.0000004768371582 1.4312652349472046 2.0735456943511963
   vertex 8 1.4312652349472046 2.0735456943511963
  endloop
 endfacet
 facet normal -4.721925413423835e-17 -0.99270884511338364 0.1205369189653194
  outer loop
   vertex -7.0000004768371582 2.5195460319519043 -1.398628955198418e-15
   vertex 8 2.4463324546813965 -0.60296684503555298
   vertex 8 2.5195460319519043 4.4300420299627722e-15
  endloop
 endfacet
 facet normal 0 -0.99270884511338364 0.12053691896532057
  outer loop
   vertex -7.0000004768371582 2.5195460319519043 -1.398628955198418e-15
   vertex -7.0000004768371582 2.4463324546813965 -0.60296684503555298
   vertex 8 2.4463324546813965 -0.60296684503555298
  endloop
 endfacet
 facet normal 0 -0.23931571466750717 -0.97094180500850835
  outer loop
   vertex -7.0000004768371582 0.30369770526885986 2.5011756420135498
   vertex 8 0.89344334602355957 2.3558163642883301
   vertex 8 0.30369770526885986 2.5011756420135498
  endloop
 endfacet
 facet normal 0 -0.23931571466750717 -0.97094180500850835
  outer loop
   vertex -7.0000004768371582 0.30369770526885986 2.5011756420135498
   vertex -7.0000004768371582 0.89344334602355957 2.3558163642883301
   vertex 8 0.89344334602355957 2.3558163642883301
  endloop
 endfacet
 facet normal 0 -0 -1
  outer loop
   vertex -7.0000004768371582 -0.30369770526885986 2.5011756420135498
   vertex 8 0.30369770526885986 2.5011756420135498
   vertex 8 -0.30369770526885986 2.5011756420135498
  endloop
 endfacet
 facet normal 0 0 -1
  outer loop
   vertex -7.0000004768371582 -0.30369770526885986 2.5011756420135498
   vertex -7.0000004768371582 0.30369770526885986 2.5011756420135498
   vertex 8 0.30369770526885986 2.5011756420135498
  endloop
 endfacet
 facet normal 0 0.23931571466750717 -0.97094180500850835
  outer loop
   vertex -7.0000004768371582 -0.89344334602355957 2.3558163642883301
   vertex 8 -0.30369770526885986 2.5011756420135498
   vertex 8 -0.89344334602355957 2.3558163642883301
  endloop
 endfacet
 facet normal 0 0.23931571466750717 -0.97094180500850835
  outer loop
   vertex -7.0000004768371582 -0.89344334602355957 2.3558163642883301
   vertex -7.0000004768371582 -0.30369770526885986 2.5011756420135498
   vertex 8 -0.30369770526885986 2.5011756420135498
  endloop
 endfacet
 facet normal 0 0.46472313027195961 -0.88545604757674512
  outer loop
   vertex -7.0000004768371582 -1.4312652349472046 2.0735456943511963
   vertex 8 -0.89344334602355957 2.3558163642883301
   vertex 8 -1.4312652349472046 2.0735456943511963
  endloop
 endfacet
 facet normal 0 0.46472313027195961 -0.88545604757674512
  outer loop
   vertex -7.0000004768371582 -1.4312652349472046 2.0735456943511963
   vertex -7.0000004768371582 -0.89344334602355957 2.3558163642883301
   vertex 8 -0.89344334602355957 2.3558163642883301
  endloop
 endfacet
 facet normal 0 0.66312261734283129 -0.74851078440353358
  outer loop
   vertex -7.0000004768371582 -1.8859072923660278 1.6707680225372314
   vertex 8 -1.4312652349472046 2.0735456943511963
   vertex 8 -1.8859072923660278 1.6707680225372314
  endloop
 endfacet
 facet normal 0 0.66312261734283129 -0.74851078440353358
  outer loop
   vertex -7.0000004768371582 -1.8859072923660278 1.6707680225372314
   vertex -7.0000004768371582 -1.4312652349472046 2.0735456943511963
   vertex 8 -1.4312652349472046 2.0735456943511963
  endloop
 endfacet
 facet normal 0 0.82298382978185469 -0.56806479904812901
  outer loop
   vertex -7.0000004768371582 -2.2309472560882568 1.1708914041519165
   vertex -7.0000004768371582 -1.8859072923660278 1.6707680225372314
   vertex 8 -1.8859072923660278 1.6707680225372314
  endloop
 endfacet
 facet normal 0 0.82298382978185469 -0.56806479904812901
  outer loop
   vertex -7.0000004768371582 -2.2309472560882568 1.1708914041519165
   vertex 8 -1.8859072923660278 1.6707680225372314
   vertex 8 -2.2309472560882568 1.1708914041519165
  endloop
 endfacet
 facet normal 0 0.93501633902348258 -0.35460463301982359
  outer loop
   vertex -7.0000004768371582 -2.4463324546813965 0.60296684503555298
   vertex -7.0000004768371582 -2.2309472560882568 1.1708914041519165
   vertex 8 -2.2309472560882568 1.1708914041519165
  endloop
 endfacet
 facet normal 0 0.93501633902348258 -0.35460463301982359
  outer loop
   vertex -7.0000004768371582 -2.4463324546813965 0.60296684503555298
   vertex 8 -2.2309472560882568 1.1708914041519165
   vertex 8 -2.4463324546813965 0.60296684503555298
  endloop
 endfacet
 facet normal 0 0.99270884511338353 -0.12053691896532118
  outer loop
   vertex -7.0000004768371582 -2.5195460319519043 4.5044424394342746e-15
   vertex -7.0000004768371582 -2.4463324546813965 0.60296684503555298
   vertex 8 -2.4463324546813965 0.60296684503555298
  endloop
 endfacet
 facet normal -2.208642532085365e-17 0.99270884511338364 -0.12053691896532064
  outer loop
   vertex -7.0000004768371582 -2.5195460319519043 4.5044424394342746e-15
   vertex 8 -2.4463324546813965 0.60296684503555298
   vertex 8 -2.5195460319519043 1.7763568394002505e-15
  endloop
 endfacet
 facet normal 2.192233482989147e-17 0.99270884511338364 0.1205369189653194
  outer loop
   vertex -7.0000004768371582 -2.4463324546813965 -0.60296684503555298
   vertex -7.0000004768371582 -2.5195460319519043 4.5044424394342746e-15
   vertex 8 -2.5195460319519043 1.7763568394002505e-15
  endloop
 endfacet
 facet normal 0 0.99270884511338364 0.12053691896531993
  outer loop
   vertex -7.0000004768371582 -2.4463324546813965 -0.60296684503555298
   vertex 8 -2.5195460319519043 1.7763568394002505e-15
   vertex 8 -2.4463324546813965 -0.60296684503555298
  endloop
 endfacet
 facet normal -0 0.93501633902348258 0.35460463301982359
  outer loop
   vertex -7.0000004768371582 -2.2309472560882568 -1.1708914041519165
   vertex -7.0000004768371582 -2.4463324546813965 -0.60296684503555298
   vertex 8 -2.4463324546813965 -0.60296684503555298
  endloop
 endfacet
 facet normal 0 0.93501633902348258 0.35460463301982359
  outer loop
   vertex -7.0000004768371582 -2.2309472560882568 -1.1708914041519165
   vertex 8 -2.4463324546813965 -0.60296684503555298
   vertex 8 -2.2309472560882568 -1.1708914041519165
  endloop
 endfacet
 facet normal -0 0.82298382978185469 0.56806479904812901
  outer loop
   vertex -7.0000004768371582 -1.8859072923660278 -1.6707680225372314
   vertex -7.0000004768371582 -2.2309472560882568 -1.1708914041519165
   vertex 8 -2.2309472560882568 -1.1708914041519165
  endloop
 endfacet
 facet normal 0 0.82298382978185469 0.56806479904812901
  outer loop
   vertex -7.0000004768371582 -1.8859072923660278 -1.6707680225372314
   vertex 8 -2.2309472560882568 -1.1708914041519165
   vertex 8 -1.8859072923660278 -1.6707680225372314
  endloop
 endfacet
 facet normal -0 0.66312261734283129 0.74851078440353358
  outer loop
   vertex -7.0000004768371582 -1.4312652349472046 -2.0735456943511963
   vertex -7.0000004768371582 -1.8859072923660278 -1.6707680225372314
   vertex 8 -1.8859072923660278 -1.6707680225372314
  endloop
 endfacet
 facet normal 0 0.66312261734283129 0.74851078440353358
  outer loop
   vertex -7.0000004768371582 -1.4312652349472046 -2.0735456943511963
   vertex 8 -1.8859072923660278 -1.6707680225372314
   vertex 8 -1.4312652349472046 -2.0735456943511963
  endloop
 endfacet
 facet normal -0 0.46472313027195961 0.88545604757674512
  outer loop
   vertex -7.0000004768371582 -0.89344334602355957 -2.3558163642883301
   vertex -7.0000004768371582 -1.4312652349472046 -2.0735456943511963
   vertex 8 -1.4312652349472046 -2.0735456943511963
  endloop
 endfacet
 facet normal 0 0.46472313027195961 0.88545604757674512
  outer loop
   vertex -7.0000004768371582 -0.89344334602355957 -2.3558163642883301
   vertex 8 -1.4312652349472046 -2.0735456943511963
   vertex 8 -0.89344334602355957 -2.3558163642883301
  endloop
 endfacet
 facet normal -1 0 0
  outer loop
   vertex -7.0000004768371582 -1.4312652349472046 2.0735456943511963
   vertex -7.0000004768371582 -4.1420578956604004 4.3322529792785645
   vertex -7.0000004768371582 -3.3019397258758545 5.0022249221801758
  endloop
 endfacet
 facet normal -1 0 0
  outer loop
   vertex -7.0000004768371582 -3.3019397258758545 -5.0022249221801758
   vertex -7.0000004768371582 -4.1420578956604004 -4.3322529792785645
   vertex -7.0000004768371582 -1.4312652349472046 -2.0735456943511963
  endloop
 endfacet
 facet normal -1 0 -0
  outer loop
   vertex -7.0000004768371582 -4.1420578956604004 -4.3322529792785645
   vertex -7.0000004768371582 -1.8859072923660278 -1.6707680225372314
   vertex -7.0000004768371582 -1.4312652349472046 -2.0735456943511963
  endloop
 endfacet
 facet normal -1 0 -0
  outer loop
   vertex -7.0000004768371582 1.8859072923660278 1.6707680225372314
   vertex -7.0000004768371582 3.7370429039001465 4.6861038208007812
   vertex -7.0000004768371582 4.5137233734130859 3.9435210227966309
  endloop
 endfacet
 facet normal -1 0 0
  outer loop
   vertex -7.0000004768371582 1.4312652349472046 2.0735456943511963
   vertex -7.0000004768371582 3.7370429039001465 4.6861038208007812
   vertex -7.0000004768371582 1.8859072923660278 1.6707680225372314
  endloop
 endfacet
 facet normal -1 0 0
  outer loop
   vertex -7.0000004768371582 -4.1420578956604004 -4.3322529792785645
   vertex -7.0000004768371582 -4.8490467071533203 -3.5230386257171631
   vertex -7.0000004768371582 -1.8859072923660278 -1.6707680225372314
  endloop
 endfacet
 facet normal -1 0 0
  outer loop
   vertex -7.0000004768371582 -1.8859072923660278 -1.6707680225372314
   vertex -7.0000004768371582 -4.8490467071533203 -3.5230386257171631
   vertex -7.0000004768371582 -2.2309472560882568 -1.1708914041519165
  endloop
 endfacet
 facet normal -1 0 -0
  outer loop
   vertex -7.0000004768371582 1.4312652349472046 2.0735456943511963
   vertex -7.0000004768371582 2.8402509689331055 5.2780709266662598
   vertex -7.0000004768371582 3.7370429039001465 4.6861038208007812
  endloop
 endfacet
 facet normal -1 0 0
  outer loop
   vertex -7.0000004768371582 0.89344334602355957 2.3558163642883301
   vertex -7.0000004768371582 2.8402509689331055 5.2780709266662598
   vertex -7.0000004768371582 1.4312652349472046 2.0735456943511963
  endloop
 endfacet
 facet normal -1 0 0
  outer loop
   vertex -7.0000004768371582 -4.8490467071533203 -3.5230386257171631
   vertex -7.0000004768371582 -5.4001836776733398 -2.6005914211273193
   vertex -7.0000004768371582 -2.2309472560882568 -1.1708914041519165
  endloop
 endfacet
 facet normal -1 0 0
  outer loop
   vertex -7.0000004768371582 -2.2309472560882568 -1.1708914041519165
   vertex -7.0000004768371582 -5.4001836776733398 -2.6005914211273193
   vertex -7.0000004768371582 -2.4463324546813965 -0.60296684503555298
  endloop
 endfacet
 facet normal -1 0 0
  outer loop
   vertex -7.0000004768371582 3.7370429039001465 -4.6861038208007812
   vertex -7.0000004768371582 1.8859072923660278 -1.6707680225372314
   vertex -7.0000004768371582 4.5137233734130859 -3.9435210227966309
  endloop
 endfacet
 facet normal -1 0 0
  outer loop
   vertex -7.0000004768371582 4.5137233734130859 -3.9435210227966309
   vertex -7.0000004768371582 1.8859072923660278 -1.6707680225372314
   vertex -7.0000004768371582 5.1453285217285156 -3.0741908550262451
  endloop
 endfacet
 facet normal -1 0 0
  outer loop
   vertex -7.0000004768371582 2.8402509689331055 -5.2780709266662598
   vertex -7.0000004768371582 1.4312652349472046 -2.0735456943511963
   vertex -7.0000004768371582 3.7370429039001465 -4.6861038208007812
  endloop
 endfacet
 facet normal -1 0 0
  outer loop
   vertex -7.0000004768371582 3.7370429039001465 -4.6861038208007812
   vertex -7.0000004768371582 1.4312652349472046 -2.0735456943511963
   vertex -7.0000004768371582 1.8859072923660278 -1.6707680225372314
  endloop
 endfacet
 facet normal -1 0 0
  outer loop
   vertex -7.0000004768371582 5.1453285217285156 -3.0741908550262451
   vertex -7.0000004768371582 2.2309472560882568 -1.1708914041519165
   vertex -7.0000004768371582 5.6115593910217285 -2.106053352355957
  endloop
 endfacet
 facet normal -1 0 -0
  outer loop
   vertex -7.0000004768371582 1.8859072923660278 -1.6707680225372314
   vertex -7.0000004768371582 2.2309472560882568 -1.1708914041519165
   vertex -7.0000004768371582 5.1453285217285156 -3.0741908550262451
  endloop
 endfacet
 facet normal -1 0 0
  outer loop
   vertex -7.0000004768371582 1.8521710634231567 -5.7003965377807617
   vertex -7.0000004768371582 0.89344334602355957 -2.3558163642883301
   vertex -7.0000004768371582 2.8402509689331055 -5.2780709266662598
  endloop
 endfacet
 facet normal -1 0 0
  outer loop
   vertex -7.0000004768371582 2.8402509689331055 -5.2780709266662598
   vertex -7.0000004768371582 0.89344334602355957 -2.3558163642883301
   vertex -7.0000004768371582 1.4312652349472046 -2.0735456943511963
  endloop
 endfacet
 facet normal -1 0 -0
  outer loop
   vertex -7.0000004768371582 0.89344334602355957 2.3558163642883301
   vertex -7.0000004768371582 1.8521710634231567 5.7003965377807617
   vertex -7.0000004768371582 2.8402509689331055 5.2780709266662598
  endloop
 endfacet
 facet normal -1 0 0
  outer loop
   vertex -7.0000004768371582 0.30369770526885986 2.5011756420135498
   vertex -7.0000004768371582 1.8521710634231567 5.7003965377807617
   vertex -7.0000004768371582 0.89344334602355957 2.3558163642883301
  endloop
 endfacet
 facet normal -1 0 0
  outer loop
   vertex -7.0000004768371582 5.6115593910217285 -2.106053352355957
   vertex -7.0000004768371582 2.4463324546813965 -0.60296684503555298
   vertex -7.0000004768371582 5.8974294662475586 -1.070225715637207
  endloop
 endfacet
 facet normal -1 0 -0
  outer loop
   vertex -7.0000004768371582 2.2309472560882568 -1.1708914041519165
   vertex -7.0000004768371582 2.4463324546813965 -0.60296684503555298
   vertex -7.0000004768371582 5.6115593910217285 -2.106053352355957
  endloop
 endfacet
 facet normal -1 0 0
  outer loop
   vertex -7.0000004768371582 -5.4001836776733398 -2.6005914211273193
   vertex -7.0000004768371582 -5.7777538299560547 -1.5945587158203125
   vertex -7.0000004768371582 -2.4463324546813965 -0.60296684503555298
  endloop
 endfacet
 facet normal -1 0 -0
  outer loop
   vertex -7.0000004768371582 -0.26890864968299866 -5.9877161979675293
   vertex -7.0000004768371582 0.30369770526885986 -2.5011756420135498
   vertex -7.0000004768371582 0.80456084012985229 -5.9395065307617188
  endloop
 endfacet
 facet normal -1 0 0
  outer loop
   vertex -7.0000004768371582 0.80456084012985229 -5.9395065307617188
   vertex -7.0000004768371582 0.30369770526885986 -2.5011756420135498
   vertex -7.0000004768371582 1.8521710634231567 -5.7003965377807617
  endloop
 endfacet
 facet normal -1 0 -0
  outer loop
   vertex -7.0000004768371582 0.30369770526885986 2.5011756420135498
   vertex -7.0000004768371582 0.80456084012985229 5.9395065307617188
   vertex -7.0000004768371582 1.8521710634231567 5.7003965377807617
  endloop
 endfacet
 facet normal -1 0 0
  outer loop
   vertex -7.0000004768371582 1.8521710634231567 -5.7003965377807617
   vertex -7.0000004768371582 0.30369770526885986 -2.5011756420135498
   vertex -7.0000004768371582 0.89344334602355957 -2.3558163642883301
  endloop
 endfacet
 facet normal -1 0 0
  outer loop
   vertex -7.0000004768371582 5.9937515258789062 -4.6580806635390486e-15
   vertex -7.0000004768371582 2.5195460319519043 -1.9580805584536089e-15
   vertex -7.0000004768371582 5.8974294662475586 1.070225715637207
  endloop
 endfacet
 facet normal -1 0 0
  outer loop
   vertex -7.0000004768371582 5.8974294662475586 -1.070225715637207
   vertex -7.0000004768371582 2.5195460319519043 -1.9580805584536089e-15
   vertex -7.0000004768371582 5.9937515258789062 -4.6580806635390486e-15
  endloop
 endfacet
 facet normal -1 0 0
  outer loop
   vertex -7.0000004768371582 -2.4463324546813965 -0.60296684503555298
   vertex -7.0000004768371582 -5.9696226119995117 -0.53727573156356812
   vertex -7.0000004768371582 -2.5195460319519043 5.0638941485685839e-15
  endloop
 endfacet
 facet normal -1 0 0
  outer loop
   vertex -7.0000004768371582 -5.7777538299560547 -1.5945587158203125
   vertex -7.0000004768371582 -5.9696226119995117 -0.53727573156356812
   vertex -7.0000004768371582 -2.4463324546813965 -0.60296684503555298
  endloop
 endfacet
 facet normal -1 0 -0
  outer loop
   vertex -7.0000004768371582 2.4463324546813965 -0.60296684503555298
   vertex -7.0000004768371582 2.5195460319519043 -1.9580805584536089e-15
   vertex -7.0000004768371582 5.8974294662475586 -1.070225715637207
  endloop
 endfacet
 facet normal -1 0 -0
  outer loop
   vertex -7.0000004768371582 -0.30369770526885986 2.5011756420135498
   vertex -7.0000004768371582 -0.26890864968299866 5.9877161979675293
   vertex -7.0000004768371582 0.30369770526885986 2.5011756420135498
  endloop
 endfacet
 facet normal -1 0 -0
  outer loop
   vertex -7.0000004768371582 -1.3337352275848389 -5.8434758186340332
   vertex -7.0000004768371582 -0.30369770526885986 -2.5011756420135498
   vertex -7.0000004768371582 -0.26890864968299866 -5.9877161979675293
  endloop
 endfacet
 facet normal -1 0 0
  outer loop
   vertex -7.0000004768371582 0.30369770526885986 2.5011756420135498
   vertex -7.0000004768371582 -0.26890864968299866 5.9877161979675293
   vertex -7.0000004768371582 0.80456084012985229 5.9395065307617188
  endloop
 endfacet
 facet normal -1 0 0
  outer loop
   vertex -7.0000004768371582 -0.26890864968299866 -5.9877161979675293
   vertex -7.0000004768371582 -0.30369770526885986 -2.5011756420135498
   vertex -7.0000004768371582 0.30369770526885986 -2.5011756420135498
  endloop
 endfacet
 facet normal -1 0 0
  outer loop
   vertex -7.0000004768371582 -2.5195460319519043 5.0638941485685839e-15
   vertex -7.0000004768371582 -5.9696226119995117 0.53727573156356812
   vertex -7.0000004768371582 -2.4463324546813965 0.60296684503555298
  endloop
 endfacet
 facet normal -1 0 0
  outer loop
   vertex -7.0000004768371582 5.8974294662475586 1.070225715637207
   vertex -7.0000004768371582 2.4463324546813965 0.60296684503555298
   vertex -7.0000004768371582 5.6115593910217285 2.106053352355957
  endloop
 endfacet
 facet normal -1 0 0
  outer loop
   vertex -7.0000004768371582 -5.9696226119995117 -0.53727573156356812
   vertex -7.0000004768371582 -5.9696226119995117 0.53727573156356812
   vertex -7.0000004768371582 -2.5195460319519043 5.0638941485685839e-15
  endloop
 endfacet
 facet normal -1 0 0
  outer loop
   vertex -7.0000004768371582 -0.89344334602355957 2.3558163642883301
   vertex -7.0000004768371582 -1.3337352275848389 5.8434758186340332
   vertex -7.0000004768371582 -0.30369770526885986 2.5011756420135498
  endloop
 endfacet
 facet normal -1 0 0
  outer loop
   vertex -7.0000004768371582 2.5195460319519043 -1.9580805584536089e-15
   vertex -7.0000004768371582 2.4463324546813965 0.60296684503555298
   vertex -7.0000004768371582 5.8974294662475586 1.070225715637207
  endloop
 endfacet
 facet normal -1 0 0
  outer loop
   vertex -7.0000004768371582 -0.30369770526885986 2.5011756420135498
   vertex -7.0000004768371582 -1.3337352275848389 5.8434758186340332
   vertex -7.0000004768371582 -0.26890864968299866 5.9877161979675293
  endloop
 endfacet
 facet normal -1 0 -0
  outer loop
   vertex -7.0000004768371582 -5.9696226119995117 0.53727573156356812
   vertex -7.0000004768371582 -5.7777538299560547 1.5945587158203125
   vertex -7.0000004768371582 -2.4463324546813965 0.60296684503555298
  endloop
 endfacet
 facet normal -1 0 0
  outer loop
   vertex -7.0000004768371582 -2.3556942939758301 -5.5114212036132812
   vertex -7.0000004768371582 -0.89344334602355957 -2.3558163642883301
   vertex -7.0000004768371582 -1.3337352275848389 -5.8434758186340332
  endloop
 endfacet
 facet normal -1 0 0
  outer loop
   vertex -7.0000004768371582 -1.4312652349472046 2.0735456943511963
   vertex -7.0000004768371582 -2.3556942939758301 5.5114212036132812
   vertex -7.0000004768371582 -0.89344334602355957 2.3558163642883301
  endloop
 endfacet
 facet normal -1 0 -0
  outer loop
   vertex -7.0000004768371582 -1.3337352275848389 -5.8434758186340332
   vertex -7.0000004768371582 -0.89344334602355957 -2.3558163642883301
   vertex -7.0000004768371582 -0.30369770526885986 -2.5011756420135498
  endloop
 endfacet
 facet normal -1 0 0
  outer loop
   vertex -7.0000004768371582 5.6115593910217285 2.106053352355957
   vertex -7.0000004768371582 2.2309472560882568 1.1708914041519165
   vertex -7.0000004768371582 5.1453285217285156 3.0741908550262451
  endloop
 endfacet
 facet normal -1 0 0
  outer loop
   vertex -7.0000004768371582 2.4463324546813965 0.60296684503555298
   vertex -7.0000004768371582 2.2309472560882568 1.1708914041519165
   vertex -7.0000004768371582 5.6115593910217285 2.106053352355957
  endloop
 endfacet
 facet normal -1 0 0
  outer loop
   vertex -7.0000004768371582 -0.89344334602355957 2.3558163642883301
   vertex -7.0000004768371582 -2.3556942939758301 5.5114212036132812
   vertex -7.0000004768371582 -1.3337352275848389 5.8434758186340332
  endloop
 endfacet
 facet normal -1 0 0
  outer loop
   vertex -7.0000004768371582 -2.4463324546813965 0.60296684503555298
   vertex -7.0000004768371582 -5.4001836776733398 2.6005914211273193
   vertex -7.0000004768371582 -2.2309472560882568 1.1708914041519165
  endloop
 endfacet
 facet normal -1 0 -0
  outer loop
   vertex -7.0000004768371582 -5.7777538299560547 1.5945587158203125
   vertex -7.0000004768371582 -5.4001836776733398 2.6005914211273193
   vertex -7.0000004768371582 -2.4463324546813965 0.60296684503555298
  endloop
 endfacet
 facet normal -1 0 -0
  outer loop
   vertex -7.0000004768371582 -2.3556942939758301 -5.5114212036132812
   vertex -7.0000004768371582 -1.4312652349472046 -2.0735456943511963
   vertex -7.0000004768371582 -0.89344334602355957 -2.3558163642883301
  endloop
 endfacet
 facet normal -1 0 0
  outer loop
   vertex -7.0000004768371582 -3.3019397258758545 -5.0022249221801758
   vertex -7.0000004768371582 -1.4312652349472046 -2.0735456943511963
   vertex -7.0000004768371582 -2.3556942939758301 -5.5114212036132812
  endloop
 endfacet
 facet normal -1 0 0
  outer loop
   vertex -7.0000004768371582 -1.4312652349472046 2.0735456943511963
   vertex -7.0000004768371582 -3.3019397258758545 5.0022249221801758
   vertex -7.0000004768371582 -2.3556942939758301 5.5114212036132812
  endloop
 endfacet
 facet normal -1 0 -0
  outer loop
   vertex -7.0000004768371582 -5.4001836776733398 2.6005914211273193
   vertex -7.0000004768371582 -4.8490467071533203 3.5230386257171631
   vertex -7.0000004768371582 -2.2309472560882568 1.1708914041519165
  endloop
 endfacet
 facet normal -1 0 0
  outer loop
   vertex -7.0000004768371582 -2.2309472560882568 1.1708914041519165
   vertex -7.0000004768371582 -4.8490467071533203 3.5230386257171631
   vertex -7.0000004768371582 -1.8859072923660278 1.6707680225372314
  endloop
 endfacet
 facet normal -1 0 0
  outer loop
   vertex -7.0000004768371582 5.1453285217285156 3.0741908550262451
   vertex -7.0000004768371582 1.8859072923660278 1.6707680225372314
   vertex -7.0000004768371582 4.5137233734130859 3.9435210227966309
  endloop
 endfacet
 facet normal -1 0 0
  outer loop
   vertex -7.0000004768371582 -1.8859072923660278 1.6707680225372314
   vertex -7.0000004768371582 -4.1420578956604004 4.3322529792785645
   vertex -7.0000004768371582 -1.4312652349472046 2.0735456943511963
  endloop
 endfacet
 facet normal -1 0 -0
  outer loop
   vertex -7.0000004768371582 -4.8490467071533203 3.5230386257171631
   vertex -7.0000004768371582 -4.1420578956604004 4.3322529792785645
   vertex -7.0000004768371582 -1.8859072923660278 1.6707680225372314
  endloop
 endfacet
 facet normal -1 0 0
  outer loop
   vertex -7.0000004768371582 2.2309472560882568 1.1708914041519165
   vertex -7.0000004768371582 1.8859072923660278 1.6707680225372314
   vertex -7.0000004768371582 5.1453285217285156 3.0741908550262451
  endloop
 endfacet
 facet normal 1 0 -0
  outer loop
   vertex 8 -4.1420578956604004 -4.3322529792785645
   vertex 8 -3.3019397258758545 -5.0022249221801758
   vertex 8 -1.4312652349472046 -2.0735456943511963
  endloop
 endfacet
 facet normal 1 0 0
  outer loop
   vertex 8 -1.8859072923660278 -1.6707680225372314
   vertex 8 -4.1420578956604004 -4.3322529792785645
   vertex 8 -1.4312652349472046 -2.0735456943511963
  endloop
 endfacet
 facet normal 1 0 0
  outer loop
   vertex 8 3.7370429039001465 4.6861038208007812
   vertex 8 1.8859072923660278 1.6707680225372314
   vertex 8 4.5137233734130859 3.9435210227966309
  endloop
 endfacet
 facet normal 1 -0 0
  outer loop
   vertex 8 3.7370429039001465 4.6861038208007812
   vertex 8 1.4312652349472046 2.0735456943511963
   vertex 8 1.8859072923660278 1.6707680225372314
  endloop
 endfacet
 facet normal 1 0 -0
  outer loop
   vertex 8 -4.8490467071533203 -3.5230386257171631
   vertex 8 -4.1420578956604004 -4.3322529792785645
   vertex 8 -1.8859072923660278 -1.6707680225372314
  endloop
 endfacet
 facet normal 1 0 0
  outer loop
   vertex 8 -4.8490467071533203 -3.5230386257171631
   vertex 8 -1.8859072923660278 -1.6707680225372314
   vertex 8 -2.2309472560882568 -1.1708914041519165
  endloop
 endfacet
 facet normal 1 0 0
  outer loop
   vertex 8 2.8402509689331055 5.2780709266662598
   vertex 8 1.4312652349472046 2.0735456943511963
   vertex 8 3.7370429039001465 4.6861038208007812
  endloop
 endfacet
 facet normal 1 -0 0
  outer loop
   vertex 8 2.8402509689331055 5.2780709266662598
   vertex 8 0.89344334602355957 2.3558163642883301
   vertex 8 1.4312652349472046 2.0735456943511963
  endloop
 endfacet
 facet normal 1 0 -0
  outer loop
   vertex 8 -5.4001836776733398 -2.6005914211273193
   vertex 8 -4.8490467071533203 -3.5230386257171631
   vertex 8 -2.2309472560882568 -1.1708914041519165
  endloop
 endfacet
 facet normal 1 0 0
  outer loop
   vertex 8 -5.4001836776733398 -2.6005914211273193
   vertex 8 -2.2309472560882568 -1.1708914041519165
   vertex 8 -2.4463324546813965 -0.60296684503555298
  endloop
 endfacet
 facet normal 1 0 -0
  outer loop
   vertex 8 1.8859072923660278 -1.6707680225372314
   vertex 8 3.7370429039001465 -4.6861038208007812
   vertex 8 4.5137233734130859 -3.9435210227966309
  endloop
 endfacet
 facet normal 1 0 -0
  outer loop
   vertex 8 1.8859072923660278 -1.6707680225372314
   vertex 8 4.5137233734130859 -3.9435210227966309
   vertex 8 5.1453285217285156 -3.0741908550262451
  endloop
 endfacet
 facet normal 1 0 -0
  outer loop
   vertex 8 1.4312652349472046 -2.0735456943511963
   vertex 8 2.8402509689331055 -5.2780709266662598
   vertex 8 3.7370429039001465 -4.6861038208007812
  endloop
 endfacet
 facet normal 1 0 0
  outer loop
   vertex 8 1.4312652349472046 -2.0735456943511963
   vertex 8 3.7370429039001465 -4.6861038208007812
   vertex 8 1.8859072923660278 -1.6707680225372314
  endloop
 endfacet
 facet normal 1 0 -0
  outer loop
   vertex 8 2.2309472560882568 -1.1708914041519165
   vertex 8 5.1453285217285156 -3.0741908550262451
   vertex 8 5.6115593910217285 -2.106053352355957
  endloop
 endfacet
 facet normal 1 -0 0
  outer loop
   vertex 8 2.2309472560882568 -1.1708914041519165
   vertex 8 1.8859072923660278 -1.6707680225372314
   vertex 8 5.1453285217285156 -3.0741908550262451
  endloop
 endfacet
 facet normal 1 0 -0
  outer loop
   vertex 8 0.89344334602355957 -2.3558163642883301
   vertex 8 1.8521710634231567 -5.7003965377807617
   vertex 8 2.8402509689331055 -5.2780709266662598
  endloop
 endfacet
 facet normal 1 -0 0
  outer loop
   vertex 8 1.8521710634231567 5.7003965377807617
   vertex 8 0.30369770526885986 2.5011756420135498
   vertex 8 0.89344334602355957 2.3558163642883301
  endloop
 endfacet
 facet normal 1 0 0
  outer loop
   vertex 8 0.89344334602355957 -2.3558163642883301
   vertex 8 2.8402509689331055 -5.2780709266662598
   vertex 8 1.4312652349472046 -2.0735456943511963
  endloop
 endfacet
 facet normal 1 0 0
  outer loop
   vertex 8 1.8521710634231567 5.7003965377807617
   vertex 8 0.89344334602355957 2.3558163642883301
   vertex 8 2.8402509689331055 5.2780709266662598
  endloop
 endfacet
 facet normal 1 0 -0
  outer loop
   vertex 8 2.4463324546813965 -0.60296684503555298
   vertex 8 5.6115593910217285 -2.106053352355957
   vertex 8 5.8974294662475586 -1.070225715637207
  endloop
 endfacet
 facet normal 1 0 -0
  outer loop
   vertex 8 -5.7777538299560547 -1.5945587158203125
   vertex 8 -5.4001836776733398 -2.6005914211273193
   vertex 8 -2.4463324546813965 -0.60296684503555298
  endloop
 endfacet
 facet normal 1 -0 0
  outer loop
   vertex 8 2.4463324546813965 -0.60296684503555298
   vertex 8 2.2309472560882568 -1.1708914041519165
   vertex 8 5.6115593910217285 -2.106053352355957
  endloop
 endfacet
 facet normal 1 0 0
  outer loop
   vertex 8 0.80456084012985229 5.9395065307617188
   vertex 8 0.30369770526885986 2.5011756420135498
   vertex 8 1.8521710634231567 5.7003965377807617
  endloop
 endfacet
 facet normal 1 0 0
  outer loop
   vertex 8 0.30369770526885986 -2.5011756420135498
   vertex 8 -0.26890864968299866 -5.9877161979675293
   vertex 8 0.80456084012985229 -5.9395065307617188
  endloop
 endfacet
 facet normal 1 0 -0
  outer loop
   vertex 8 0.30369770526885986 -2.5011756420135498
   vertex 8 0.80456084012985229 -5.9395065307617188
   vertex 8 1.8521710634231567 -5.7003965377807617
  endloop
 endfacet
 facet normal 1 0 0
  outer loop
   vertex 8 0.30369770526885986 -2.5011756420135498
   vertex 8 1.8521710634231567 -5.7003965377807617
   vertex 8 0.89344334602355957 -2.3558163642883301
  endloop
 endfacet
 facet normal 1 0 0
  outer loop
   vertex 8 -5.9696226119995117 -0.53727573156356812
   vertex 8 -2.4463324546813965 -0.60296684503555298
   vertex 8 -2.5195460319519043 -8.8817841970012523e-15
  endloop
 endfacet
 facet normal 1 0 0
  outer loop
   vertex 8 2.5195460319519043 -5.3290705182007514e-15
   vertex 8 5.9937515258789062 -8.8817841970012523e-15
   vertex 8 5.8974294662475586 1.070225715637207
  endloop
 endfacet
 facet normal 1 0 -0
  outer loop
   vertex 8 -5.9696226119995117 -0.53727573156356812
   vertex 8 -5.7777538299560547 -1.5945587158203125
   vertex 8 -2.4463324546813965 -0.60296684503555298
  endloop
 endfacet
 facet normal 1 0 0
  outer loop
   vertex 8 -0.26890864968299866 5.9877161979675293
   vertex 8 -0.30369770526885986 2.5011756420135498
   vertex 8 0.30369770526885986 2.5011756420135498
  endloop
 endfacet
 facet normal 1 0 -0
  outer loop
   vertex 8 2.5195460319519043 -5.3290705182007514e-15
   vertex 8 5.8974294662475586 -1.070225715637207
   vertex 8 5.9937515258789062 -8.8817841970012523e-15
  endloop
 endfacet
 facet normal 1 -0 0
  outer loop
   vertex 8 2.5195460319519043 -5.3290705182007514e-15
   vertex 8 2.4463324546813965 -0.60296684503555298
   vertex 8 5.8974294662475586 -1.070225715637207
  endloop
 endfacet
 facet normal 1 -0 0
  outer loop
   vertex 8 -0.30369770526885986 -2.5011756420135498
   vertex 8 -1.3337352275848389 -5.8434758186340332
   vertex 8 -0.26890864968299866 -5.9877161979675293
  endloop
 endfacet
 facet normal 1 0 -0
  outer loop
   vertex 8 -0.30369770526885986 -2.5011756420135498
   vertex 8 -0.26890864968299866 -5.9877161979675293
   vertex 8 0.30369770526885986 -2.5011756420135498
  endloop
 endfacet
 facet normal 1 0 -0
  outer loop
   vertex 8 -0.26890864968299866 5.9877161979675293
   vertex 8 0.30369770526885986 2.5011756420135498
   vertex 8 0.80456084012985229 5.9395065307617188
  endloop
 endfacet
 facet normal 1 0 -0
  outer loop
   vertex 8 -5.9696226119995117 0.53727573156356812
   vertex 8 -2.5195460319519043 -8.8817841970012523e-15
   vertex 8 -2.4463324546813965 0.60296684503555298
  endloop
 endfacet
 facet normal 1 0 0
  outer loop
   vertex 8 -5.9696226119995117 0.53727573156356812
   vertex 8 -5.9696226119995117 -0.53727573156356812
   vertex 8 -2.5195460319519043 -8.8817841970012523e-15
  endloop
 endfacet
 facet normal 1 0 0
  outer loop
   vertex 8 2.4463324546813965 0.60296684503555298
   vertex 8 5.8974294662475586 1.070225715637207
   vertex 8 5.6115593910217285 2.106053352355957
  endloop
 endfacet
 facet normal 1 0 -0
  outer loop
   vertex 8 -1.3337352275848389 5.8434758186340332
   vertex 8 -0.89344334602355957 2.3558163642883301
   vertex 8 -0.30369770526885986 2.5011756420135498
  endloop
 endfacet
 facet normal 1 0 -0
  outer loop
   vertex 8 -1.3337352275848389 5.8434758186340332
   vertex 8 -0.30369770526885986 2.5011756420135498
   vertex 8 -0.26890864968299866 5.9877161979675293
  endloop
 endfacet
 facet normal 1 0 -0
  outer loop
   vertex 8 2.4463324546813965 0.60296684503555298
   vertex 8 2.5195460319519043 -5.3290705182007514e-15
   vertex 8 5.8974294662475586 1.070225715637207
  endloop
 endfacet
 facet normal 1 0 0
  outer loop
   vertex 8 -5.7777538299560547 1.5945587158203125
   vertex 8 -5.9696226119995117 0.53727573156356812
   vertex 8 -2.4463324546813965 0.60296684503555298
  endloop
 endfacet
 facet normal 1 0 0
  outer loop
   vertex 8 -0.89344334602355957 -2.3558163642883301
   vertex 8 -1.3337352275848389 -5.8434758186340332
   vertex 8 -0.30369770526885986 -2.5011756420135498
  endloop
 endfacet
 facet normal 1 0 -0
  outer loop
   vertex 8 -2.3556942939758301 5.5114212036132812
   vertex 8 -1.4312652349472046 2.0735456943511963
   vertex 8 -0.89344334602355957 2.3558163642883301
  endloop
 endfacet
 facet normal 1 -0 0
  outer loop
   vertex 8 -0.89344334602355957 -2.3558163642883301
   vertex 8 -2.3556942939758301 -5.5114212036132812
   vertex 8 -1.3337352275848389 -5.8434758186340332
  endloop
 endfacet
 facet normal 1 0 0
  outer loop
   vertex 8 -2.3556942939758301 5.5114212036132812
   vertex 8 -0.89344334602355957 2.3558163642883301
   vertex 8 -1.3337352275848389 5.8434758186340332
  endloop
 endfacet
 facet normal 1 0 0
  outer loop
   vertex 8 2.2309472560882568 1.1708914041519165
   vertex 8 5.6115593910217285 2.106053352355957
   vertex 8 5.1453285217285156 3.0741908550262451
  endloop
 endfacet
 facet normal 1 0 -0
  outer loop
   vertex 8 -5.4001836776733398 2.6005914211273193
   vertex 8 -2.4463324546813965 0.60296684503555298
   vertex 8 -2.2309472560882568 1.1708914041519165
  endloop
 endfacet
 facet normal 1 -0 0
  outer loop
   vertex 8 -5.4001836776733398 2.6005914211273193
   vertex 8 -5.7777538299560547 1.5945587158203125
   vertex 8 -2.4463324546813965 0.60296684503555298
  endloop
 endfacet
 facet normal 1 0 -0
  outer loop
   vertex 8 2.2309472560882568 1.1708914041519165
   vertex 8 2.4463324546813965 0.60296684503555298
   vertex 8 5.6115593910217285 2.106053352355957
  endloop
 endfacet
 facet normal 1 0 0
  outer loop
   vertex 8 -1.4312652349472046 -2.0735456943511963
   vertex 8 -2.3556942939758301 -5.5114212036132812
   vertex 8 -0.89344334602355957 -2.3558163642883301
  endloop
 endfacet
 facet normal 1 0 0
  outer loop
   vertex 8 -3.3019397258758545 5.0022249221801758
   vertex 8 -1.4312652349472046 2.0735456943511963
   vertex 8 -2.3556942939758301 5.5114212036132812
  endloop
 endfacet
 facet normal 1 -0 0
  outer loop
   vertex 8 -1.4312652349472046 -2.0735456943511963
   vertex 8 -3.3019397258758545 -5.0022249221801758
   vertex 8 -2.3556942939758301 -5.5114212036132812
  endloop
 endfacet
 facet normal 1 0 -0
  outer loop
   vertex 8 -4.8490467071533203 3.5230386257171631
   vertex 8 -2.2309472560882568 1.1708914041519165
   vertex 8 -1.8859072923660278 1.6707680225372314
  endloop
 endfacet
 facet normal 1 -0 0
  outer loop
   vertex 8 -4.8490467071533203 3.5230386257171631
   vertex 8 -5.4001836776733398 2.6005914211273193
   vertex 8 -2.2309472560882568 1.1708914041519165
  endloop
 endfacet
 facet normal 1 0 -0
  outer loop
   vertex 8 -4.1420578956604004 4.3322529792785645
   vertex 8 -1.8859072923660278 1.6707680225372314
   vertex 8 -1.4312652349472046 2.0735456943511963
  endloop
 endfacet
 facet normal 1 -0 0
  outer loop
   vertex 8 -4.1420578956604004 4.3322529792785645
   vertex 8 -4.8490467071533203 3.5230386257171631
   vertex 8 -1.8859072923660278 1.6707680225372314
  endloop
 endfacet
 facet normal 1 0 0
  outer loop
   vertex 8 -4.1420578956604004 4.3322529792785645
   vertex 8 -1.4312652349472046 2.0735456943511963
   vertex 8 -3.3019397258758545 5.0022249221801758
  endloop
 endfacet
 facet normal 1 0 0
  outer loop
   vertex 8 1.8859072923660278 1.6707680225372314
   vertex 8 5.1453285217285156 3.0741908550262451
   vertex 8 4.5137233734130859 3.9435210227966309
  endloop
 endfacet
 facet normal 1 0 -0
  outer loop
   vertex 8 1.8859072923660278 1.6707680225372314
   vertex 8 2.2309472560882568 1.1708914041519165
   vertex 8 5.1453285217285156 3.0741908550262451
  endloop
 endfacet
endsolid
