solid Mesh
  facet normal -1.000000 0.000000 0.000000
    outer loop
      vertex 0.000000 600.000000 0.000000
      vertex 0.000000 0.000000 120.000000
      vertex 0.000000 600.000000 120.000000
    endloop
  endfacet
  facet normal -1.000000 0.000000 0.000000
    outer loop
      vertex 0.000000 0.000000 0.000000
      vertex 0.000000 0.000000 120.000000
      vertex 0.000000 600.000000 0.000000
    endloop
  endfacet
  facet normal 0.000000 -1.000000 0.000000
    outer loop
      vertex 120.000000 0.000000 0.000000
      vertex 120.000000 0.000000 120.000000
      vertex 0.000000 0.000000 0.000000
    endloop
  endfacet
  facet normal 0.000000 -1.000000 0.000000
    outer loop
      vertex 0.000000 0.000000 0.000000
      vertex 120.000000 0.000000 120.000000
      vertex 0.000000 0.000000 120.000000
    endloop
  endfacet
  facet normal 0.000000 0.000000 1.000000
    outer loop
      vertex 120.000000 600.000000 120.000000
      vertex 0.000000 600.000000 120.000000
      vertex 0.000000 0.000000 120.000000
    endloop
  endfacet
  facet normal 0.000000 0.000000 1.000000
    outer loop
      vertex 120.000000 600.000000 120.000000
      vertex 0.000000 0.000000 120.000000
      vertex 120.000000 0.000000 120.000000
    endloop
  endfacet
  facet normal 0.000000 1.000000 0.000000
    outer loop
      vertex 57.887005 600.000000 67.196198
      vertex 56.884388 600.000000 66.822243
      vertex 0.000000 600.000000 120.000000
    endloop
  endfacet
  facet normal 0.000000 1.000000 0.000000
    outer loop
      vertex 67.423660 600.000000 58.932640
      vertex 120.000000 600.000000 0.000000
      vertex 67.196198 600.000000 57.887005
    endloop
  endfacet
  facet normal 0.000000 1.000000 0.000000
    outer loop
      vertex 55.088543 600.000000 54.331879
      vertex 0.000000 600.000000 0.000000
      vertex 54.331879 600.000000 55.088543
    endloop
  endfacet
  facet normal 0.000000 1.000000 0.000000
    outer loop
      vertex 58.932640 600.000000 67.423660
      vertex 57.887005 600.000000 67.196198
      vertex 0.000000 600.000000 120.000000
    endloop
  endfacet
  facet normal 0.000000 1.000000 0.000000
    outer loop
      vertex 55.945194 600.000000 53.690598
      vertex 0.000000 600.000000 0.000000
      vertex 55.088543 600.000000 54.331879
    endloop
  endfacet
  facet normal 0.000000 1.000000 0.000000
    outer loop
      vertex 53.690598 600.000000 55.945194
      vertex 54.331879 600.000000 55.088543
      vertex 0.000000 600.000000 0.000000
    endloop
  endfacet
  facet normal 0.000000 1.000000 0.000000
    outer loop
      vertex 60.000000 600.000000 67.500000
      vertex 58.932640 600.000000 67.423660
      vertex 0.000000 600.000000 120.000000
    endloop
  endfacet
  facet normal 0.000000 1.000000 0.000000
    outer loop
      vertex 56.884388 600.000000 53.177761
      vertex 0.000000 600.000000 0.000000
      vertex 55.945194 600.000000 53.690598
    endloop
  endfacet
  facet normal 0.000000 1.000000 0.000000
    outer loop
      vertex 67.500000 600.000000 60.000000
      vertex 120.000000 600.000000 0.000000
      vertex 67.423660 600.000000 58.932640
    endloop
  endfacet
  facet normal 0.000000 1.000000 0.000000
    outer loop
      vertex 53.177761 600.000000 56.884388
      vertex 53.690598 600.000000 55.945194
      vertex 0.000000 600.000000 0.000000
    endloop
  endfacet
  facet normal 0.000000 1.000000 0.000000
    outer loop
      vertex 57.887005 600.000000 52.803802
      vertex 0.000000 600.000000 0.000000
      vertex 56.884388 600.000000 53.177761
    endloop
  endfacet
  facet normal 0.000000 1.000000 0.000000
    outer loop
      vertex 52.803802 600.000000 57.887005
      vertex 53.177761 600.000000 56.884388
      vertex 0.000000 600.000000 0.000000
    endloop
  endfacet
  facet normal 0.000000 1.000000 0.000000
    outer loop
      vertex 58.932640 600.000000 52.576340
      vertex 0.000000 600.000000 0.000000
      vertex 57.887005 600.000000 52.803802
    endloop
  endfacet
  facet normal 0.000000 1.000000 0.000000
    outer loop
      vertex 52.576340 600.000000 58.932640
      vertex 52.803802 600.000000 57.887005
      vertex 0.000000 600.000000 0.000000
    endloop
  endfacet
  facet normal 0.000000 1.000000 0.000000
    outer loop
      vertex 60.000000 600.000000 52.500000
      vertex 0.000000 600.000000 0.000000
      vertex 58.932640 600.000000 52.576340
    endloop
  endfacet
  facet normal 0.000000 1.000000 0.000000
    outer loop
      vertex 52.500000 600.000000 60.000000
      vertex 52.576340 600.000000 58.932640
      vertex 0.000000 600.000000 0.000000
    endloop
  endfacet
  facet normal 0.000000 1.000000 0.000000
    outer loop
      vertex 120.000000 600.000000 120.000000
      vertex 67.500000 600.000000 60.000000
      vertex 67.423660 600.000000 61.067360
    endloop
  endfacet
  facet normal 0.000000 1.000000 0.000000
    outer loop
      vertex 120.000000 600.000000 120.000000
      vertex 67.423660 600.000000 61.067360
      vertex 67.196198 600.000000 62.112995
    endloop
  endfacet
  facet normal 0.000000 1.000000 0.000000
    outer loop
      vertex 120.000000 600.000000 120.000000
      vertex 67.196198 600.000000 62.112995
      vertex 66.822243 600.000000 63.115612
    endloop
  endfacet
  facet normal 0.000000 1.000000 0.000000
    outer loop
      vertex 120.000000 600.000000 120.000000
      vertex 66.822243 600.000000 63.115612
      vertex 66.309402 600.000000 64.054810
    endloop
  endfacet
  facet normal 0.000000 1.000000 0.000000
    outer loop
      vertex 120.000000 600.000000 120.000000
      vertex 66.309402 600.000000 64.054810
      vertex 65.668121 600.000000 64.911453
    endloop
  endfacet
  facet normal 0.000000 1.000000 0.000000
    outer loop
      vertex 120.000000 600.000000 120.000000
      vertex 65.668121 600.000000 64.911453
      vertex 64.911453 600.000000 65.668121
    endloop
  endfacet
  facet normal 0.000000 1.000000 0.000000
    outer loop
      vertex 120.000000 600.000000 120.000000
      vertex 64.911453 600.000000 65.668121
      vertex 64.054810 600.000000 66.309402
    endloop
  endfacet
  facet normal 0.000000 1.000000 0.000000
    outer loop
      vertex 120.000000 600.000000 120.000000
      vertex 64.054810 600.000000 66.309402
      vertex 63.115612 600.000000 66.822243
    endloop
  endfacet
  facet normal 0.000000 1.000000 0.000000
    outer loop
      vertex 120.000000 600.000000 120.000000
      vertex 120.000000 600.000000 0.000000
      vertex 67.500000 600.000000 60.000000
    endloop
  endfacet
  facet normal 0.000000 1.000000 0.000000
    outer loop
      vertex 120.000000 600.000000 120.000000
      vertex 63.115612 600.000000 66.822243
      vertex 62.112995 600.000000 67.196198
    endloop
  endfacet
  facet normal 0.000000 1.000000 0.000000
    outer loop
      vertex 120.000000 600.000000 120.000000
      vertex 62.112995 600.000000 67.196198
      vertex 61.067360 600.000000 67.423660
    endloop
  endfacet
  facet normal 0.000000 1.000000 0.000000
    outer loop
      vertex 120.000000 600.000000 120.000000
      vertex 61.067360 600.000000 67.423660
      vertex 60.000000 600.000000 67.500000
    endloop
  endfacet
  facet normal 0.000000 1.000000 0.000000
    outer loop
      vertex 120.000000 600.000000 120.000000
      vertex 60.000000 600.000000 67.500000
      vertex 0.000000 600.000000 120.000000
    endloop
  endfacet
  facet normal 0.000000 1.000000 0.000000
    outer loop
      vertex 0.000000 600.000000 120.000000
      vertex 54.331879 600.000000 64.911453
      vertex 53.690598 600.000000 64.054810
    endloop
  endfacet
  facet normal 0.000000 1.000000 0.000000
    outer loop
      vertex 0.000000 600.000000 120.000000
      vertex 53.690598 600.000000 64.054810
      vertex 53.177761 600.000000 63.115612
    endloop
  endfacet
  facet normal 0.000000 1.000000 0.000000
    outer loop
      vertex 0.000000 600.000000 120.000000
      vertex 53.177761 600.000000 63.115612
      vertex 52.803802 600.000000 62.112995
    endloop
  endfacet
  facet normal 0.000000 1.000000 0.000000
    outer loop
      vertex 0.000000 600.000000 120.000000
      vertex 52.803802 600.000000 62.112995
      vertex 52.576340 600.000000 61.067360
    endloop
  endfacet
  facet normal 0.000000 1.000000 0.000000
    outer loop
      vertex 0.000000 600.000000 120.000000
      vertex 52.576340 600.000000 61.067360
      vertex 52.500000 600.000000 60.000000
    endloop
  endfacet
  facet normal 0.000000 1.000000 0.000000
    outer loop
      vertex 0.000000 600.000000 120.000000
      vertex 52.500000 600.000000 60.000000
      vertex 0.000000 600.000000 0.000000
    endloop
  endfacet
  facet normal 0.000000 1.000000 0.000000
    outer loop
      vertex 120.000000 600.000000 0.000000
      vertex 60.000000 600.000000 52.500000
      vertex 61.067360 600.000000 52.576340
    endloop
  endfacet
  facet normal 0.000000 1.000000 0.000000
    outer loop
      vertex 120.000000 600.000000 0.000000
      vertex 61.067360 600.000000 52.576340
      vertex 62.112995 600.000000 52.803802
    endloop
  endfacet
  facet normal 0.000000 1.000000 0.000000
    outer loop
      vertex 120.000000 600.000000 0.000000
      vertex 62.112995 600.000000 52.803802
      vertex 63.115612 600.000000 53.177761
    endloop
  endfacet
  facet normal 0.000000 1.000000 0.000000
    outer loop
      vertex 120.000000 600.000000 0.000000
      vertex 63.115612 600.000000 53.177761
      vertex 64.054810 600.000000 53.690598
    endloop
  endfacet
  facet normal 0.000000 1.000000 0.000000
    outer loop
      vertex 120.000000 600.000000 0.000000
      vertex 64.054810 600.000000 53.690598
      vertex 64.911453 600.000000 54.331879
    endloop
  endfacet
  facet normal 0.000000 1.000000 0.000000
    outer loop
      vertex 120.000000 600.000000 0.000000
      vertex 0.000000 600.000000 0.000000
      vertex 60.000000 600.000000 52.500000
    endloop
  endfacet
  facet normal 0.000000 1.000000 0.000000
    outer loop
      vertex 65.668121 600.000000 55.088543
      vertex 120.000000 600.000000 0.000000
      vertex 64.911453 600.000000 54.331879
    endloop
  endfacet
  facet normal 0.000000 1.000000 0.000000
    outer loop
      vertex 55.088543 600.000000 65.668121
      vertex 54.331879 600.000000 64.911453
      vertex 0.000000 600.000000 120.000000
    endloop
  endfacet
  facet normal 0.000000 1.000000 0.000000
    outer loop
      vertex 66.309402 600.000000 55.945194
      vertex 120.000000 600.000000 0.000000
      vertex 65.668121 600.000000 55.088543
    endloop
  endfacet
  facet normal 0.000000 1.000000 0.000000
    outer loop
      vertex 55.945194 600.000000 66.309402
      vertex 55.088543 600.000000 65.668121
      vertex 0.000000 600.000000 120.000000
    endloop
  endfacet
  facet normal 0.000000 1.000000 0.000000
    outer loop
      vertex 66.822243 600.000000 56.884388
      vertex 120.000000 600.000000 0.000000
      vertex 66.309402 600.000000 55.945194
    endloop
  endfacet
  facet normal 0.000000 1.000000 0.000000
    outer loop
      vertex 56.884388 600.000000 66.822243
      vertex 55.945194 600.000000 66.309402
      vertex 0.000000 600.000000 120.000000
    endloop
  endfacet
  facet normal 0.000000 1.000000 0.000000
    outer loop
      vertex 67.196198 600.000000 57.887005
      vertex 120.000000 600.000000 0.000000
      vertex 66.822243 600.000000 56.884388
    endloop
  endfacet
  facet normal 0.000000 0.000000 -1.000000
    outer loop
      vertex 0.000000 600.000000 0.000000
      vertex 120.000000 600.000000 0.000000
      vertex 0.000000 0.000000 0.000000
    endloop
  endfacet
  facet normal 0.000000 0.000000 -1.000000
    outer loop
      vertex 0.000000 0.000000 0.000000
      vertex 120.000000 600.000000 0.000000
      vertex 120.000000 0.000000 0.000000
    endloop
  endfacet
  facet normal 1.000000 -0.000000 0.000000
    outer loop
      vertex 120.000000 0.000000 120.000000
      vertex 120.000000 600.000000 0.000000
      vertex 120.000000 600.000000 120.000000
    endloop
  endfacet
  facet normal 1.000000 0.000000 0.000000
    outer loop
      vertex 120.000000 0.000000 120.000000
      vertex 120.000000 0.000000 0.000000
      vertex 120.000000 600.000000 0.000000
    endloop
  endfacet
  facet normal 0.349466 0.000000 -0.936949
    outer loop
      vertex 62.112995 630.000000 52.803802
      vertex 63.115612 630.000000 53.177761
      vertex 62.112995 600.000000 52.803802
    endloop
  endfacet
  facet normal -0.707109 0.000000 0.707105
    outer loop
      vertex 55.088543 600.000000 65.668121
      vertex 54.331879 630.000000 64.911453
      vertex 54.331879 600.000000 64.911453
    endloop
  endfacet
  facet normal 0.349466 0.000000 -0.936949
    outer loop
      vertex 62.112995 600.000000 52.803802
      vertex 63.115612 630.000000 53.177761
      vertex 63.115612 600.000000 53.177761
    endloop
  endfacet
  facet normal -0.707109 0.000000 0.707105
    outer loop
      vertex 55.088543 630.000000 65.668121
      vertex 54.331879 630.000000 64.911453
      vertex 55.088543 600.000000 65.668121
    endloop
  endfacet
  facet normal 0.479246 0.000000 -0.877681
    outer loop
      vertex 63.115612 630.000000 53.177761
      vertex 64.054810 630.000000 53.690598
      vertex 63.115612 600.000000 53.177761
    endloop
  endfacet
  facet normal -0.800539 0.000000 0.599281
    outer loop
      vertex 54.331879 600.000000 64.911453
      vertex 53.690598 630.000000 64.054810
      vertex 53.690598 600.000000 64.054810
    endloop
  endfacet
  facet normal 0.479246 0.000000 -0.877681
    outer loop
      vertex 63.115612 600.000000 53.177761
      vertex 64.054810 630.000000 53.690598
      vertex 64.054810 600.000000 53.690598
    endloop
  endfacet
  facet normal -0.800539 0.000000 0.599281
    outer loop
      vertex 54.331879 630.000000 64.911453
      vertex 53.690598 630.000000 64.054810
      vertex 54.331879 600.000000 64.911453
    endloop
  endfacet
  facet normal 0.599281 0.000000 -0.800539
    outer loop
      vertex 64.054810 630.000000 53.690598
      vertex 64.911453 630.000000 54.331879
      vertex 64.054810 600.000000 53.690598
    endloop
  endfacet
  facet normal -0.877681 0.000000 0.479246
    outer loop
      vertex 53.690598 600.000000 64.054810
      vertex 53.177761 630.000000 63.115612
      vertex 53.177761 600.000000 63.115612
    endloop
  endfacet
  facet normal 0.599281 0.000000 -0.800539
    outer loop
      vertex 64.054810 600.000000 53.690598
      vertex 64.911453 630.000000 54.331879
      vertex 64.911453 600.000000 54.331879
    endloop
  endfacet
  facet normal 0.997452 0.000000 0.071340
    outer loop
      vertex 67.500000 600.000000 60.000000
      vertex 67.423660 630.000000 61.067360
      vertex 67.423660 600.000000 61.067360
    endloop
  endfacet
  facet normal -0.877681 0.000000 0.479246
    outer loop
      vertex 53.690598 630.000000 64.054810
      vertex 53.177761 630.000000 63.115612
      vertex 53.690598 600.000000 64.054810
    endloop
  endfacet
  facet normal 0.997452 0.000000 0.071340
    outer loop
      vertex 67.500000 630.000000 60.000000
      vertex 67.423660 630.000000 61.067360
      vertex 67.500000 600.000000 60.000000
    endloop
  endfacet
  facet normal 0.707105 0.000000 -0.707109
    outer loop
      vertex 64.911453 630.000000 54.331879
      vertex 65.668121 630.000000 55.088543
      vertex 64.911453 600.000000 54.331879
    endloop
  endfacet
  facet normal -0.936949 0.000000 0.349466
    outer loop
      vertex 53.177761 600.000000 63.115612
      vertex 52.803802 630.000000 62.112995
      vertex 52.803802 600.000000 62.112995
    endloop
  endfacet
  facet normal 0.707105 0.000000 -0.707109
    outer loop
      vertex 64.911453 600.000000 54.331879
      vertex 65.668121 630.000000 55.088543
      vertex 65.668121 600.000000 55.088543
    endloop
  endfacet
  facet normal 0.977147 0.000000 0.212564
    outer loop
      vertex 67.423660 600.000000 61.067360
      vertex 67.196198 630.000000 62.112995
      vertex 67.196198 600.000000 62.112995
    endloop
  endfacet
  facet normal -0.936949 0.000000 0.349466
    outer loop
      vertex 53.177761 630.000000 63.115612
      vertex 52.803802 630.000000 62.112995
      vertex 53.177761 600.000000 63.115612
    endloop
  endfacet
  facet normal 0.977147 0.000000 0.212564
    outer loop
      vertex 67.423660 630.000000 61.067360
      vertex 67.196198 630.000000 62.112995
      vertex 67.423660 600.000000 61.067360
    endloop
  endfacet
  facet normal 0.800541 0.000000 -0.599278
    outer loop
      vertex 65.668121 630.000000 55.088543
      vertex 66.309402 630.000000 55.945194
      vertex 65.668121 600.000000 55.088543
    endloop
  endfacet
  facet normal -0.977147 0.000000 0.212564
    outer loop
      vertex 52.803802 600.000000 62.112995
      vertex 52.576340 630.000000 61.067360
      vertex 52.576340 600.000000 61.067360
    endloop
  endfacet
  facet normal 0.800541 0.000000 -0.599278
    outer loop
      vertex 65.668121 600.000000 55.088543
      vertex 66.309402 630.000000 55.945194
      vertex 66.309402 600.000000 55.945194
    endloop
  endfacet
  facet normal -0.977147 0.000000 0.212564
    outer loop
      vertex 52.803802 630.000000 62.112995
      vertex 52.576340 630.000000 61.067360
      vertex 52.803802 600.000000 62.112995
    endloop
  endfacet
  facet normal 0.936950 0.000000 0.349463
    outer loop
      vertex 67.196198 630.000000 62.112995
      vertex 66.822243 630.000000 63.115612
      vertex 67.196198 600.000000 62.112995
    endloop
  endfacet
  facet normal 0.936950 0.000000 0.349463
    outer loop
      vertex 67.196198 600.000000 62.112995
      vertex 66.822243 630.000000 63.115612
      vertex 66.822243 600.000000 63.115612
    endloop
  endfacet
  facet normal 0.877678 0.000000 -0.479250
    outer loop
      vertex 66.309402 630.000000 55.945194
      vertex 66.822243 630.000000 56.884388
      vertex 66.309402 600.000000 55.945194
    endloop
  endfacet
  facet normal -0.997452 0.000000 0.071340
    outer loop
      vertex 52.576340 600.000000 61.067360
      vertex 52.500000 630.000000 60.000000
      vertex 52.500000 600.000000 60.000000
    endloop
  endfacet
  facet normal 0.877678 0.000000 -0.479250
    outer loop
      vertex 66.309402 600.000000 55.945194
      vertex 66.822243 630.000000 56.884388
      vertex 66.822243 600.000000 56.884388
    endloop
  endfacet
  facet normal -0.997452 0.000000 0.071340
    outer loop
      vertex 52.576340 630.000000 61.067360
      vertex 52.500000 630.000000 60.000000
      vertex 52.576340 600.000000 61.067360
    endloop
  endfacet
  facet normal 0.877679 0.000000 0.479249
    outer loop
      vertex 66.822243 630.000000 63.115612
      vertex 66.309402 630.000000 64.054810
      vertex 66.822243 600.000000 63.115612
    endloop
  endfacet
  facet normal 0.877679 0.000000 0.479249
    outer loop
      vertex 66.822243 600.000000 63.115612
      vertex 66.309402 630.000000 64.054810
      vertex 66.309402 600.000000 64.054810
    endloop
  endfacet
  facet normal 0.936950 0.000000 -0.349463
    outer loop
      vertex 66.822243 630.000000 56.884388
      vertex 67.196198 630.000000 57.887005
      vertex 66.822243 600.000000 56.884388
    endloop
  endfacet
  facet normal -0.997452 0.000000 -0.071340
    outer loop
      vertex 52.500000 600.000000 60.000000
      vertex 52.576340 630.000000 58.932640
      vertex 52.576340 600.000000 58.932640
    endloop
  endfacet
  facet normal 0.936950 0.000000 -0.349463
    outer loop
      vertex 66.822243 600.000000 56.884388
      vertex 67.196198 630.000000 57.887005
      vertex 67.196198 600.000000 57.887005
    endloop
  endfacet
  facet normal -0.997452 -0.000000 -0.071340
    outer loop
      vertex 52.500000 630.000000 60.000000
      vertex 52.576340 630.000000 58.932640
      vertex 52.500000 600.000000 60.000000
    endloop
  endfacet
  facet normal 0.800539 0.000000 0.599281
    outer loop
      vertex 66.309402 630.000000 64.054810
      vertex 65.668121 630.000000 64.911453
      vertex 66.309402 600.000000 64.054810
    endloop
  endfacet
  facet normal 0.977147 0.000000 -0.212564
    outer loop
      vertex 67.196198 630.000000 57.887005
      vertex 67.423660 630.000000 58.932640
      vertex 67.196198 600.000000 57.887005
    endloop
  endfacet
  facet normal 0.800539 0.000000 0.599281
    outer loop
      vertex 66.309402 600.000000 64.054810
      vertex 65.668121 630.000000 64.911453
      vertex 65.668121 600.000000 64.911453
    endloop
  endfacet
  facet normal 0.977147 0.000000 -0.212564
    outer loop
      vertex 67.196198 600.000000 57.887005
      vertex 67.423660 630.000000 58.932640
      vertex 67.423660 600.000000 58.932640
    endloop
  endfacet
  facet normal -0.977147 0.000000 -0.212564
    outer loop
      vertex 52.576340 600.000000 58.932640
      vertex 52.803802 630.000000 57.887005
      vertex 52.803802 600.000000 57.887005
    endloop
  endfacet
  facet normal -0.977147 -0.000000 -0.212564
    outer loop
      vertex 52.576340 630.000000 58.932640
      vertex 52.803802 630.000000 57.887005
      vertex 52.576340 600.000000 58.932640
    endloop
  endfacet
  facet normal 0.997452 0.000000 -0.071340
    outer loop
      vertex 67.423660 630.000000 58.932640
      vertex 67.500000 630.000000 60.000000
      vertex 67.423660 600.000000 58.932640
    endloop
  endfacet
  facet normal 0.997452 0.000000 -0.071340
    outer loop
      vertex 67.423660 600.000000 58.932640
      vertex 67.500000 630.000000 60.000000
      vertex 67.500000 600.000000 60.000000
    endloop
  endfacet
  facet normal 0.707107 0.000000 0.707107
    outer loop
      vertex 65.668121 630.000000 64.911453
      vertex 64.911453 630.000000 65.668121
      vertex 65.668121 600.000000 64.911453
    endloop
  endfacet
  facet normal 0.707107 0.000000 0.707107
    outer loop
      vertex 65.668121 600.000000 64.911453
      vertex 64.911453 630.000000 65.668121
      vertex 64.911453 600.000000 65.668121
    endloop
  endfacet
  facet normal -0.936949 0.000000 -0.349466
    outer loop
      vertex 52.803802 600.000000 57.887005
      vertex 53.177761 630.000000 56.884388
      vertex 53.177761 600.000000 56.884388
    endloop
  endfacet
  facet normal -0.936949 -0.000000 -0.349466
    outer loop
      vertex 52.803802 630.000000 57.887005
      vertex 53.177761 630.000000 56.884388
      vertex 52.803802 600.000000 57.887005
    endloop
  endfacet
  facet normal 0.599281 0.000000 0.800539
    outer loop
      vertex 64.911453 630.000000 65.668121
      vertex 64.054810 630.000000 66.309402
      vertex 64.911453 600.000000 65.668121
    endloop
  endfacet
  facet normal 0.599281 0.000000 0.800539
    outer loop
      vertex 64.911453 600.000000 65.668121
      vertex 64.054810 630.000000 66.309402
      vertex 64.054810 600.000000 66.309402
    endloop
  endfacet
  facet normal -0.877680 0.000000 -0.479247
    outer loop
      vertex 53.177761 600.000000 56.884388
      vertex 53.690598 630.000000 55.945194
      vertex 53.690598 600.000000 55.945194
    endloop
  endfacet
  facet normal -0.877680 -0.000000 -0.479247
    outer loop
      vertex 53.177761 630.000000 56.884388
      vertex 53.690598 630.000000 55.945194
      vertex 53.177761 600.000000 56.884388
    endloop
  endfacet
  facet normal 0.479249 0.000000 0.877679
    outer loop
      vertex 64.054810 630.000000 66.309402
      vertex 63.115612 630.000000 66.822243
      vertex 64.054810 600.000000 66.309402
    endloop
  endfacet
  facet normal -0.800541 0.000000 -0.599278
    outer loop
      vertex 53.690598 600.000000 55.945194
      vertex 54.331879 630.000000 55.088543
      vertex 54.331879 600.000000 55.088543
    endloop
  endfacet
  facet normal 0.479249 0.000000 0.877679
    outer loop
      vertex 64.054810 600.000000 66.309402
      vertex 63.115612 630.000000 66.822243
      vertex 63.115612 600.000000 66.822243
    endloop
  endfacet
  facet normal -0.800541 -0.000000 -0.599278
    outer loop
      vertex 53.690598 630.000000 55.945194
      vertex 54.331879 630.000000 55.088543
      vertex 53.690598 600.000000 55.945194
    endloop
  endfacet
  facet normal -0.707107 -0.000000 -0.707107
    outer loop
      vertex 54.331879 630.000000 55.088543
      vertex 55.088543 630.000000 54.331879
      vertex 54.331879 600.000000 55.088543
    endloop
  endfacet
  facet normal 0.349463 0.000000 0.936950
    outer loop
      vertex 63.115612 630.000000 66.822243
      vertex 62.112995 630.000000 67.196198
      vertex 63.115612 600.000000 66.822243
    endloop
  endfacet
  facet normal -0.707107 0.000000 -0.707107
    outer loop
      vertex 54.331879 600.000000 55.088543
      vertex 55.088543 630.000000 54.331879
      vertex 55.088543 600.000000 54.331879
    endloop
  endfacet
  facet normal 0.349463 0.000000 0.936950
    outer loop
      vertex 63.115612 600.000000 66.822243
      vertex 62.112995 630.000000 67.196198
      vertex 62.112995 600.000000 67.196198
    endloop
  endfacet
  facet normal -0.599278 -0.000000 -0.800541
    outer loop
      vertex 55.088543 630.000000 54.331879
      vertex 55.945194 630.000000 53.690598
      vertex 55.088543 600.000000 54.331879
    endloop
  endfacet
  facet normal 0.212564 0.000000 0.977147
    outer loop
      vertex 62.112995 630.000000 67.196198
      vertex 61.067360 630.000000 67.423660
      vertex 62.112995 600.000000 67.196198
    endloop
  endfacet
  facet normal -0.599278 0.000000 -0.800541
    outer loop
      vertex 55.088543 600.000000 54.331879
      vertex 55.945194 630.000000 53.690598
      vertex 55.945194 600.000000 53.690598
    endloop
  endfacet
  facet normal 0.212564 0.000000 0.977147
    outer loop
      vertex 62.112995 600.000000 67.196198
      vertex 61.067360 630.000000 67.423660
      vertex 61.067360 600.000000 67.423660
    endloop
  endfacet
  facet normal -0.479247 -0.000000 -0.877680
    outer loop
      vertex 55.945194 630.000000 53.690598
      vertex 56.884388 630.000000 53.177761
      vertex 55.945194 600.000000 53.690598
    endloop
  endfacet
  facet normal 0.071340 0.000000 0.997452
    outer loop
      vertex 61.067360 630.000000 67.423660
      vertex 60.000000 630.000000 67.500000
      vertex 61.067360 600.000000 67.423660
    endloop
  endfacet
  facet normal -0.479247 0.000000 -0.877680
    outer loop
      vertex 55.945194 600.000000 53.690598
      vertex 56.884388 630.000000 53.177761
      vertex 56.884388 600.000000 53.177761
    endloop
  endfacet
  facet normal 0.071340 0.000000 0.997452
    outer loop
      vertex 61.067360 600.000000 67.423660
      vertex 60.000000 630.000000 67.500000
      vertex 60.000000 600.000000 67.500000
    endloop
  endfacet
  facet normal -0.349466 -0.000000 -0.936949
    outer loop
      vertex 56.884388 630.000000 53.177761
      vertex 57.887005 630.000000 52.803802
      vertex 56.884388 600.000000 53.177761
    endloop
  endfacet
  facet normal -0.071340 0.000000 0.997452
    outer loop
      vertex 60.000000 630.000000 67.500000
      vertex 58.932640 630.000000 67.423660
      vertex 60.000000 600.000000 67.500000
    endloop
  endfacet
  facet normal -0.349466 0.000000 -0.936949
    outer loop
      vertex 56.884388 600.000000 53.177761
      vertex 57.887005 630.000000 52.803802
      vertex 57.887005 600.000000 52.803802
    endloop
  endfacet
  facet normal -0.071340 0.000000 0.997452
    outer loop
      vertex 60.000000 600.000000 67.500000
      vertex 58.932640 630.000000 67.423660
      vertex 58.932640 600.000000 67.423660
    endloop
  endfacet
  facet normal -0.212564 -0.000000 -0.977147
    outer loop
      vertex 57.887005 630.000000 52.803802
      vertex 58.932640 630.000000 52.576340
      vertex 57.887005 600.000000 52.803802
    endloop
  endfacet
  facet normal -0.212564 0.000000 0.977147
    outer loop
      vertex 58.932640 630.000000 67.423660
      vertex 57.887005 630.000000 67.196198
      vertex 58.932640 600.000000 67.423660
    endloop
  endfacet
  facet normal -0.212564 0.000000 -0.977147
    outer loop
      vertex 57.887005 600.000000 52.803802
      vertex 58.932640 630.000000 52.576340
      vertex 58.932640 600.000000 52.576340
    endloop
  endfacet
  facet normal -0.212564 0.000000 0.977147
    outer loop
      vertex 58.932640 600.000000 67.423660
      vertex 57.887005 630.000000 67.196198
      vertex 57.887005 600.000000 67.196198
    endloop
  endfacet
  facet normal -0.071340 -0.000000 -0.997452
    outer loop
      vertex 58.932640 630.000000 52.576340
      vertex 60.000000 630.000000 52.500000
      vertex 58.932640 600.000000 52.576340
    endloop
  endfacet
  facet normal -0.349463 0.000000 0.936950
    outer loop
      vertex 57.887005 630.000000 67.196198
      vertex 56.884388 630.000000 66.822243
      vertex 57.887005 600.000000 67.196198
    endloop
  endfacet
  facet normal -0.071340 0.000000 -0.997452
    outer loop
      vertex 58.932640 600.000000 52.576340
      vertex 60.000000 630.000000 52.500000
      vertex 60.000000 600.000000 52.500000
    endloop
  endfacet
  facet normal -0.349463 0.000000 0.936950
    outer loop
      vertex 57.887005 600.000000 67.196198
      vertex 56.884388 630.000000 66.822243
      vertex 56.884388 600.000000 66.822243
    endloop
  endfacet
  facet normal 0.071340 0.000000 -0.997452
    outer loop
      vertex 60.000000 630.000000 52.500000
      vertex 61.067360 630.000000 52.576340
      vertex 60.000000 600.000000 52.500000
    endloop
  endfacet
  facet normal -0.479250 0.000000 0.877678
    outer loop
      vertex 56.884388 630.000000 66.822243
      vertex 55.945194 630.000000 66.309402
      vertex 56.884388 600.000000 66.822243
    endloop
  endfacet
  facet normal 0.071340 0.000000 -0.997452
    outer loop
      vertex 60.000000 600.000000 52.500000
      vertex 61.067360 630.000000 52.576340
      vertex 61.067360 600.000000 52.576340
    endloop
  endfacet
  facet normal -0.479250 0.000000 0.877678
    outer loop
      vertex 56.884388 600.000000 66.822243
      vertex 55.945194 630.000000 66.309402
      vertex 55.945194 600.000000 66.309402
    endloop
  endfacet
  facet normal 0.212564 0.000000 -0.977147
    outer loop
      vertex 61.067360 630.000000 52.576340
      vertex 62.112995 630.000000 52.803802
      vertex 61.067360 600.000000 52.576340
    endloop
  endfacet
  facet normal -0.599278 0.000000 0.800541
    outer loop
      vertex 55.945194 630.000000 66.309402
      vertex 55.088543 630.000000 65.668121
      vertex 55.945194 600.000000 66.309402
    endloop
  endfacet
  facet normal 0.212564 0.000000 -0.977147
    outer loop
      vertex 61.067360 600.000000 52.576340
      vertex 62.112995 630.000000 52.803802
      vertex 62.112995 600.000000 52.803802
    endloop
  endfacet
  facet normal -0.599278 0.000000 0.800541
    outer loop
      vertex 55.945194 600.000000 66.309402
      vertex 55.088543 630.000000 65.668121
      vertex 55.088543 600.000000 65.668121
    endloop
  endfacet
  facet normal 0.000000 1.000000 0.000000
    outer loop
      vertex 67.423660 630.000000 61.067360
      vertex 67.423660 630.000000 58.932640
      vertex 65.668121 630.000000 64.911453
    endloop
  endfacet
  facet normal 0.000000 1.000000 0.000000
    outer loop
      vertex 67.500000 630.000000 60.000000
      vertex 67.423660 630.000000 58.932640
      vertex 67.423660 630.000000 61.067360
    endloop
  endfacet
  facet normal 0.000000 1.000000 0.000000
    outer loop
      vertex 65.668121 630.000000 64.911453
      vertex 67.423660 630.000000 58.932640
      vertex 64.911453 630.000000 65.668121
    endloop
  endfacet
  facet normal -0.000000 1.000000 0.000000
    outer loop
      vertex 55.945194 630.000000 66.309402
      vertex 56.884388 630.000000 66.822243
      vertex 55.088543 630.000000 65.668121
    endloop
  endfacet
  facet normal 0.000000 1.000000 0.000000
    outer loop
      vertex 67.423660 630.000000 58.932640
      vertex 66.822243 630.000000 56.884388
      vertex 64.911453 630.000000 65.668121
    endloop
  endfacet
  facet normal 0.000000 1.000000 0.000000
    outer loop
      vertex 54.331879 630.000000 64.911453
      vertex 52.803802 630.000000 62.112995
      vertex 53.690598 630.000000 64.054810
    endloop
  endfacet
  facet normal 0.000000 1.000000 0.000000
    outer loop
      vertex 53.690598 630.000000 64.054810
      vertex 52.803802 630.000000 62.112995
      vertex 53.177761 630.000000 63.115612
    endloop
  endfacet
  facet normal 0.000000 1.000000 -0.000000
    outer loop
      vertex 67.196198 630.000000 57.887005
      vertex 66.822243 630.000000 56.884388
      vertex 67.423660 630.000000 58.932640
    endloop
  endfacet
  facet normal -0.000000 1.000000 0.000000
    outer loop
      vertex 53.690598 630.000000 55.945194
      vertex 66.822243 630.000000 56.884388
      vertex 55.088543 630.000000 54.331879
    endloop
  endfacet
  facet normal 0.000000 1.000000 0.000000
    outer loop
      vertex 64.911453 630.000000 65.668121
      vertex 66.822243 630.000000 56.884388
      vertex 53.690598 630.000000 55.945194
    endloop
  endfacet
  facet normal -0.000000 1.000000 0.000000
    outer loop
      vertex 55.088543 630.000000 54.331879
      vertex 66.822243 630.000000 56.884388
      vertex 56.884388 630.000000 53.177761
    endloop
  endfacet
  facet normal -0.000000 1.000000 0.000000
    outer loop
      vertex 57.887005 630.000000 67.196198
      vertex 58.932640 630.000000 67.423660
      vertex 56.884388 630.000000 66.822243
    endloop
  endfacet
  facet normal -0.000000 1.000000 0.000000
    outer loop
      vertex 56.884388 630.000000 53.177761
      vertex 64.911453 630.000000 54.331879
      vertex 58.932640 630.000000 52.576340
    endloop
  endfacet
  facet normal 0.000000 1.000000 0.000000
    outer loop
      vertex 66.822243 630.000000 56.884388
      vertex 64.911453 630.000000 54.331879
      vertex 56.884388 630.000000 53.177761
    endloop
  endfacet
  facet normal -0.000000 1.000000 0.000000
    outer loop
      vertex 58.932640 630.000000 52.576340
      vertex 64.911453 630.000000 54.331879
      vertex 60.000000 630.000000 52.500000
    endloop
  endfacet
  facet normal 0.000000 1.000000 0.000000
    outer loop
      vertex 60.000000 630.000000 52.500000
      vertex 64.911453 630.000000 54.331879
      vertex 61.067360 630.000000 52.576340
    endloop
  endfacet
  facet normal 0.000000 1.000000 0.000000
    outer loop
      vertex 61.067360 630.000000 52.576340
      vertex 64.911453 630.000000 54.331879
      vertex 62.112995 630.000000 52.803802
    endloop
  endfacet
  facet normal 0.000000 1.000000 0.000000
    outer loop
      vertex 62.112995 630.000000 52.803802
      vertex 64.911453 630.000000 54.331879
      vertex 63.115612 630.000000 53.177761
    endloop
  endfacet
  facet normal 0.000000 1.000000 0.000000
    outer loop
      vertex 63.115612 630.000000 53.177761
      vertex 64.911453 630.000000 54.331879
      vertex 64.054810 630.000000 53.690598
    endloop
  endfacet
  facet normal 0.000000 1.000000 0.000000
    outer loop
      vertex 66.822243 630.000000 56.884388
      vertex 65.668121 630.000000 55.088543
      vertex 64.911453 630.000000 54.331879
    endloop
  endfacet
  facet normal 0.000000 1.000000 -0.000000
    outer loop
      vertex 66.309402 630.000000 55.945194
      vertex 65.668121 630.000000 55.088543
      vertex 66.822243 630.000000 56.884388
    endloop
  endfacet
  facet normal 0.000000 1.000000 0.000000
    outer loop
      vertex 55.088543 630.000000 65.668121
      vertex 52.576340 630.000000 58.932640
      vertex 54.331879 630.000000 64.911453
    endloop
  endfacet
  facet normal 0.000000 1.000000 0.000000
    outer loop
      vertex 52.803802 630.000000 62.112995
      vertex 52.576340 630.000000 58.932640
      vertex 52.576340 630.000000 61.067360
    endloop
  endfacet
  facet normal 0.000000 1.000000 0.000000
    outer loop
      vertex 52.576340 630.000000 61.067360
      vertex 52.576340 630.000000 58.932640
      vertex 52.500000 630.000000 60.000000
    endloop
  endfacet
  facet normal 0.000000 1.000000 0.000000
    outer loop
      vertex 56.884388 630.000000 66.822243
      vertex 52.576340 630.000000 58.932640
      vertex 55.088543 630.000000 65.668121
    endloop
  endfacet
  facet normal 0.000000 1.000000 0.000000
    outer loop
      vertex 54.331879 630.000000 64.911453
      vertex 52.576340 630.000000 58.932640
      vertex 52.803802 630.000000 62.112995
    endloop
  endfacet
  facet normal 0.000000 1.000000 0.000000
    outer loop
      vertex 61.067360 630.000000 67.423660
      vertex 62.112995 630.000000 67.196198
      vertex 60.000000 630.000000 67.500000
    endloop
  endfacet
  facet normal 0.000000 1.000000 0.000000
    outer loop
      vertex 60.000000 630.000000 67.500000
      vertex 62.112995 630.000000 67.196198
      vertex 58.932640 630.000000 67.423660
    endloop
  endfacet
  facet normal -0.000000 1.000000 0.000000
    outer loop
      vertex 52.576340 630.000000 58.932640
      vertex 62.112995 630.000000 67.196198
      vertex 52.803802 630.000000 57.887005
    endloop
  endfacet
  facet normal 0.000000 1.000000 0.000000
    outer loop
      vertex 58.932640 630.000000 67.423660
      vertex 62.112995 630.000000 67.196198
      vertex 56.884388 630.000000 66.822243
    endloop
  endfacet
  facet normal -0.000000 1.000000 0.000000
    outer loop
      vertex 56.884388 630.000000 66.822243
      vertex 62.112995 630.000000 67.196198
      vertex 52.576340 630.000000 58.932640
    endloop
  endfacet
  facet normal 0.000000 1.000000 0.000000
    outer loop
      vertex 62.112995 630.000000 67.196198
      vertex 53.177761 630.000000 56.884388
      vertex 52.803802 630.000000 57.887005
    endloop
  endfacet
  facet normal 0.000000 1.000000 0.000000
    outer loop
      vertex 63.115612 630.000000 66.822243
      vertex 64.054810 630.000000 66.309402
      vertex 62.112995 630.000000 67.196198
    endloop
  endfacet
  facet normal -0.000000 1.000000 0.000000
    outer loop
      vertex 53.177761 630.000000 56.884388
      vertex 64.911453 630.000000 65.668121
      vertex 53.690598 630.000000 55.945194
    endloop
  endfacet
  facet normal 0.000000 1.000000 0.000000
    outer loop
      vertex 62.112995 630.000000 67.196198
      vertex 64.911453 630.000000 65.668121
      vertex 53.177761 630.000000 56.884388
    endloop
  endfacet
  facet normal 0.000000 1.000000 0.000000
    outer loop
      vertex 64.054810 630.000000 66.309402
      vertex 64.911453 630.000000 65.668121
      vertex 62.112995 630.000000 67.196198
    endloop
  endfacet
  facet normal 0.000000 1.000000 0.000000
    outer loop
      vertex 53.690598 630.000000 55.945194
      vertex 55.088543 630.000000 54.331879
      vertex 54.331879 630.000000 55.088543
    endloop
  endfacet
  facet normal 0.000000 1.000000 0.000000
    outer loop
      vertex 55.088543 630.000000 54.331879
      vertex 56.884388 630.000000 53.177761
      vertex 55.945194 630.000000 53.690598
    endloop
  endfacet
  facet normal 0.000000 1.000000 0.000000
    outer loop
      vertex 56.884388 630.000000 53.177761
      vertex 58.932640 630.000000 52.576340
      vertex 57.887005 630.000000 52.803802
    endloop
  endfacet
  facet normal 0.000000 1.000000 0.000000
    outer loop
      vertex 67.196198 630.000000 62.112995
      vertex 67.423660 630.000000 61.067360
      vertex 66.822243 630.000000 63.115612
    endloop
  endfacet
  facet normal 0.000000 1.000000 0.000000
    outer loop
      vertex 66.822243 630.000000 63.115612
      vertex 67.423660 630.000000 61.067360
      vertex 66.309402 630.000000 64.054810
    endloop
  endfacet
  facet normal 0.000000 1.000000 0.000000
    outer loop
      vertex 66.309402 630.000000 64.054810
      vertex 67.423660 630.000000 61.067360
      vertex 65.668121 630.000000 64.911453
    endloop
  endfacet
endsolid Mesh
