solid Mesh
  facet normal 0.000000 -1.000000 0.000000
    outer loop
      vertex -61.000000 -610.000000 -61.000000
      vertex -60.000000 -610.000000 60.000000
      vertex -61.000000 -610.000000 61.000000
    endloop
  endfacet
  facet normal -0.000000 -1.000000 0.000000
    outer loop
      vertex -60.000000 -610.000000 -60.000000
      vertex -60.000000 -610.000000 60.000000
      vertex -61.000000 -610.000000 -61.000000
    endloop
  endfacet
  facet normal 0.000000 -1.000000 0.000000
    outer loop
      vertex -61.000000 -610.000000 -61.000000
      vertex 61.000000 -610.000000 -61.000000
      vertex -60.000000 -610.000000 -60.000000
    endloop
  endfacet
  facet normal 0.000000 -1.000000 0.000000
    outer loop
      vertex 61.000000 -610.000000 -61.000000
      vertex 60.000000 -610.000000 -60.000000
      vertex -60.000000 -610.000000 -60.000000
    endloop
  endfacet
  facet normal 0.000000 -1.000000 0.000000
    outer loop
      vertex 60.000000 -610.000000 60.000000
      vertex 61.000000 -610.000000 61.000000
      vertex -60.000000 -610.000000 60.000000
    endloop
  endfacet
  facet normal 0.000000 -1.000000 0.000000
    outer loop
      vertex -60.000000 -610.000000 60.000000
      vertex 61.000000 -610.000000 61.000000
      vertex -61.000000 -610.000000 61.000000
    endloop
  endfacet
  facet normal 0.000000 -1.000000 0.000000
    outer loop
      vertex 61.000000 -610.000000 -61.000000
      vertex 61.000000 -610.000000 61.000000
      vertex 60.000000 -610.000000 -60.000000
    endloop
  endfacet
  facet normal 0.000000 -1.000000 0.000000
    outer loop
      vertex 60.000000 -610.000000 -60.000000
      vertex 61.000000 -610.000000 61.000000
      vertex 60.000000 -610.000000 60.000000
    endloop
  endfacet
  facet normal 0.000000 0.000000 1.000000
    outer loop
      vertex 61.000000 -3.000000 61.000000
      vertex -61.000000 -610.000000 61.000000
      vertex 61.000000 -610.000000 61.000000
    endloop
  endfacet
  facet normal 0.000000 0.000000 1.000000
    outer loop
      vertex 61.000000 -3.000000 61.000000
      vertex -61.000000 -3.000000 61.000000
      vertex -61.000000 -610.000000 61.000000
    endloop
  endfacet
  facet normal 1.000000 0.000000 0.000000
    outer loop
      vertex 61.000000 -3.000000 -61.000000
      vertex 61.000000 -610.000000 61.000000
      vertex 61.000000 -610.000000 -61.000000
    endloop
  endfacet
  facet normal 1.000000 0.000000 -0.000000
    outer loop
      vertex 61.000000 -3.000000 -61.000000
      vertex 61.000000 -3.000000 61.000000
      vertex 61.000000 -610.000000 61.000000
    endloop
  endfacet
  facet normal 0.000000 0.000000 -1.000000
    outer loop
      vertex -61.000000 -3.000000 -61.000000
      vertex 61.000000 -610.000000 -61.000000
      vertex -61.000000 -610.000000 -61.000000
    endloop
  endfacet
  facet normal 0.000000 0.000000 -1.000000
    outer loop
      vertex -61.000000 -3.000000 -61.000000
      vertex 61.000000 -3.000000 -61.000000
      vertex 61.000000 -610.000000 -61.000000
    endloop
  endfacet
  facet normal -1.000000 -0.000000 0.000000
    outer loop
      vertex -61.000000 -3.000000 61.000000
      vertex -61.000000 -610.000000 -61.000000
      vertex -61.000000 -610.000000 61.000000
    endloop
  endfacet
  facet normal -1.000000 0.000000 -0.000000
    outer loop
      vertex -61.000000 -3.000000 61.000000
      vertex -61.000000 -3.000000 -61.000000
      vertex -61.000000 -610.000000 -61.000000
    endloop
  endfacet
  facet normal 1.000000 0.000000 0.000000
    outer loop
      vertex -60.000000 -610.000000 -60.000000
      vertex -60.000000 -3.000000 -60.000000
      vertex -60.000000 -610.000000 60.000000
    endloop
  endfacet
  facet normal 1.000000 0.000000 -0.000000
    outer loop
      vertex -60.000000 -3.000000 -60.000000
      vertex -60.000000 -3.000000 60.000000
      vertex -60.000000 -610.000000 60.000000
    endloop
  endfacet
  facet normal 0.000000 -0.000000 1.000000
    outer loop
      vertex 60.000000 -610.000000 -60.000000
      vertex 60.000000 -3.000000 -60.000000
      vertex -60.000000 -610.000000 -60.000000
    endloop
  endfacet
  facet normal 0.000000 0.000000 1.000000
    outer loop
      vertex 60.000000 -3.000000 -60.000000
      vertex -60.000000 -3.000000 -60.000000
      vertex -60.000000 -610.000000 -60.000000
    endloop
  endfacet
  facet normal -1.000000 0.000000 0.000000
    outer loop
      vertex 60.000000 -610.000000 60.000000
      vertex 60.000000 -3.000000 -60.000000
      vertex 60.000000 -610.000000 -60.000000
    endloop
  endfacet
  facet normal -1.000000 -0.000000 -0.000000
    outer loop
      vertex 60.000000 -3.000000 60.000000
      vertex 60.000000 -3.000000 -60.000000
      vertex 60.000000 -610.000000 60.000000
    endloop
  endfacet
  facet normal 0.000000 0.000000 -1.000000
    outer loop
      vertex -60.000000 -610.000000 60.000000
      vertex -60.000000 -3.000000 60.000000
      vertex 60.000000 -610.000000 60.000000
    endloop
  endfacet
  facet normal 0.000000 0.000000 -1.000000
    outer loop
      vertex -60.000000 -3.000000 60.000000
      vertex 60.000000 -3.000000 60.000000
      vertex 60.000000 -610.000000 60.000000
    endloop
  endfacet
  facet normal 0.000000 0.000000 1.000000
    outer loop
      vertex 61.000000 -3.000000 61.000000
      vertex -61.000000 -1.000000 61.000000
      vertex -61.000000 -3.000000 61.000000
    endloop
  endfacet
  facet normal 0.000000 0.000000 1.000000
    outer loop
      vertex 61.000000 -1.000000 61.000000
      vertex -61.000000 -1.000000 61.000000
      vertex 61.000000 -3.000000 61.000000
    endloop
  endfacet
  facet normal 1.000000 0.000000 0.000000
    outer loop
      vertex 61.000000 -1.000000 -61.000000
      vertex 61.000000 -3.000000 61.000000
      vertex 61.000000 -3.000000 -61.000000
    endloop
  endfacet
  facet normal 1.000000 0.000000 -0.000000
    outer loop
      vertex 61.000000 -1.000000 -61.000000
      vertex 61.000000 -1.000000 61.000000
      vertex 61.000000 -3.000000 61.000000
    endloop
  endfacet
  facet normal 0.000000 0.000000 -1.000000
    outer loop
      vertex -61.000000 -1.000000 -61.000000
      vertex 61.000000 -3.000000 -61.000000
      vertex -61.000000 -3.000000 -61.000000
    endloop
  endfacet
  facet normal 0.000000 0.000000 -1.000000
    outer loop
      vertex -61.000000 -1.000000 -61.000000
      vertex 61.000000 -1.000000 -61.000000
      vertex 61.000000 -3.000000 -61.000000
    endloop
  endfacet
  facet normal -1.000000 -0.000000 0.000000
    outer loop
      vertex -61.000000 -1.000000 61.000000
      vertex -61.000000 -3.000000 -61.000000
      vertex -61.000000 -3.000000 61.000000
    endloop
  endfacet
  facet normal -1.000000 0.000000 -0.000000
    outer loop
      vertex -61.000000 -1.000000 61.000000
      vertex -61.000000 -1.000000 -61.000000
      vertex -61.000000 -3.000000 -61.000000
    endloop
  endfacet
  facet normal 0.000000 -1.000000 0.000000
    outer loop
      vertex -60.000000 -3.000000 -60.000000
      vertex -4.489497 -3.000000 -6.621512
      vertex -5.807964 -3.000000 -5.501595
    endloop
  endfacet
  facet normal -0.000000 -1.000000 0.000000
    outer loop
      vertex -5.807964 -3.000000 -5.501595
      vertex -6.854857 -3.000000 -4.124431
      vertex -60.000000 -3.000000 -60.000000
    endloop
  endfacet
  facet normal 0.000000 -1.000000 0.000000
    outer loop
      vertex -60.000000 -3.000000 -60.000000
      vertex -2.961105 -3.000000 -7.431814
      vertex -4.489497 -3.000000 -6.621512
    endloop
  endfacet
  facet normal -0.000000 -1.000000 0.000000
    outer loop
      vertex -6.854857 -3.000000 -4.124431
      vertex -7.581225 -3.000000 -2.554412
      vertex -60.000000 -3.000000 -60.000000
    endloop
  endfacet
  facet normal 0.000000 -1.000000 0.000000
    outer loop
      vertex -60.000000 -3.000000 -60.000000
      vertex -1.294256 -3.000000 -7.894612
      vertex -2.961105 -3.000000 -7.431814
    endloop
  endfacet
  facet normal -0.000000 -1.000000 0.000000
    outer loop
      vertex -7.581225 -3.000000 -2.554412
      vertex -7.953104 -3.000000 -0.864952
      vertex -60.000000 -3.000000 -60.000000
    endloop
  endfacet
  facet normal 0.000000 -1.000000 0.000000
    outer loop
      vertex -60.000000 -3.000000 -60.000000
      vertex 0.433111 -3.000000 -7.988267
      vertex -1.294256 -3.000000 -7.894612
    endloop
  endfacet
  facet normal -0.000000 -1.000000 0.000000
    outer loop
      vertex -7.953104 -3.000000 -0.864952
      vertex -7.953104 -3.000000 0.864952
      vertex -60.000000 -3.000000 -60.000000
    endloop
  endfacet
  facet normal -0.000000 -1.000000 0.000000
    outer loop
      vertex -5.807964 -3.000000 5.501595
      vertex -60.000000 -3.000000 60.000000
      vertex -6.854857 -3.000000 4.124431
    endloop
  endfacet
  facet normal -0.000000 -1.000000 0.000000
    outer loop
      vertex -6.854857 -3.000000 4.124431
      vertex -60.000000 -3.000000 60.000000
      vertex -7.581225 -3.000000 2.554412
    endloop
  endfacet
  facet normal -0.000000 -1.000000 0.000000
    outer loop
      vertex -7.581225 -3.000000 2.554412
      vertex -60.000000 -3.000000 60.000000
      vertex -7.953104 -3.000000 0.864952
    endloop
  endfacet
  facet normal -0.000000 -1.000000 0.000000
    outer loop
      vertex -7.953104 -3.000000 0.864952
      vertex -60.000000 -3.000000 60.000000
      vertex -60.000000 -3.000000 -60.000000
    endloop
  endfacet
  facet normal 0.000000 -1.000000 0.000000
    outer loop
      vertex 0.433111 -3.000000 -7.988267
      vertex 60.000000 -3.000000 -60.000000
      vertex 2.140227 -3.000000 -7.708400
    endloop
  endfacet
  facet normal 0.000000 -1.000000 0.000000
    outer loop
      vertex 2.140227 -3.000000 -7.708400
      vertex 60.000000 -3.000000 -60.000000
      vertex 3.747267 -3.000000 -7.068096
    endloop
  endfacet
  facet normal 0.000000 -1.000000 0.000000
    outer loop
      vertex 3.747267 -3.000000 -7.068096
      vertex 60.000000 -3.000000 -60.000000
      vertex 5.179090 -3.000000 -6.097296
    endloop
  endfacet
  facet normal 0.000000 -1.000000 0.000000
    outer loop
      vertex -60.000000 -3.000000 -60.000000
      vertex 60.000000 -3.000000 -60.000000
      vertex 0.433111 -3.000000 -7.988267
    endloop
  endfacet
  facet normal 0.000000 -1.000000 0.000000
    outer loop
      vertex 60.000000 -3.000000 -60.000000
      vertex 6.368744 -3.000000 -4.841394
      vertex 5.179090 -3.000000 -6.097296
    endloop
  endfacet
  facet normal 0.000000 -1.000000 0.000000
    outer loop
      vertex -5.807964 -3.000000 5.501595
      vertex -4.489497 -3.000000 6.621512
      vertex -60.000000 -3.000000 60.000000
    endloop
  endfacet
  facet normal 0.000000 -1.000000 0.000000
    outer loop
      vertex 60.000000 -3.000000 -60.000000
      vertex 7.260603 -3.000000 -3.359113
      vertex 6.368744 -3.000000 -4.841394
    endloop
  endfacet
  facet normal 0.000000 -1.000000 0.000000
    outer loop
      vertex -4.489497 -3.000000 6.621512
      vertex -2.961105 -3.000000 7.431814
      vertex -60.000000 -3.000000 60.000000
    endloop
  endfacet
  facet normal 0.000000 -1.000000 0.000000
    outer loop
      vertex 60.000000 -3.000000 -60.000000
      vertex 7.812964 -3.000000 -1.719764
      vertex 7.260603 -3.000000 -3.359113
    endloop
  endfacet
  facet normal 0.000000 -1.000000 0.000000
    outer loop
      vertex -2.961105 -3.000000 7.431814
      vertex -1.294256 -3.000000 7.894612
      vertex -60.000000 -3.000000 60.000000
    endloop
  endfacet
  facet normal 0.000000 -1.000000 0.000000
    outer loop
      vertex 60.000000 -3.000000 -60.000000
      vertex 8.000000 -3.000000 0.000000
      vertex 7.812964 -3.000000 -1.719764
    endloop
  endfacet
  facet normal 0.000000 -1.000000 0.000000
    outer loop
      vertex -1.294256 -3.000000 7.894612
      vertex 0.433111 -3.000000 7.988267
      vertex -60.000000 -3.000000 60.000000
    endloop
  endfacet
  facet normal 0.000000 -1.000000 0.000000
    outer loop
      vertex 8.000000 -3.000000 0.000000
      vertex 60.000000 -3.000000 60.000000
      vertex 7.812964 -3.000000 1.719764
    endloop
  endfacet
  facet normal 0.000000 -1.000000 0.000000
    outer loop
      vertex 7.812964 -3.000000 1.719764
      vertex 60.000000 -3.000000 60.000000
      vertex 7.260603 -3.000000 3.359113
    endloop
  endfacet
  facet normal 0.000000 -1.000000 0.000000
    outer loop
      vertex 7.260603 -3.000000 3.359113
      vertex 60.000000 -3.000000 60.000000
      vertex 6.368744 -3.000000 4.841394
    endloop
  endfacet
  facet normal 0.000000 -1.000000 0.000000
    outer loop
      vertex 6.368744 -3.000000 4.841394
      vertex 60.000000 -3.000000 60.000000
      vertex 5.179090 -3.000000 6.097296
    endloop
  endfacet
  facet normal 0.000000 -1.000000 0.000000
    outer loop
      vertex 5.179090 -3.000000 6.097296
      vertex 60.000000 -3.000000 60.000000
      vertex 3.747267 -3.000000 7.068096
    endloop
  endfacet
  facet normal 0.000000 -1.000000 0.000000
    outer loop
      vertex 3.747267 -3.000000 7.068096
      vertex 60.000000 -3.000000 60.000000
      vertex 2.140227 -3.000000 7.708400
    endloop
  endfacet
  facet normal 0.000000 -1.000000 0.000000
    outer loop
      vertex 2.140227 -3.000000 7.708400
      vertex 60.000000 -3.000000 60.000000
      vertex 0.433111 -3.000000 7.988267
    endloop
  endfacet
  facet normal 0.000000 -1.000000 0.000000
    outer loop
      vertex 60.000000 -3.000000 -60.000000
      vertex 60.000000 -3.000000 60.000000
      vertex 8.000000 -3.000000 0.000000
    endloop
  endfacet
  facet normal 0.000000 -1.000000 0.000000
    outer loop
      vertex 0.433111 -3.000000 7.988267
      vertex 60.000000 -3.000000 60.000000
      vertex -60.000000 -3.000000 60.000000
    endloop
  endfacet
  facet normal 0.000000 0.000000 1.000000
    outer loop
      vertex 61.000000 -1.000000 61.000000
      vertex -61.000000 0.000000 61.000000
      vertex -61.000000 -1.000000 61.000000
    endloop
  endfacet
  facet normal 0.000000 0.000000 1.000000
    outer loop
      vertex 61.000000 0.000000 61.000000
      vertex -61.000000 0.000000 61.000000
      vertex 61.000000 -1.000000 61.000000
    endloop
  endfacet
  facet normal 1.000000 0.000000 0.000000
    outer loop
      vertex 61.000000 -1.000000 -61.000000
      vertex 61.000000 0.000000 61.000000
      vertex 61.000000 -1.000000 61.000000
    endloop
  endfacet
  facet normal 1.000000 0.000000 -0.000000
    outer loop
      vertex 61.000000 -0.000000 -61.000000
      vertex 61.000000 0.000000 61.000000
      vertex 61.000000 -1.000000 -61.000000
    endloop
  endfacet
  facet normal 0.000000 0.000000 -1.000000
    outer loop
      vertex -61.000000 -1.000000 -61.000000
      vertex 61.000000 -0.000000 -61.000000
      vertex 61.000000 -1.000000 -61.000000
    endloop
  endfacet
  facet normal 0.000000 0.000000 -1.000000
    outer loop
      vertex -61.000000 -0.000000 -61.000000
      vertex 61.000000 -0.000000 -61.000000
      vertex -61.000000 -1.000000 -61.000000
    endloop
  endfacet
  facet normal -1.000000 0.000000 0.000000
    outer loop
      vertex -61.000000 -1.000000 61.000000
      vertex -61.000000 -0.000000 -61.000000
      vertex -61.000000 -1.000000 -61.000000
    endloop
  endfacet
  facet normal -1.000000 -0.000000 0.000000
    outer loop
      vertex -61.000000 0.000000 61.000000
      vertex -61.000000 -0.000000 -61.000000
      vertex -61.000000 -1.000000 61.000000
    endloop
  endfacet
  facet normal 0.647386 0.000000 0.762162
    outer loop
      vertex -4.489497 -1.000000 -6.621512
      vertex -5.807964 -1.000000 -5.501595
      vertex -5.807964 -3.000000 -5.501595
    endloop
  endfacet
  facet normal 0.647386 0.000000 0.762162
    outer loop
      vertex -4.489497 -1.000000 -6.621512
      vertex -5.807964 -3.000000 -5.501595
      vertex -4.489497 -3.000000 -6.621512
    endloop
  endfacet
  facet normal 0.468408 0.000000 0.883512
    outer loop
      vertex -2.961105 -1.000000 -7.431814
      vertex -4.489497 -1.000000 -6.621512
      vertex -4.489497 -3.000000 -6.621512
    endloop
  endfacet
  facet normal 0.468408 0.000000 0.883512
    outer loop
      vertex -2.961105 -1.000000 -7.431814
      vertex -4.489497 -3.000000 -6.621512
      vertex -2.961105 -3.000000 -7.431814
    endloop
  endfacet
  facet normal 0.267528 0.000000 0.963550
    outer loop
      vertex -1.294256 -1.000000 -7.894612
      vertex -2.961105 -1.000000 -7.431814
      vertex -2.961105 -3.000000 -7.431814
    endloop
  endfacet
  facet normal -0.994138 -0.000000 -0.108119
    outer loop
      vertex 7.812964 -1.000000 1.719764
      vertex 8.000000 -3.000000 0.000000
      vertex 7.812964 -3.000000 1.719764
    endloop
  endfacet
  facet normal 0.267528 0.000000 0.963550
    outer loop
      vertex -1.294256 -1.000000 -7.894612
      vertex -2.961105 -3.000000 -7.431814
      vertex -1.294256 -3.000000 -7.894612
    endloop
  endfacet
  facet normal -0.994138 0.000000 -0.108119
    outer loop
      vertex 7.812964 -1.000000 1.719764
      vertex 8.000000 -1.000000 0.000000
      vertex 8.000000 -3.000000 0.000000
    endloop
  endfacet
  facet normal 0.054139 0.000000 0.998533
    outer loop
      vertex 0.433111 -1.000000 -7.988267
      vertex -1.294256 -1.000000 -7.894612
      vertex -1.294256 -3.000000 -7.894612
    endloop
  endfacet
  facet normal -0.947653 -0.000000 -0.319302
    outer loop
      vertex 7.260603 -1.000000 3.359113
      vertex 7.812964 -3.000000 1.719764
      vertex 7.260603 -3.000000 3.359113
    endloop
  endfacet
  facet normal 0.054139 0.000000 0.998533
    outer loop
      vertex 0.433111 -1.000000 -7.988267
      vertex -1.294256 -3.000000 -7.894612
      vertex 0.433111 -3.000000 -7.988267
    endloop
  endfacet
  facet normal -0.947653 0.000000 -0.319302
    outer loop
      vertex 7.260603 -1.000000 3.359113
      vertex 7.812964 -1.000000 1.719764
      vertex 7.812964 -3.000000 1.719764
    endloop
  endfacet
  facet normal -0.161782 0.000000 0.986826
    outer loop
      vertex 2.140227 -1.000000 -7.708400
      vertex 0.433111 -1.000000 -7.988267
      vertex 0.433111 -3.000000 -7.988267
    endloop
  endfacet
  facet normal -0.161782 0.000000 0.986826
    outer loop
      vertex 2.140227 -1.000000 -7.708400
      vertex 0.433111 -3.000000 -7.988267
      vertex 2.140227 -3.000000 -7.708400
    endloop
  endfacet
  facet normal -0.856857 -0.000000 -0.515554
    outer loop
      vertex 6.368744 -1.000000 4.841394
      vertex 7.260603 -3.000000 3.359113
      vertex 6.368744 -3.000000 4.841394
    endloop
  endfacet
  facet normal -0.856857 0.000000 -0.515554
    outer loop
      vertex 6.368744 -1.000000 4.841394
      vertex 7.260603 -1.000000 3.359113
      vertex 7.260603 -3.000000 3.359113
    endloop
  endfacet
  facet normal -0.370138 0.000000 0.928977
    outer loop
      vertex 3.747267 -1.000000 -7.068096
      vertex 2.140227 -3.000000 -7.708400
      vertex 3.747267 -3.000000 -7.068096
    endloop
  endfacet
  facet normal -0.725995 -0.000000 -0.687699
    outer loop
      vertex 5.179090 -1.000000 6.097296
      vertex 6.368744 -3.000000 4.841394
      vertex 5.179090 -3.000000 6.097296
    endloop
  endfacet
  facet normal -0.370138 0.000000 0.928977
    outer loop
      vertex 3.747267 -1.000000 -7.068096
      vertex 2.140227 -1.000000 -7.708400
      vertex 2.140227 -3.000000 -7.708400
    endloop
  endfacet
  facet normal -0.725995 0.000000 -0.687699
    outer loop
      vertex 5.179090 -1.000000 6.097296
      vertex 6.368744 -1.000000 4.841394
      vertex 6.368744 -3.000000 4.841394
    endloop
  endfacet
  facet normal -0.561187 0.000000 0.827689
    outer loop
      vertex 5.179090 -1.000000 -6.097296
      vertex 3.747267 -3.000000 -7.068096
      vertex 5.179090 -3.000000 -6.097296
    endloop
  endfacet
  facet normal -0.561187 -0.000000 -0.827689
    outer loop
      vertex 3.747267 -1.000000 7.068096
      vertex 5.179090 -3.000000 6.097296
      vertex 3.747267 -3.000000 7.068096
    endloop
  endfacet
  facet normal -0.561187 0.000000 0.827689
    outer loop
      vertex 5.179090 -1.000000 -6.097296
      vertex 3.747267 -1.000000 -7.068096
      vertex 3.747267 -3.000000 -7.068096
    endloop
  endfacet
  facet normal -0.561187 0.000000 -0.827689
    outer loop
      vertex 3.747267 -1.000000 7.068096
      vertex 5.179090 -1.000000 6.097296
      vertex 5.179090 -3.000000 6.097296
    endloop
  endfacet
  facet normal -0.725995 0.000000 0.687699
    outer loop
      vertex 6.368744 -1.000000 -4.841394
      vertex 5.179090 -3.000000 -6.097296
      vertex 6.368744 -3.000000 -4.841394
    endloop
  endfacet
  facet normal -0.370138 -0.000000 -0.928977
    outer loop
      vertex 2.140227 -1.000000 7.708400
      vertex 3.747267 -3.000000 7.068096
      vertex 2.140227 -3.000000 7.708400
    endloop
  endfacet
  facet normal -0.725995 0.000000 0.687699
    outer loop
      vertex 6.368744 -1.000000 -4.841394
      vertex 5.179090 -1.000000 -6.097296
      vertex 5.179090 -3.000000 -6.097296
    endloop
  endfacet
  facet normal -0.370138 0.000000 -0.928977
    outer loop
      vertex 2.140227 -1.000000 7.708400
      vertex 3.747267 -1.000000 7.068096
      vertex 3.747267 -3.000000 7.068096
    endloop
  endfacet
  facet normal -0.856857 0.000000 0.515554
    outer loop
      vertex 7.260603 -1.000000 -3.359113
      vertex 6.368744 -3.000000 -4.841394
      vertex 7.260603 -3.000000 -3.359113
    endloop
  endfacet
  facet normal -0.161782 -0.000000 -0.986826
    outer loop
      vertex 0.433111 -1.000000 7.988267
      vertex 2.140227 -3.000000 7.708400
      vertex 0.433111 -3.000000 7.988267
    endloop
  endfacet
  facet normal -0.856857 0.000000 0.515554
    outer loop
      vertex 7.260603 -1.000000 -3.359113
      vertex 6.368744 -1.000000 -4.841394
      vertex 6.368744 -3.000000 -4.841394
    endloop
  endfacet
  facet normal -0.161782 0.000000 -0.986826
    outer loop
      vertex 0.433111 -1.000000 7.988267
      vertex 2.140227 -1.000000 7.708400
      vertex 2.140227 -3.000000 7.708400
    endloop
  endfacet
  facet normal -0.947653 0.000000 0.319302
    outer loop
      vertex 7.812964 -1.000000 -1.719764
      vertex 7.260603 -3.000000 -3.359113
      vertex 7.812964 -3.000000 -1.719764
    endloop
  endfacet
  facet normal -0.947653 0.000000 0.319302
    outer loop
      vertex 7.812964 -1.000000 -1.719764
      vertex 7.260603 -1.000000 -3.359113
      vertex 7.260603 -3.000000 -3.359113
    endloop
  endfacet
  facet normal 0.054139 0.000000 -0.998533
    outer loop
      vertex -1.294256 -1.000000 7.894612
      vertex 0.433111 -3.000000 7.988267
      vertex -1.294256 -3.000000 7.894612
    endloop
  endfacet
  facet normal 0.054139 0.000000 -0.998533
    outer loop
      vertex -1.294256 -1.000000 7.894612
      vertex 0.433111 -1.000000 7.988267
      vertex 0.433111 -3.000000 7.988267
    endloop
  endfacet
  facet normal -0.994138 0.000000 0.108119
    outer loop
      vertex 8.000000 -1.000000 0.000000
      vertex 7.812964 -3.000000 -1.719764
      vertex 8.000000 -3.000000 0.000000
    endloop
  endfacet
  facet normal -0.994138 0.000000 0.108119
    outer loop
      vertex 8.000000 -1.000000 0.000000
      vertex 7.812964 -1.000000 -1.719764
      vertex 7.812964 -3.000000 -1.719764
    endloop
  endfacet
  facet normal 0.267528 0.000000 -0.963550
    outer loop
      vertex -2.961105 -1.000000 7.431814
      vertex -1.294256 -3.000000 7.894612
      vertex -2.961105 -3.000000 7.431814
    endloop
  endfacet
  facet normal 0.267528 0.000000 -0.963550
    outer loop
      vertex -2.961105 -1.000000 7.431814
      vertex -1.294256 -1.000000 7.894612
      vertex -1.294256 -3.000000 7.894612
    endloop
  endfacet
  facet normal 0.468408 0.000000 -0.883512
    outer loop
      vertex -4.489497 -1.000000 6.621512
      vertex -2.961105 -1.000000 7.431814
      vertex -2.961105 -3.000000 7.431814
    endloop
  endfacet
  facet normal 0.468408 0.000000 -0.883512
    outer loop
      vertex -4.489497 -1.000000 6.621512
      vertex -2.961105 -3.000000 7.431814
      vertex -4.489497 -3.000000 6.621512
    endloop
  endfacet
  facet normal 0.647386 0.000000 -0.762162
    outer loop
      vertex -5.807964 -1.000000 5.501595
      vertex -4.489497 -1.000000 6.621512
      vertex -4.489497 -3.000000 6.621512
    endloop
  endfacet
  facet normal 0.647386 0.000000 -0.762162
    outer loop
      vertex -5.807964 -1.000000 5.501595
      vertex -4.489497 -3.000000 6.621512
      vertex -5.807964 -3.000000 5.501595
    endloop
  endfacet
  facet normal 0.796093 0.000000 -0.605174
    outer loop
      vertex -6.854857 -1.000000 4.124431
      vertex -5.807964 -1.000000 5.501595
      vertex -5.807964 -3.000000 5.501595
    endloop
  endfacet
  facet normal 0.796093 0.000000 -0.605174
    outer loop
      vertex -6.854857 -1.000000 4.124431
      vertex -5.807964 -3.000000 5.501595
      vertex -6.854857 -3.000000 4.124431
    endloop
  endfacet
  facet normal 0.907575 0.000000 -0.419889
    outer loop
      vertex -7.581225 -1.000000 2.554412
      vertex -6.854857 -1.000000 4.124431
      vertex -6.854857 -3.000000 4.124431
    endloop
  endfacet
  facet normal 0.907575 0.000000 -0.419889
    outer loop
      vertex -7.581225 -1.000000 2.554412
      vertex -6.854857 -3.000000 4.124431
      vertex -7.581225 -3.000000 2.554412
    endloop
  endfacet
  facet normal 0.976621 0.000000 -0.214970
    outer loop
      vertex -7.953104 -1.000000 0.864952
      vertex -7.581225 -1.000000 2.554412
      vertex -7.581225 -3.000000 2.554412
    endloop
  endfacet
  facet normal 0.976621 0.000000 -0.214970
    outer loop
      vertex -7.953104 -1.000000 0.864952
      vertex -7.581225 -3.000000 2.554412
      vertex -7.953104 -3.000000 0.864952
    endloop
  endfacet
  facet normal 1.000000 0.000000 -0.000000
    outer loop
      vertex -7.953104 -1.000000 -0.864952
      vertex -7.953104 -1.000000 0.864952
      vertex -7.953104 -3.000000 0.864952
    endloop
  endfacet
  facet normal 1.000000 0.000000 0.000000
    outer loop
      vertex -7.953104 -1.000000 -0.864952
      vertex -7.953104 -3.000000 0.864952
      vertex -7.953104 -3.000000 -0.864952
    endloop
  endfacet
  facet normal 0.976621 0.000000 0.214970
    outer loop
      vertex -7.581225 -1.000000 -2.554412
      vertex -7.953104 -1.000000 -0.864952
      vertex -7.953104 -3.000000 -0.864952
    endloop
  endfacet
  facet normal 0.976621 0.000000 0.214970
    outer loop
      vertex -7.581225 -1.000000 -2.554412
      vertex -7.953104 -3.000000 -0.864952
      vertex -7.581225 -3.000000 -2.554412
    endloop
  endfacet
  facet normal 0.907575 0.000000 0.419889
    outer loop
      vertex -6.854857 -1.000000 -4.124431
      vertex -7.581225 -1.000000 -2.554412
      vertex -7.581225 -3.000000 -2.554412
    endloop
  endfacet
  facet normal 0.907575 0.000000 0.419889
    outer loop
      vertex -6.854857 -1.000000 -4.124431
      vertex -7.581225 -3.000000 -2.554412
      vertex -6.854857 -3.000000 -4.124431
    endloop
  endfacet
  facet normal 0.796093 0.000000 0.605174
    outer loop
      vertex -5.807964 -1.000000 -5.501595
      vertex -6.854857 -1.000000 -4.124431
      vertex -6.854857 -3.000000 -4.124431
    endloop
  endfacet
  facet normal 0.796093 0.000000 0.605174
    outer loop
      vertex -5.807964 -1.000000 -5.501595
      vertex -6.854857 -3.000000 -4.124431
      vertex -5.807964 -3.000000 -5.501595
    endloop
  endfacet
  facet normal 0.000000 1.000000 0.000000
    outer loop
      vertex 61.000000 -0.000000 -61.000000
      vertex -61.000000 -0.000000 -61.000000
      vertex -60.000000 -0.000000 -60.000000
    endloop
  endfacet
  facet normal 0.000000 1.000000 0.000000
    outer loop
      vertex 60.000000 -0.000000 -60.000000
      vertex 61.000000 -0.000000 -61.000000
      vertex -60.000000 -0.000000 -60.000000
    endloop
  endfacet
  facet normal 0.000000 1.000000 -0.000000
    outer loop
      vertex -61.000000 0.000000 61.000000
      vertex -60.000000 -0.000000 -60.000000
      vertex -61.000000 -0.000000 -61.000000
    endloop
  endfacet
  facet normal -0.000000 1.000000 -0.000000
    outer loop
      vertex -60.000000 0.000000 60.000000
      vertex -60.000000 -0.000000 -60.000000
      vertex -61.000000 0.000000 61.000000
    endloop
  endfacet
  facet normal 0.000000 1.000000 0.000000
    outer loop
      vertex 60.000000 0.000000 60.000000
      vertex -60.000000 0.000000 60.000000
      vertex -61.000000 0.000000 61.000000
    endloop
  endfacet
  facet normal 0.000000 1.000000 0.000000
    outer loop
      vertex 61.000000 0.000000 61.000000
      vertex 60.000000 0.000000 60.000000
      vertex -61.000000 0.000000 61.000000
    endloop
  endfacet
  facet normal -0.000000 1.000000 -0.000000
    outer loop
      vertex 61.000000 0.000000 61.000000
      vertex 61.000000 -0.000000 -61.000000
      vertex 60.000000 -0.000000 -60.000000
    endloop
  endfacet
  facet normal 0.000000 1.000000 -0.000000
    outer loop
      vertex 61.000000 0.000000 61.000000
      vertex 60.000000 -0.000000 -60.000000
      vertex 60.000000 0.000000 60.000000
    endloop
  endfacet
  facet normal 0.000000 -1.000000 0.000000
    outer loop
      vertex -4.489497 -1.000000 -6.621512
      vertex -6.854857 -1.000000 -4.124431
      vertex -5.807964 -1.000000 -5.501595
    endloop
  endfacet
  facet normal 0.000000 -1.000000 0.000000
    outer loop
      vertex -2.961105 -1.000000 -7.431814
      vertex -1.294256 -1.000000 -7.894612
      vertex -4.489497 -1.000000 -6.621512
    endloop
  endfacet
  facet normal 0.000000 -1.000000 0.000000
    outer loop
      vertex -1.294256 -1.000000 -7.894612
      vertex 0.433111 -1.000000 -7.988267
      vertex -4.489497 -1.000000 -6.621512
    endloop
  endfacet
  facet normal 0.000000 -1.000000 0.000000
    outer loop
      vertex -7.581225 -1.000000 -2.554412
      vertex -7.953104 -1.000000 0.864952
      vertex -7.953104 -1.000000 -0.864952
    endloop
  endfacet
  facet normal -0.000000 -1.000000 0.000000
    outer loop
      vertex 2.140227 -1.000000 -7.708400
      vertex 3.747267 -1.000000 -7.068096
      vertex 0.433111 -1.000000 -7.988267
    endloop
  endfacet
  facet normal 0.000000 -1.000000 0.000000
    outer loop
      vertex -7.953104 -1.000000 0.864952
      vertex -6.854857 -1.000000 4.124431
      vertex -7.581225 -1.000000 2.554412
    endloop
  endfacet
  facet normal 0.000000 -1.000000 0.000000
    outer loop
      vertex -7.581225 -1.000000 -2.554412
      vertex -6.854857 -1.000000 4.124431
      vertex -7.953104 -1.000000 0.864952
    endloop
  endfacet
  facet normal -0.000000 -1.000000 0.000000
    outer loop
      vertex 3.747267 -1.000000 -7.068096
      vertex 5.179090 -1.000000 -6.097296
      vertex 0.433111 -1.000000 -7.988267
    endloop
  endfacet
  facet normal 0.000000 -1.000000 0.000000
    outer loop
      vertex -6.854857 -1.000000 -4.124431
      vertex -4.489497 -1.000000 6.621512
      vertex -7.581225 -1.000000 -2.554412
    endloop
  endfacet
  facet normal 0.000000 -1.000000 0.000000
    outer loop
      vertex -6.854857 -1.000000 4.124431
      vertex -4.489497 -1.000000 6.621512
      vertex -5.807964 -1.000000 5.501595
    endloop
  endfacet
  facet normal 0.000000 -1.000000 0.000000
    outer loop
      vertex -4.489497 -1.000000 -6.621512
      vertex -4.489497 -1.000000 6.621512
      vertex -6.854857 -1.000000 -4.124431
    endloop
  endfacet
  facet normal 0.000000 -1.000000 0.000000
    outer loop
      vertex -7.581225 -1.000000 -2.554412
      vertex -4.489497 -1.000000 6.621512
      vertex -6.854857 -1.000000 4.124431
    endloop
  endfacet
  facet normal -0.000000 -1.000000 0.000000
    outer loop
      vertex 6.368744 -1.000000 -4.841394
      vertex 7.260603 -1.000000 -3.359113
      vertex 5.179090 -1.000000 -6.097296
    endloop
  endfacet
  facet normal -0.000000 -1.000000 0.000000
    outer loop
      vertex 5.179090 -1.000000 -6.097296
      vertex 7.260603 -1.000000 -3.359113
      vertex 0.433111 -1.000000 -7.988267
    endloop
  endfacet
  facet normal 0.000000 -1.000000 0.000000
    outer loop
      vertex -4.489497 -1.000000 6.621512
      vertex -1.294256 -1.000000 7.894612
      vertex -2.961105 -1.000000 7.431814
    endloop
  endfacet
  facet normal 0.000000 -1.000000 0.000000
    outer loop
      vertex 0.433111 -1.000000 -7.988267
      vertex -1.294256 -1.000000 7.894612
      vertex -4.489497 -1.000000 -6.621512
    endloop
  endfacet
  facet normal 0.000000 -1.000000 0.000000
    outer loop
      vertex -4.489497 -1.000000 -6.621512
      vertex -1.294256 -1.000000 7.894612
      vertex -4.489497 -1.000000 6.621512
    endloop
  endfacet
  facet normal -0.000000 -1.000000 0.000000
    outer loop
      vertex 8.000000 -1.000000 0.000000
      vertex 7.812964 -1.000000 1.719764
      vertex 7.812964 -1.000000 -1.719764
    endloop
  endfacet
  facet normal -0.000000 -1.000000 0.000000
    outer loop
      vertex 7.812964 -1.000000 -1.719764
      vertex 7.812964 -1.000000 1.719764
      vertex 7.260603 -1.000000 -3.359113
    endloop
  endfacet
  facet normal 0.000000 -1.000000 0.000000
    outer loop
      vertex -1.294256 -1.000000 7.894612
      vertex 2.140227 -1.000000 7.708400
      vertex 0.433111 -1.000000 7.988267
    endloop
  endfacet
  facet normal 0.000000 -1.000000 0.000000
    outer loop
      vertex -1.294256 -1.000000 7.894612
      vertex 3.747267 -1.000000 7.068096
      vertex 2.140227 -1.000000 7.708400
    endloop
  endfacet
  facet normal -0.000000 -1.000000 -0.000000
    outer loop
      vertex 7.260603 -1.000000 3.359113
      vertex 6.368744 -1.000000 4.841394
      vertex 7.812964 -1.000000 1.719764
    endloop
  endfacet
  facet normal -0.000000 -1.000000 0.000000
    outer loop
      vertex 7.260603 -1.000000 -3.359113
      vertex 6.368744 -1.000000 4.841394
      vertex 0.433111 -1.000000 -7.988267
    endloop
  endfacet
  facet normal -0.000000 -1.000000 0.000000
    outer loop
      vertex 7.812964 -1.000000 1.719764
      vertex 6.368744 -1.000000 4.841394
      vertex 7.260603 -1.000000 -3.359113
    endloop
  endfacet
  facet normal -0.000000 -1.000000 0.000000
    outer loop
      vertex 6.368744 -1.000000 4.841394
      vertex 5.179090 -1.000000 6.097296
      vertex 0.433111 -1.000000 -7.988267
    endloop
  endfacet
  facet normal 0.000000 -1.000000 0.000000
    outer loop
      vertex 0.433111 -1.000000 -7.988267
      vertex 5.179090 -1.000000 6.097296
      vertex -1.294256 -1.000000 7.894612
    endloop
  endfacet
  facet normal 0.000000 -1.000000 0.000000
    outer loop
      vertex -1.294256 -1.000000 7.894612
      vertex 5.179090 -1.000000 6.097296
      vertex 3.747267 -1.000000 7.068096
    endloop
  endfacet
  facet normal -0.000000 1.000000 -0.000000
    outer loop
      vertex -4.489497 -0.000000 -6.621512
      vertex -60.000000 -0.000000 -60.000000
      vertex -5.807964 -0.000000 -5.501595
    endloop
  endfacet
  facet normal -0.000000 1.000000 -0.000000
    outer loop
      vertex -6.854857 -0.000000 -4.124431
      vertex -5.807964 -0.000000 -5.501595
      vertex -60.000000 -0.000000 -60.000000
    endloop
  endfacet
  facet normal -0.000000 1.000000 -0.000000
    outer loop
      vertex -2.961105 -0.000000 -7.431814
      vertex -60.000000 -0.000000 -60.000000
      vertex -4.489497 -0.000000 -6.621512
    endloop
  endfacet
  facet normal -0.000000 1.000000 -0.000000
    outer loop
      vertex -7.581225 -0.000000 -2.554412
      vertex -6.854857 -0.000000 -4.124431
      vertex -60.000000 -0.000000 -60.000000
    endloop
  endfacet
  facet normal -0.000000 1.000000 -0.000000
    outer loop
      vertex -1.294256 -0.000000 -7.894612
      vertex -60.000000 -0.000000 -60.000000
      vertex -2.961105 -0.000000 -7.431814
    endloop
  endfacet
  facet normal -0.000000 1.000000 -0.000000
    outer loop
      vertex -7.953104 -0.000000 -0.864952
      vertex -7.581225 -0.000000 -2.554412
      vertex -60.000000 -0.000000 -60.000000
    endloop
  endfacet
  facet normal -0.000000 1.000000 -0.000000
    outer loop
      vertex 0.433111 -0.000000 -7.988267
      vertex -60.000000 -0.000000 -60.000000
      vertex -1.294256 -0.000000 -7.894612
    endloop
  endfacet
  facet normal -0.000000 1.000000 -0.000000
    outer loop
      vertex -7.953104 0.000000 0.864952
      vertex -7.953104 -0.000000 -0.864952
      vertex -60.000000 -0.000000 -60.000000
    endloop
  endfacet
  facet normal 0.000000 1.000000 -0.000000
    outer loop
      vertex -60.000000 0.000000 60.000000
      vertex -5.807964 0.000000 5.501595
      vertex -6.854857 0.000000 4.124431
    endloop
  endfacet
  facet normal 0.000000 1.000000 -0.000000
    outer loop
      vertex -60.000000 0.000000 60.000000
      vertex -6.854857 0.000000 4.124431
      vertex -7.581225 0.000000 2.554412
    endloop
  endfacet
  facet normal 0.000000 1.000000 -0.000000
    outer loop
      vertex -60.000000 0.000000 60.000000
      vertex -7.581225 0.000000 2.554412
      vertex -7.953104 0.000000 0.864952
    endloop
  endfacet
  facet normal 0.000000 1.000000 -0.000000
    outer loop
      vertex -60.000000 0.000000 60.000000
      vertex -7.953104 0.000000 0.864952
      vertex -60.000000 -0.000000 -60.000000
    endloop
  endfacet
  facet normal 0.000000 1.000000 -0.000000
    outer loop
      vertex 60.000000 -0.000000 -60.000000
      vertex 0.433111 -0.000000 -7.988267
      vertex 2.140227 -0.000000 -7.708400
    endloop
  endfacet
  facet normal 0.000000 1.000000 -0.000000
    outer loop
      vertex 60.000000 -0.000000 -60.000000
      vertex 2.140227 -0.000000 -7.708400
      vertex 3.747267 -0.000000 -7.068096
    endloop
  endfacet
  facet normal 0.000000 1.000000 -0.000000
    outer loop
      vertex 60.000000 -0.000000 -60.000000
      vertex 3.747267 -0.000000 -7.068096
      vertex 5.179090 -0.000000 -6.097296
    endloop
  endfacet
  facet normal 0.000000 1.000000 -0.000000
    outer loop
      vertex 60.000000 -0.000000 -60.000000
      vertex -60.000000 -0.000000 -60.000000
      vertex 0.433111 -0.000000 -7.988267
    endloop
  endfacet
  facet normal 0.000000 1.000000 -0.000000
    outer loop
      vertex 6.368744 -0.000000 -4.841394
      vertex 60.000000 -0.000000 -60.000000
      vertex 5.179090 -0.000000 -6.097296
    endloop
  endfacet
  facet normal 0.000000 1.000000 -0.000000
    outer loop
      vertex -4.489497 0.000000 6.621512
      vertex -5.807964 0.000000 5.501595
      vertex -60.000000 0.000000 60.000000
    endloop
  endfacet
  facet normal 0.000000 1.000000 -0.000000
    outer loop
      vertex 7.260603 -0.000000 -3.359113
      vertex 60.000000 -0.000000 -60.000000
      vertex 6.368744 -0.000000 -4.841394
    endloop
  endfacet
  facet normal 0.000000 1.000000 -0.000000
    outer loop
      vertex -2.961105 0.000000 7.431814
      vertex -4.489497 0.000000 6.621512
      vertex -60.000000 0.000000 60.000000
    endloop
  endfacet
  facet normal 0.000000 1.000000 -0.000000
    outer loop
      vertex 7.812964 -0.000000 -1.719764
      vertex 60.000000 -0.000000 -60.000000
      vertex 7.260603 -0.000000 -3.359113
    endloop
  endfacet
  facet normal 0.000000 1.000000 -0.000000
    outer loop
      vertex -1.294256 0.000000 7.894612
      vertex -2.961105 0.000000 7.431814
      vertex -60.000000 0.000000 60.000000
    endloop
  endfacet
  facet normal 0.000000 1.000000 -0.000000
    outer loop
      vertex 8.000000 0.000000 0.000000
      vertex 60.000000 -0.000000 -60.000000
      vertex 7.812964 -0.000000 -1.719764
    endloop
  endfacet
  facet normal 0.000000 1.000000 -0.000000
    outer loop
      vertex 0.433111 0.000000 7.988267
      vertex -1.294256 0.000000 7.894612
      vertex -60.000000 0.000000 60.000000
    endloop
  endfacet
  facet normal -0.000000 1.000000 -0.000000
    outer loop
      vertex 60.000000 0.000000 60.000000
      vertex 8.000000 0.000000 0.000000
      vertex 7.812964 0.000000 1.719764
    endloop
  endfacet
  facet normal -0.000000 1.000000 -0.000000
    outer loop
      vertex 60.000000 0.000000 60.000000
      vertex 7.812964 0.000000 1.719764
      vertex 7.260603 0.000000 3.359113
    endloop
  endfacet
  facet normal -0.000000 1.000000 -0.000000
    outer loop
      vertex 60.000000 0.000000 60.000000
      vertex 7.260603 0.000000 3.359113
      vertex 6.368744 0.000000 4.841394
    endloop
  endfacet
  facet normal -0.000000 1.000000 -0.000000
    outer loop
      vertex 60.000000 0.000000 60.000000
      vertex 6.368744 0.000000 4.841394
      vertex 5.179090 0.000000 6.097296
    endloop
  endfacet
  facet normal -0.000000 1.000000 -0.000000
    outer loop
      vertex 60.000000 0.000000 60.000000
      vertex 5.179090 0.000000 6.097296
      vertex 3.747267 0.000000 7.068096
    endloop
  endfacet
  facet normal -0.000000 1.000000 -0.000000
    outer loop
      vertex 60.000000 0.000000 60.000000
      vertex 3.747267 0.000000 7.068096
      vertex 2.140227 0.000000 7.708400
    endloop
  endfacet
  facet normal -0.000000 1.000000 -0.000000
    outer loop
      vertex 60.000000 0.000000 60.000000
      vertex 2.140227 0.000000 7.708400
      vertex 0.433111 0.000000 7.988267
    endloop
  endfacet
  facet normal 0.000000 1.000000 -0.000000
    outer loop
      vertex 60.000000 0.000000 60.000000
      vertex 0.433111 0.000000 7.988267
      vertex -60.000000 0.000000 60.000000
    endloop
  endfacet
  facet normal 0.000000 1.000000 -0.000000
    outer loop
      vertex 60.000000 0.000000 60.000000
      vertex 60.000000 -0.000000 -60.000000
      vertex 8.000000 0.000000 0.000000
    endloop
  endfacet
  facet normal -0.000000 1.000000 -0.000000
    outer loop
      vertex -6.854857 -0.000000 -4.124431
      vertex -4.489497 -0.000000 -6.621512
      vertex -5.807964 -0.000000 -5.501595
    endloop
  endfacet
  facet normal 0.000000 1.000000 -0.000000
    outer loop
      vertex -7.581225 0.000000 2.554412
      vertex -7.953104 -0.000000 -0.864952
      vertex -7.953104 0.000000 0.864952
    endloop
  endfacet
  facet normal -0.000000 1.000000 -0.000000
    outer loop
      vertex 3.747267 -0.000000 -7.068096
      vertex -1.294256 -0.000000 -7.894612
      vertex -2.961105 -0.000000 -7.431814
    endloop
  endfacet
  facet normal 0.000000 1.000000 -0.000000
    outer loop
      vertex 3.747267 -0.000000 -7.068096
      vertex 0.433111 -0.000000 -7.988267
      vertex -1.294256 -0.000000 -7.894612
    endloop
  endfacet
  facet normal 0.000000 1.000000 -0.000000
    outer loop
      vertex 3.747267 -0.000000 -7.068096
      vertex 2.140227 -0.000000 -7.708400
      vertex 0.433111 -0.000000 -7.988267
    endloop
  endfacet
  facet normal 0.000000 1.000000 -0.000000
    outer loop
      vertex -6.854857 0.000000 4.124431
      vertex -7.953104 -0.000000 -0.864952
      vertex -7.581225 0.000000 2.554412
    endloop
  endfacet
  facet normal 0.000000 1.000000 -0.000000
    outer loop
      vertex -5.807964 0.000000 5.501595
      vertex -7.581225 -0.000000 -2.554412
      vertex -7.953104 -0.000000 -0.864952
    endloop
  endfacet
  facet normal 0.000000 1.000000 -0.000000
    outer loop
      vertex -5.807964 0.000000 5.501595
      vertex -6.854857 -0.000000 -4.124431
      vertex -7.581225 -0.000000 -2.554412
    endloop
  endfacet
  facet normal 0.000000 1.000000 -0.000000
    outer loop
      vertex -5.807964 0.000000 5.501595
      vertex -7.953104 -0.000000 -0.864952
      vertex -6.854857 0.000000 4.124431
    endloop
  endfacet
  facet normal 0.000000 1.000000 -0.000000
    outer loop
      vertex 6.368744 -0.000000 -4.841394
      vertex 5.179090 -0.000000 -6.097296
      vertex 3.747267 -0.000000 -7.068096
    endloop
  endfacet
  facet normal -0.000000 1.000000 -0.000000
    outer loop
      vertex -2.961105 0.000000 7.431814
      vertex -5.807964 0.000000 5.501595
      vertex -4.489497 0.000000 6.621512
    endloop
  endfacet
  facet normal 0.000000 1.000000 -0.000000
    outer loop
      vertex -2.961105 0.000000 7.431814
      vertex -2.961105 -0.000000 -7.431814
      vertex -4.489497 -0.000000 -6.621512
    endloop
  endfacet
  facet normal 0.000000 1.000000 -0.000000
    outer loop
      vertex -2.961105 0.000000 7.431814
      vertex 7.260603 -0.000000 -3.359113
      vertex 6.368744 -0.000000 -4.841394
    endloop
  endfacet
  facet normal -0.000000 1.000000 -0.000000
    outer loop
      vertex -2.961105 0.000000 7.431814
      vertex -4.489497 -0.000000 -6.621512
      vertex -6.854857 -0.000000 -4.124431
    endloop
  endfacet
  facet normal 0.000000 1.000000 -0.000000
    outer loop
      vertex -2.961105 0.000000 7.431814
      vertex 3.747267 -0.000000 -7.068096
      vertex -2.961105 -0.000000 -7.431814
    endloop
  endfacet
  facet normal 0.000000 1.000000 -0.000000
    outer loop
      vertex -2.961105 0.000000 7.431814
      vertex 6.368744 -0.000000 -4.841394
      vertex 3.747267 -0.000000 -7.068096
    endloop
  endfacet
  facet normal 0.000000 1.000000 -0.000000
    outer loop
      vertex -2.961105 0.000000 7.431814
      vertex -6.854857 -0.000000 -4.124431
      vertex -5.807964 0.000000 5.501595
    endloop
  endfacet
  facet normal 0.000000 1.000000 -0.000000
    outer loop
      vertex 7.812964 0.000000 1.719764
      vertex -2.961105 0.000000 7.431814
      vertex -1.294256 0.000000 7.894612
    endloop
  endfacet
  facet normal 0.000000 1.000000 -0.000000
    outer loop
      vertex 7.812964 0.000000 1.719764
      vertex 7.812964 -0.000000 -1.719764
      vertex 7.260603 -0.000000 -3.359113
    endloop
  endfacet
  facet normal 0.000000 1.000000 -0.000000
    outer loop
      vertex 7.812964 0.000000 1.719764
      vertex 8.000000 0.000000 0.000000
      vertex 7.812964 -0.000000 -1.719764
    endloop
  endfacet
  facet normal -0.000000 1.000000 -0.000000
    outer loop
      vertex 7.812964 0.000000 1.719764
      vertex 7.260603 -0.000000 -3.359113
      vertex -2.961105 0.000000 7.431814
    endloop
  endfacet
  facet normal -0.000000 1.000000 -0.000000
    outer loop
      vertex 2.140227 0.000000 7.708400
      vertex -1.294256 0.000000 7.894612
      vertex 0.433111 0.000000 7.988267
    endloop
  endfacet
  facet normal -0.000000 1.000000 -0.000000
    outer loop
      vertex 2.140227 0.000000 7.708400
      vertex 7.812964 0.000000 1.719764
      vertex -1.294256 0.000000 7.894612
    endloop
  endfacet
  facet normal -0.000000 1.000000 -0.000000
    outer loop
      vertex 6.368744 0.000000 4.841394
      vertex 7.260603 0.000000 3.359113
      vertex 7.812964 0.000000 1.719764
    endloop
  endfacet
  facet normal 0.000000 1.000000 -0.000000
    outer loop
      vertex 5.179090 0.000000 6.097296
      vertex 2.140227 0.000000 7.708400
      vertex 3.747267 0.000000 7.068096
    endloop
  endfacet
  facet normal -0.000000 1.000000 -0.000000
    outer loop
      vertex 5.179090 0.000000 6.097296
      vertex 7.812964 0.000000 1.719764
      vertex 2.140227 0.000000 7.708400
    endloop
  endfacet
  facet normal 0.000000 1.000000 -0.000000
    outer loop
      vertex 5.179090 0.000000 6.097296
      vertex 6.368744 0.000000 4.841394
      vertex 7.812964 0.000000 1.719764
    endloop
  endfacet
endsolid Mesh
