solid Visualization Toolkit generated SLA File
 facet normal 0 1 0
  outer loop
   vertex -61 610 61
   vertex -60 610 -60
   vertex -61 610 -61
  endloop
 endfacet
 facet normal 0 1 -0
  outer loop
   vertex -60 610 60
   vertex -60 610 -60
   vertex -61 610 61
  endloop
 endfacet
 facet normal 0 1 0
  outer loop
   vertex -61 610 61
   vertex 61 610 61
   vertex -60 610 60
  endloop
 endfacet
 facet normal 0 1 -0
  outer loop
   vertex 61 610 61
   vertex 60 610 60
   vertex -60 610 60
  endloop
 endfacet
 facet normal 0 1 0
  outer loop
   vertex 60 610 -60
   vertex 61 610 -61
   vertex -60 610 -60
  endloop
 endfacet
 facet normal 0 1 0
  outer loop
   vertex -60 610 -60
   vertex 61 610 -61
   vertex -61 610 -61
  endloop
 endfacet
 facet normal 0 1 -0
  outer loop
   vertex 61 610 61
   vertex 61 610 -61
   vertex 60 610 60
  endloop
 endfacet
 facet normal 0 1 0
  outer loop
   vertex 60 610 60
   vertex 61 610 -61
   vertex 60 610 -60
  endloop
 endfacet
 facet normal 0 0 -1
  outer loop
   vertex 61 3 -61
   vertex -61 610 -61
   vertex 61 610 -61
  endloop
 endfacet
 facet normal 0 0 -1
  outer loop
   vertex 61 3 -61
   vertex -61 3 -61
   vertex -61 610 -61
  endloop
 endfacet
 facet normal 1 0 -0
  outer loop
   vertex 61 3 61
   vertex 61 610 -61
   vertex 61 610 61
  endloop
 endfacet
 facet normal 1 0 0
  outer loop
   vertex 61 3 61
   vertex 61 3 -61
   vertex 61 610 -61
  endloop
 endfacet
 facet normal 0 0 1
  outer loop
   vertex -61 3 61
   vertex 61 610 61
   vertex -61 610 61
  endloop
 endfacet
 facet normal 0 -0 1
  outer loop
   vertex -61 3 61
   vertex 61 3 61
   vertex 61 610 61
  endloop
 endfacet
 facet normal -1 0 -0
  outer loop
   vertex -61 3 -61
   vertex -61 610 61
   vertex -61 610 -61
  endloop
 endfacet
 facet normal -1 0 0
  outer loop
   vertex -61 3 -61
   vertex -61 3 61
   vertex -61 610 61
  endloop
 endfacet
 facet normal 1 -0 0
  outer loop
   vertex -60 610 60
   vertex -60 3 60
   vertex -60 610 -60
  endloop
 endfacet
 facet normal 1 0 0
  outer loop
   vertex -60 3 60
   vertex -60 3 -60
   vertex -60 610 -60
  endloop
 endfacet
 facet normal 0 0 -1
  outer loop
   vertex 60 610 60
   vertex 60 3 60
   vertex -60 610 60
  endloop
 endfacet
 facet normal 0 0 -1
  outer loop
   vertex 60 3 60
   vertex -60 3 60
   vertex -60 610 60
  endloop
 endfacet
 facet normal -1 0 0
  outer loop
   vertex 60 610 -60
   vertex 60 3 60
   vertex 60 610 60
  endloop
 endfacet
 facet normal -1 0 0
  outer loop
   vertex 60 3 -60
   vertex 60 3 60
   vertex 60 610 -60
  endloop
 endfacet
 facet normal 0 0 1
  outer loop
   vertex -60 610 -60
   vertex -60 3 -60
   vertex 60 610 -60
  endloop
 endfacet
 facet normal 0 -0 1
  outer loop
   vertex -60 3 -60
   vertex 60 3 -60
   vertex 60 610 -60
  endloop
 endfacet
 facet normal 0 0 -1
  outer loop
   vertex 61 3 -61
   vertex -61 1 -61
   vertex -61 3 -61
  endloop
 endfacet
 facet normal 0 0 -1
  outer loop
   vertex 61 1 -61
   vertex -61 1 -61
   vertex 61 3 -61
  endloop
 endfacet
 facet normal 1 0 -0
  outer loop
   vertex 61 1 61
   vertex 61 3 -61
   vertex 61 3 61
  endloop
 endfacet
 facet normal 1 0 0
  outer loop
   vertex 61 1 61
   vertex 61 1 -61
   vertex 61 3 -61
  endloop
 endfacet
 facet normal 0 0 1
  outer loop
   vertex -61 1 61
   vertex 61 3 61
   vertex -61 3 61
  endloop
 endfacet
 facet normal 0 -0 1
  outer loop
   vertex -61 1 61
   vertex 61 1 61
   vertex 61 3 61
  endloop
 endfacet
 facet normal -1 0 -0
  outer loop
   vertex -61 1 -61
   vertex -61 3 61
   vertex -61 3 -61
  endloop
 endfacet
 facet normal -1 0 0
  outer loop
   vertex -61 1 -61
   vertex -61 1 61
   vertex -61 3 61
  endloop
 endfacet
 facet normal 0 1 0
  outer loop
   vertex -60 3 60
   vertex -4.489497184753418 3 6.6215119361877441
   vertex -5.8079638481140137 3 5.5015950202941895
  endloop
 endfacet
 facet normal 0 1 -0
  outer loop
   vertex -5.8079638481140137 3 5.5015950202941895
   vertex -6.8548569679260254 3 4.1244311332702637
   vertex -60 3 60
  endloop
 endfacet
 facet normal 0 1 0
  outer loop
   vertex -60 3 60
   vertex -2.9611051082611084 3 7.4318141937255859
   vertex -4.489497184753418 3 6.6215119361877441
  endloop
 endfacet
 facet normal 0 1 -0
  outer loop
   vertex -6.8548569679260254 3 4.1244311332702637
   vertex -7.5812249183654785 3 2.5544118881225586
   vertex -60 3 60
  endloop
 endfacet
 facet normal 0 1 0
  outer loop
   vertex -60 3 60
   vertex -1.2942559719085693 3 7.8946118354797363
   vertex -2.9611051082611084 3 7.4318141937255859
  endloop
 endfacet
 facet normal 0 1 -0
  outer loop
   vertex -7.5812249183654785 3 2.5544118881225586
   vertex -7.9531040191650391 3 0.86495202779769897
   vertex -60 3 60
  endloop
 endfacet
 facet normal 0 1 0
  outer loop
   vertex -60 3 60
   vertex 0.43311101198196411 3 7.9882669448852539
   vertex -1.2942559719085693 3 7.8946118354797363
  endloop
 endfacet
 facet normal 0 1 -0
  outer loop
   vertex -7.9531040191650391 3 0.86495202779769897
   vertex -7.9531040191650391 3 -0.86495202779769897
   vertex -60 3 60
  endloop
 endfacet
 facet normal 0 1 0
  outer loop
   vertex -5.8079638481140137 3 -5.5015950202941895
   vertex -60 3 -60
   vertex -6.8548569679260254 3 -4.1244311332702637
  endloop
 endfacet
 facet normal 0 1 0
  outer loop
   vertex -6.8548569679260254 3 -4.1244311332702637
   vertex -60 3 -60
   vertex -7.5812249183654785 3 -2.5544118881225586
  endloop
 endfacet
 facet normal 0 1 0
  outer loop
   vertex -7.5812249183654785 3 -2.5544118881225586
   vertex -60 3 -60
   vertex -7.9531040191650391 3 -0.86495202779769897
  endloop
 endfacet
 facet normal 0 1 0
  outer loop
   vertex -7.9531040191650391 3 -0.86495202779769897
   vertex -60 3 -60
   vertex -60 3 60
  endloop
 endfacet
 facet normal 0 1 0
  outer loop
   vertex 0.43311101198196411 3 7.9882669448852539
   vertex 60 3 60
   vertex 2.1402270793914795 3 7.708399772644043
  endloop
 endfacet
 facet normal 0 1 0
  outer loop
   vertex 2.1402270793914795 3 7.708399772644043
   vertex 60 3 60
   vertex 3.7472670078277588 3 7.0680961608886719
  endloop
 endfacet
 facet normal 0 1 0
  outer loop
   vertex 3.7472670078277588 3 7.0680961608886719
   vertex 60 3 60
   vertex 5.1790900230407715 3 6.0972962379455566
  endloop
 endfacet
 facet normal 0 1 0
  outer loop
   vertex -60 3 60
   vertex 60 3 60
   vertex 0.43311101198196411 3 7.9882669448852539
  endloop
 endfacet
 facet normal 0 1 -0
  outer loop
   vertex 60 3 60
   vertex 6.368743896484375 3 4.8413939476013184
   vertex 5.1790900230407715 3 6.0972962379455566
  endloop
 endfacet
 facet normal 0 1 0
  outer loop
   vertex -5.8079638481140137 3 -5.5015950202941895
   vertex -4.489497184753418 3 -6.6215119361877441
   vertex -60 3 -60
  endloop
 endfacet
 facet normal 0 1 -0
  outer loop
   vertex 60 3 60
   vertex 7.2606029510498047 3 3.3591129779815674
   vertex 6.368743896484375 3 4.8413939476013184
  endloop
 endfacet
 facet normal 0 1 0
  outer loop
   vertex -4.489497184753418 3 -6.6215119361877441
   vertex -2.9611051082611084 3 -7.4318141937255859
   vertex -60 3 -60
  endloop
 endfacet
 facet normal 0 1 -0
  outer loop
   vertex 60 3 60
   vertex 7.8129639625549316 3 1.7197639942169189
   vertex 7.2606029510498047 3 3.3591129779815674
  endloop
 endfacet
 facet normal 0 1 0
  outer loop
   vertex -2.9611051082611084 3 -7.4318141937255859
   vertex -1.2942559719085693 3 -7.8946118354797363
   vertex -60 3 -60
  endloop
 endfacet
 facet normal 0 1 -0
  outer loop
   vertex 60 3 60
   vertex 8 3 -3.6739402930577075e-16
   vertex 7.8129639625549316 3 1.7197639942169189
  endloop
 endfacet
 facet normal 0 1 0
  outer loop
   vertex -1.2942559719085693 3 -7.8946118354797363
   vertex 0.43311101198196411 3 -7.9882669448852539
   vertex -60 3 -60
  endloop
 endfacet
 facet normal 0 1 0
  outer loop
   vertex 8 3 -3.6739402930577075e-16
   vertex 60 3 -60
   vertex 7.8129639625549316 3 -1.7197639942169189
  endloop
 endfacet
 facet normal 0 1 0
  outer loop
   vertex 7.8129639625549316 3 -1.7197639942169189
   vertex 60 3 -60
   vertex 7.2606029510498047 3 -3.3591129779815674
  endloop
 endfacet
 facet normal 0 1 0
  outer loop
   vertex 7.2606029510498047 3 -3.3591129779815674
   vertex 60 3 -60
   vertex 6.368743896484375 3 -4.8413939476013184
  endloop
 endfacet
 facet normal 0 1 0
  outer loop
   vertex 6.368743896484375 3 -4.8413939476013184
   vertex 60 3 -60
   vertex 5.1790900230407715 3 -6.0972962379455566
  endloop
 endfacet
 facet normal 0 1 0
  outer loop
   vertex 5.1790900230407715 3 -6.0972962379455566
   vertex 60 3 -60
   vertex 3.7472670078277588 3 -7.0680961608886719
  endloop
 endfacet
 facet normal 0 1 0
  outer loop
   vertex 3.7472670078277588 3 -7.0680961608886719
   vertex 60 3 -60
   vertex 2.1402270793914795 3 -7.708399772644043
  endloop
 endfacet
 facet normal 0 1 0
  outer loop
   vertex 2.1402270793914795 3 -7.708399772644043
   vertex 60 3 -60
   vertex 0.43311101198196411 3 -7.9882669448852539
  endloop
 endfacet
 facet normal 0 1 -0
  outer loop
   vertex 60 3 60
   vertex 60 3 -60
   vertex 8 3 -3.6739402930577075e-16
  endloop
 endfacet
 facet normal 0 1 0
  outer loop
   vertex 0.43311101198196411 3 -7.9882669448852539
   vertex 60 3 -60
   vertex -60 3 -60
  endloop
 endfacet
 facet normal 0 0 -1
  outer loop
   vertex 61 1 -61
   vertex -61 -7.4703452449041523e-15 -61
   vertex -61 1 -61
  endloop
 endfacet
 facet normal 0 0 -1
  outer loop
   vertex 61 -7.4703452449041523e-15 -61
   vertex -61 -7.4703452449041523e-15 -61
   vertex 61 1 -61
  endloop
 endfacet
 facet normal 1 0 0
  outer loop
   vertex 61 1 61
   vertex 61 -7.4703452449041523e-15 -61
   vertex 61 1 -61
  endloop
 endfacet
 facet normal 1 0 0
  outer loop
   vertex 61 7.4703452449041523e-15 61
   vertex 61 -7.4703452449041523e-15 -61
   vertex 61 1 61
  endloop
 endfacet
 facet normal 0 -0 1
  outer loop
   vertex -61 1 61
   vertex 61 7.4703452449041523e-15 61
   vertex 61 1 61
  endloop
 endfacet
 facet normal 0 0 1
  outer loop
   vertex -61 7.4703452449041523e-15 61
   vertex 61 7.4703452449041523e-15 61
   vertex -61 1 61
  endloop
 endfacet
 facet normal -1 0 0
  outer loop
   vertex -61 1 -61
   vertex -61 7.4703452449041523e-15 61
   vertex -61 1 61
  endloop
 endfacet
 facet normal -1 0 -0
  outer loop
   vertex -61 -7.4703452449041523e-15 -61
   vertex -61 7.4703452449041523e-15 61
   vertex -61 1 -61
  endloop
 endfacet
 facet normal 0.64738670042007573 0 -0.76216170208113132
  outer loop
   vertex -4.489497184753418 1 6.6215119361877441
   vertex -5.8079638481140137 1 5.5015950202941895
   vertex -5.8079638481140137 3 5.5015950202941895
  endloop
 endfacet
 facet normal 0.64738670042007573 0 -0.76216170208113132
  outer loop
   vertex -4.489497184753418 1 6.6215119361877441
   vertex -5.8079638481140137 3 5.5015950202941895
   vertex -4.489497184753418 3 6.6215119361877441
  endloop
 endfacet
 facet normal 0.46840846871264458 0 -0.88351202959454689
  outer loop
   vertex -2.9611051082611084 1 7.4318141937255859
   vertex -4.489497184753418 1 6.6215119361877441
   vertex -4.489497184753418 3 6.6215119361877441
  endloop
 endfacet
 facet normal 0.46840846871264458 0 -0.88351202959454689
  outer loop
   vertex -2.9611051082611084 1 7.4318141937255859
   vertex -4.489497184753418 3 6.6215119361877441
   vertex -2.9611051082611084 3 7.4318141937255859
  endloop
 endfacet
 facet normal 0.26752793984402756 0 -0.96355010321353307
  outer loop
   vertex -1.2942559719085693 1 7.8946118354797363
   vertex -2.9611051082611084 1 7.4318141937255859
   vertex -2.9611051082611084 3 7.4318141937255859
  endloop
 endfacet
 facet normal -0.99413793032906728 0 0.10811926507814602
  outer loop
   vertex 7.8129639625549316 1 -1.7197639942169189
   vertex 8 3 -3.6739402930577075e-16
   vertex 7.8129639625549316 3 -1.7197639942169189
  endloop
 endfacet
 facet normal 0.26752793984402756 0 -0.96355010321353307
  outer loop
   vertex -1.2942559719085693 1 7.8946118354797363
   vertex -2.9611051082611084 3 7.4318141937255859
   vertex -1.2942559719085693 3 7.8946118354797363
  endloop
 endfacet
 facet normal -0.99413793032906739 1.3240790337230738e-17 0.10811926507814602
  outer loop
   vertex 7.8129639625549316 1 -1.7197639942169189
   vertex 8 1 -1.2246468525851679e-16
   vertex 8 3 -3.6739402930577075e-16
  endloop
 endfacet
 facet normal 0.054138904478489597 0 -0.99853341407379503
  outer loop
   vertex 0.43311101198196411 1 7.9882669448852539
   vertex -1.2942559719085693 1 7.8946118354797363
   vertex -1.2942559719085693 3 7.8946118354797363
  endloop
 endfacet
 facet normal -0.94765316652265008 0 0.31930154396681876
  outer loop
   vertex 7.2606029510498047 1 -3.3591129779815674
   vertex 7.8129639625549316 3 -1.7197639942169189
   vertex 7.2606029510498047 3 -3.3591129779815674
  endloop
 endfacet
 facet normal 0.054138904478489597 0 -0.99853341407379503
  outer loop
   vertex 0.43311101198196411 1 7.9882669448852539
   vertex -1.2942559719085693 3 7.8946118354797363
   vertex 0.43311101198196411 3 7.9882669448852539
  endloop
 endfacet
 facet normal -0.94765316652265008 0 0.31930154396681876
  outer loop
   vertex 7.2606029510498047 1 -3.3591129779815674
   vertex 7.8129639625549316 1 -1.7197639942169189
   vertex 7.8129639625549316 3 -1.7197639942169189
  endloop
 endfacet
 facet normal -0.16178182691395071 0 -0.98682655035238309
  outer loop
   vertex 2.1402270793914795 1 7.708399772644043
   vertex 0.43311101198196411 1 7.9882669448852539
   vertex 0.43311101198196411 3 7.9882669448852539
  endloop
 endfacet
 facet normal -0.16178182691395071 0 -0.98682655035238309
  outer loop
   vertex 2.1402270793914795 1 7.708399772644043
   vertex 0.43311101198196411 3 7.9882669448852539
   vertex 2.1402270793914795 3 7.708399772644043
  endloop
 endfacet
 facet normal -0.85685712856506968 0 0.51555393629301649
  outer loop
   vertex 6.368743896484375 1 -4.8413939476013184
   vertex 7.2606029510498047 3 -3.3591129779815674
   vertex 6.368743896484375 3 -4.8413939476013184
  endloop
 endfacet
 facet normal -0.85685712856506968 0 0.51555393629301649
  outer loop
   vertex 6.368743896484375 1 -4.8413939476013184
   vertex 7.2606029510498047 1 -3.3591129779815674
   vertex 7.2606029510498047 3 -3.3591129779815674
  endloop
 endfacet
 facet normal -0.37013834558473929 0 -0.92897664401630264
  outer loop
   vertex 3.7472670078277588 1 7.0680961608886719
   vertex 2.1402270793914795 3 7.708399772644043
   vertex 3.7472670078277588 3 7.0680961608886719
  endloop
 endfacet
 facet normal -0.7259954825307644 0 0.68769946876882393
  outer loop
   vertex 5.1790900230407715 1 -6.0972962379455566
   vertex 6.368743896484375 3 -4.8413939476013184
   vertex 5.1790900230407715 3 -6.0972962379455566
  endloop
 endfacet
 facet normal -0.37013834558473929 0 -0.92897664401630264
  outer loop
   vertex 3.7472670078277588 1 7.0680961608886719
   vertex 2.1402270793914795 1 7.708399772644043
   vertex 2.1402270793914795 3 7.708399772644043
  endloop
 endfacet
 facet normal -0.7259954825307644 0 0.68769946876882393
  outer loop
   vertex 5.1790900230407715 1 -6.0972962379455566
   vertex 6.368743896484375 1 -4.8413939476013184
   vertex 6.368743896484375 3 -4.8413939476013184
  endloop
 endfacet
 facet normal -0.56118699818949347 0 -0.82768904370123542
  outer loop
   vertex 5.1790900230407715 1 6.0972962379455566
   vertex 3.7472670078277588 3 7.0680961608886719
   vertex 5.1790900230407715 3 6.0972962379455566
  endloop
 endfacet
 facet normal -0.56118699818949347 0 0.82768904370123542
  outer loop
   vertex 3.7472670078277588 1 -7.0680961608886719
   vertex 5.1790900230407715 3 -6.0972962379455566
   vertex 3.7472670078277588 3 -7.0680961608886719
  endloop
 endfacet
 facet normal -0.56118699818949347 0 -0.82768904370123542
  outer loop
   vertex 5.1790900230407715 1 6.0972962379455566
   vertex 3.7472670078277588 1 7.0680961608886719
   vertex 3.7472670078277588 3 7.0680961608886719
  endloop
 endfacet
 facet normal -0.56118699818949347 0 0.82768904370123542
  outer loop
   vertex 3.7472670078277588 1 -7.0680961608886719
   vertex 5.1790900230407715 1 -6.0972962379455566
   vertex 5.1790900230407715 3 -6.0972962379455566
  endloop
 endfacet
 facet normal -0.7259954825307644 0 -0.68769946876882393
  outer loop
   vertex 6.368743896484375 1 4.8413939476013184
   vertex 5.1790900230407715 3 6.0972962379455566
   vertex 6.368743896484375 3 4.8413939476013184
  endloop
 endfacet
 facet normal -0.37013834558473929 0 0.92897664401630264
  outer loop
   vertex 2.1402270793914795 1 -7.708399772644043
   vertex 3.7472670078277588 3 -7.0680961608886719
   vertex 2.1402270793914795 3 -7.708399772644043
  endloop
 endfacet
 facet normal -0.7259954825307644 0 -0.68769946876882393
  outer loop
   vertex 6.368743896484375 1 4.8413939476013184
   vertex 5.1790900230407715 1 6.0972962379455566
   vertex 5.1790900230407715 3 6.0972962379455566
  endloop
 endfacet
 facet normal -0.37013834558473929 0 0.92897664401630264
  outer loop
   vertex 2.1402270793914795 1 -7.708399772644043
   vertex 3.7472670078277588 1 -7.0680961608886719
   vertex 3.7472670078277588 3 -7.0680961608886719
  endloop
 endfacet
 facet normal -0.85685712856506968 0 -0.51555393629301649
  outer loop
   vertex 7.2606029510498047 1 3.3591129779815674
   vertex 6.368743896484375 3 4.8413939476013184
   vertex 7.2606029510498047 3 3.3591129779815674
  endloop
 endfacet
 facet normal -0.16178182691395071 0 0.98682655035238309
  outer loop
   vertex 0.43311101198196411 1 -7.9882669448852539
   vertex 2.1402270793914795 3 -7.708399772644043
   vertex 0.43311101198196411 3 -7.9882669448852539
  endloop
 endfacet
 facet normal -0.85685712856506968 0 -0.51555393629301649
  outer loop
   vertex 7.2606029510498047 1 3.3591129779815674
   vertex 6.368743896484375 1 4.8413939476013184
   vertex 6.368743896484375 3 4.8413939476013184
  endloop
 endfacet
 facet normal -0.16178182691395071 0 0.98682655035238309
  outer loop
   vertex 0.43311101198196411 1 -7.9882669448852539
   vertex 2.1402270793914795 1 -7.708399772644043
   vertex 2.1402270793914795 3 -7.708399772644043
  endloop
 endfacet
 facet normal -0.94765316652265008 0 -0.31930154396681876
  outer loop
   vertex 7.8129639625549316 1 1.7197639942169189
   vertex 7.2606029510498047 3 3.3591129779815674
   vertex 7.8129639625549316 3 1.7197639942169189
  endloop
 endfacet
 facet normal -0.94765316652265008 0 -0.31930154396681876
  outer loop
   vertex 7.8129639625549316 1 1.7197639942169189
   vertex 7.2606029510498047 1 3.3591129779815674
   vertex 7.2606029510498047 3 3.3591129779815674
  endloop
 endfacet
 facet normal 0.054138904478489597 0 0.99853341407379503
  outer loop
   vertex -1.2942559719085693 1 -7.8946118354797363
   vertex 0.43311101198196411 3 -7.9882669448852539
   vertex -1.2942559719085693 3 -7.8946118354797363
  endloop
 endfacet
 facet normal 0.054138904478489597 -0 0.99853341407379503
  outer loop
   vertex -1.2942559719085693 1 -7.8946118354797363
   vertex 0.43311101198196411 1 -7.9882669448852539
   vertex 0.43311101198196411 3 -7.9882669448852539
  endloop
 endfacet
 facet normal -0.99413793032906739 0 -0.10811926507814598
  outer loop
   vertex 8 1 -1.2246468525851679e-16
   vertex 7.8129639625549316 3 1.7197639942169189
   vertex 8 3 -3.6739402930577075e-16
  endloop
 endfacet
 facet normal -0.99413793032906739 0 -0.108119265078146
  outer loop
   vertex 8 1 -1.2246468525851679e-16
   vertex 7.8129639625549316 1 1.7197639942169189
   vertex 7.8129639625549316 3 1.7197639942169189
  endloop
 endfacet
 facet normal 0.26752793984402756 0 0.96355010321353307
  outer loop
   vertex -2.9611051082611084 1 -7.4318141937255859
   vertex -1.2942559719085693 3 -7.8946118354797363
   vertex -2.9611051082611084 3 -7.4318141937255859
  endloop
 endfacet
 facet normal 0.26752793984402756 -0 0.96355010321353307
  outer loop
   vertex -2.9611051082611084 1 -7.4318141937255859
   vertex -1.2942559719085693 1 -7.8946118354797363
   vertex -1.2942559719085693 3 -7.8946118354797363
  endloop
 endfacet
 facet normal 0.46840846871264458 -0 0.88351202959454689
  outer loop
   vertex -4.489497184753418 1 -6.6215119361877441
   vertex -2.9611051082611084 1 -7.4318141937255859
   vertex -2.9611051082611084 3 -7.4318141937255859
  endloop
 endfacet
 facet normal 0.46840846871264458 0 0.88351202959454689
  outer loop
   vertex -4.489497184753418 1 -6.6215119361877441
   vertex -2.9611051082611084 3 -7.4318141937255859
   vertex -4.489497184753418 3 -6.6215119361877441
  endloop
 endfacet
 facet normal 0.64738670042007573 -0 0.76216170208113132
  outer loop
   vertex -5.8079638481140137 1 -5.5015950202941895
   vertex -4.489497184753418 1 -6.6215119361877441
   vertex -4.489497184753418 3 -6.6215119361877441
  endloop
 endfacet
 facet normal 0.64738670042007573 0 0.76216170208113132
  outer loop
   vertex -5.8079638481140137 1 -5.5015950202941895
   vertex -4.489497184753418 3 -6.6215119361877441
   vertex -5.8079638481140137 3 -5.5015950202941895
  endloop
 endfacet
 facet normal 0.79609296820963171 -0 0.60517434344755416
  outer loop
   vertex -6.8548569679260254 1 -4.1244311332702637
   vertex -5.8079638481140137 1 -5.5015950202941895
   vertex -5.8079638481140137 3 -5.5015950202941895
  endloop
 endfacet
 facet normal 0.79609296820963171 0 0.60517434344755416
  outer loop
   vertex -6.8548569679260254 1 -4.1244311332702637
   vertex -5.8079638481140137 3 -5.5015950202941895
   vertex -6.8548569679260254 3 -4.1244311332702637
  endloop
 endfacet
 facet normal 0.90757548589128689 -0 0.4198889584273377
  outer loop
   vertex -7.5812249183654785 1 -2.5544118881225586
   vertex -6.8548569679260254 1 -4.1244311332702637
   vertex -6.8548569679260254 3 -4.1244311332702637
  endloop
 endfacet
 facet normal 0.90757548589128689 0 0.4198889584273377
  outer loop
   vertex -7.5812249183654785 1 -2.5544118881225586
   vertex -6.8548569679260254 3 -4.1244311332702637
   vertex -7.5812249183654785 3 -2.5544118881225586
  endloop
 endfacet
 facet normal 0.97662045080518167 -0 0.21497091679825825
  outer loop
   vertex -7.9531040191650391 1 -0.86495202779769897
   vertex -7.5812249183654785 1 -2.5544118881225586
   vertex -7.5812249183654785 3 -2.5544118881225586
  endloop
 endfacet
 facet normal 0.97662045080518167 0 0.21497091679825825
  outer loop
   vertex -7.9531040191650391 1 -0.86495202779769897
   vertex -7.5812249183654785 3 -2.5544118881225586
   vertex -7.9531040191650391 3 -0.86495202779769897
  endloop
 endfacet
 facet normal 1 0 0
  outer loop
   vertex -7.9531040191650391 1 0.86495202779769897
   vertex -7.9531040191650391 1 -0.86495202779769897
   vertex -7.9531040191650391 3 -0.86495202779769897
  endloop
 endfacet
 facet normal 1 0 -0
  outer loop
   vertex -7.9531040191650391 1 0.86495202779769897
   vertex -7.9531040191650391 3 -0.86495202779769897
   vertex -7.9531040191650391 3 0.86495202779769897
  endloop
 endfacet
 facet normal 0.97662045080518167 0 -0.21497091679825825
  outer loop
   vertex -7.5812249183654785 1 2.5544118881225586
   vertex -7.9531040191650391 1 0.86495202779769897
   vertex -7.9531040191650391 3 0.86495202779769897
  endloop
 endfacet
 facet normal 0.97662045080518167 0 -0.21497091679825825
  outer loop
   vertex -7.5812249183654785 1 2.5544118881225586
   vertex -7.9531040191650391 3 0.86495202779769897
   vertex -7.5812249183654785 3 2.5544118881225586
  endloop
 endfacet
 facet normal 0.90757548589128689 0 -0.4198889584273377
  outer loop
   vertex -6.8548569679260254 1 4.1244311332702637
   vertex -7.5812249183654785 1 2.5544118881225586
   vertex -7.5812249183654785 3 2.5544118881225586
  endloop
 endfacet
 facet normal 0.90757548589128689 0 -0.4198889584273377
  outer loop
   vertex -6.8548569679260254 1 4.1244311332702637
   vertex -7.5812249183654785 3 2.5544118881225586
   vertex -6.8548569679260254 3 4.1244311332702637
  endloop
 endfacet
 facet normal 0.79609296820963171 0 -0.60517434344755416
  outer loop
   vertex -5.8079638481140137 1 5.5015950202941895
   vertex -6.8548569679260254 1 4.1244311332702637
   vertex -6.8548569679260254 3 4.1244311332702637
  endloop
 endfacet
 facet normal 0.79609296820963171 0 -0.60517434344755416
  outer loop
   vertex -5.8079638481140137 1 5.5015950202941895
   vertex -6.8548569679260254 3 4.1244311332702637
   vertex -5.8079638481140137 3 5.5015950202941895
  endloop
 endfacet
 facet normal 0 -1 1.22464870546974e-16
  outer loop
   vertex 61 7.4703452449041523e-15 61
   vertex -61 7.4703452449041523e-15 61
   vertex -60 7.3478803743571783e-15 60
  endloop
 endfacet
 facet normal 0 -1 1.22464870546974e-16
  outer loop
   vertex 60 7.3478803743571783e-15 60
   vertex 61 7.4703452449041523e-15 61
   vertex -60 7.3478803743571783e-15 60
  endloop
 endfacet
 facet normal -1.9440100428787221e-22 -1 1.224646761459697e-16
  outer loop
   vertex -61 -7.4703452449041523e-15 -61
   vertex -60 7.3478803743571783e-15 60
   vertex -61 7.4703452449041523e-15 61
  endloop
 endfacet
 facet normal 1.9764102102600342e-22 -1 1.2246467290595297e-16
  outer loop
   vertex -60 -7.3478803743571783e-15 -60
   vertex -60 7.3478803743571783e-15 60
   vertex -61 -7.4703452449041523e-15 -61
  endloop
 endfacet
 facet normal 0 -1 1.22464870546974e-16
  outer loop
   vertex 60 -7.3478803743571783e-15 -60
   vertex -60 -7.3478803743571783e-15 -60
   vertex -61 -7.4703452449041523e-15 -61
  endloop
 endfacet
 facet normal 0 -1 1.22464870546974e-16
  outer loop
   vertex 61 -7.4703452449041523e-15 -61
   vertex 60 -7.3478803743571783e-15 -60
   vertex -61 -7.4703452449041523e-15 -61
  endloop
 endfacet
 facet normal 1.9440100428787221e-22 -1 1.224646761459697e-16
  outer loop
   vertex 61 -7.4703452449041523e-15 -61
   vertex 61 7.4703452449041523e-15 61
   vertex 60 7.3478803743571783e-15 60
  endloop
 endfacet
 facet normal -1.9764102102600342e-22 -1 1.2246467290595297e-16
  outer loop
   vertex 61 -7.4703452449041523e-15 -61
   vertex 60 7.3478803743571783e-15 60
   vertex 60 -7.3478803743571783e-15 -60
  endloop
 endfacet
 facet normal 0 1 0
  outer loop
   vertex -4.489497184753418 1 6.6215119361877441
   vertex -6.8548569679260254 1 4.1244311332702637
   vertex -5.8079638481140137 1 5.5015950202941895
  endloop
 endfacet
 facet normal 0 1 0
  outer loop
   vertex -2.9611051082611084 1 7.4318141937255859
   vertex -1.2942559719085693 1 7.8946118354797363
   vertex -4.489497184753418 1 6.6215119361877441
  endloop
 endfacet
 facet normal 0 1 0
  outer loop
   vertex -1.2942559719085693 1 7.8946118354797363
   vertex 0.43311101198196411 1 7.9882669448852539
   vertex -4.489497184753418 1 6.6215119361877441
  endloop
 endfacet
 facet normal 0 1 0
  outer loop
   vertex -7.5812249183654785 1 2.5544118881225586
   vertex -7.9531040191650391 1 -0.86495202779769897
   vertex -7.9531040191650391 1 0.86495202779769897
  endloop
 endfacet
 facet normal 0 1 0
  outer loop
   vertex 2.1402270793914795 1 7.708399772644043
   vertex 3.7472670078277588 1 7.0680961608886719
   vertex 0.43311101198196411 1 7.9882669448852539
  endloop
 endfacet
 facet normal 0 1 0
  outer loop
   vertex -7.9531040191650391 1 -0.86495202779769897
   vertex -6.8548569679260254 1 -4.1244311332702637
   vertex -7.5812249183654785 1 -2.5544118881225586
  endloop
 endfacet
 facet normal 0 1 0
  outer loop
   vertex -7.5812249183654785 1 2.5544118881225586
   vertex -6.8548569679260254 1 -4.1244311332702637
   vertex -7.9531040191650391 1 -0.86495202779769897
  endloop
 endfacet
 facet normal 0 1 0
  outer loop
   vertex 3.7472670078277588 1 7.0680961608886719
   vertex 5.1790900230407715 1 6.0972962379455566
   vertex 0.43311101198196411 1 7.9882669448852539
  endloop
 endfacet
 facet normal 0 1 0
  outer loop
   vertex -6.8548569679260254 1 4.1244311332702637
   vertex -4.489497184753418 1 -6.6215119361877441
   vertex -7.5812249183654785 1 2.5544118881225586
  endloop
 endfacet
 facet normal 0 1 0
  outer loop
   vertex -6.8548569679260254 1 -4.1244311332702637
   vertex -4.489497184753418 1 -6.6215119361877441
   vertex -5.8079638481140137 1 -5.5015950202941895
  endloop
 endfacet
 facet normal 0 1 -0
  outer loop
   vertex -4.489497184753418 1 6.6215119361877441
   vertex -4.489497184753418 1 -6.6215119361877441
   vertex -6.8548569679260254 1 4.1244311332702637
  endloop
 endfacet
 facet normal 0 1 0
  outer loop
   vertex -7.5812249183654785 1 2.5544118881225586
   vertex -4.489497184753418 1 -6.6215119361877441
   vertex -6.8548569679260254 1 -4.1244311332702637
  endloop
 endfacet
 facet normal 0 1 0
  outer loop
   vertex 6.368743896484375 1 4.8413939476013184
   vertex 7.2606029510498047 1 3.3591129779815674
   vertex 5.1790900230407715 1 6.0972962379455566
  endloop
 endfacet
 facet normal 0 1 0
  outer loop
   vertex 5.1790900230407715 1 6.0972962379455566
   vertex 7.2606029510498047 1 3.3591129779815674
   vertex 0.43311101198196411 1 7.9882669448852539
  endloop
 endfacet
 facet normal 0 1 0
  outer loop
   vertex -4.489497184753418 1 -6.6215119361877441
   vertex -1.2942559719085693 1 -7.8946118354797363
   vertex -2.9611051082611084 1 -7.4318141937255859
  endloop
 endfacet
 facet normal 0 1 -0
  outer loop
   vertex 0.43311101198196411 1 7.9882669448852539
   vertex -1.2942559719085693 1 -7.8946118354797363
   vertex -4.489497184753418 1 6.6215119361877441
  endloop
 endfacet
 facet normal 0 1 0
  outer loop
   vertex -4.489497184753418 1 6.6215119361877441
   vertex -1.2942559719085693 1 -7.8946118354797363
   vertex -4.489497184753418 1 -6.6215119361877441
  endloop
 endfacet
 facet normal 0 1 0
  outer loop
   vertex 8 1 -1.2246468525851679e-16
   vertex 7.8129639625549316 1 -1.7197639942169189
   vertex 7.8129639625549316 1 1.7197639942169189
  endloop
 endfacet
 facet normal 0 1 -0
  outer loop
   vertex 7.8129639625549316 1 1.7197639942169189
   vertex 7.8129639625549316 1 -1.7197639942169189
   vertex 7.2606029510498047 1 3.3591129779815674
  endloop
 endfacet
 facet normal 0 1 0
  outer loop
   vertex -1.2942559719085693 1 -7.8946118354797363
   vertex 2.1402270793914795 1 -7.708399772644043
   vertex 0.43311101198196411 1 -7.9882669448852539
  endloop
 endfacet
 facet normal 0 1 0
  outer loop
   vertex -1.2942559719085693 1 -7.8946118354797363
   vertex 3.7472670078277588 1 -7.0680961608886719
   vertex 2.1402270793914795 1 -7.708399772644043
  endloop
 endfacet
 facet normal 0 1 0
  outer loop
   vertex 7.2606029510498047 1 -3.3591129779815674
   vertex 6.368743896484375 1 -4.8413939476013184
   vertex 7.8129639625549316 1 -1.7197639942169189
  endloop
 endfacet
 facet normal 0 1 -0
  outer loop
   vertex 7.2606029510498047 1 3.3591129779815674
   vertex 6.368743896484375 1 -4.8413939476013184
   vertex 0.43311101198196411 1 7.9882669448852539
  endloop
 endfacet
 facet normal 0 1 0
  outer loop
   vertex 7.8129639625549316 1 -1.7197639942169189
   vertex 6.368743896484375 1 -4.8413939476013184
   vertex 7.2606029510498047 1 3.3591129779815674
  endloop
 endfacet
 facet normal 0 1 -0
  outer loop
   vertex 6.368743896484375 1 -4.8413939476013184
   vertex 5.1790900230407715 1 -6.0972962379455566
   vertex 0.43311101198196411 1 7.9882669448852539
  endloop
 endfacet
 facet normal 0 1 0
  outer loop
   vertex 0.43311101198196411 1 7.9882669448852539
   vertex 5.1790900230407715 1 -6.0972962379455566
   vertex -1.2942559719085693 1 -7.8946118354797363
  endloop
 endfacet
 facet normal 0 1 0
  outer loop
   vertex -1.2942559719085693 1 -7.8946118354797363
   vertex 5.1790900230407715 1 -6.0972962379455566
   vertex 3.7472670078277588 1 -7.0680961608886719
  endloop
 endfacet
 facet normal -2.7145736657710727e-24 -1 1.2246466944387791e-16
  outer loop
   vertex -4.489497184753418 8.1090132752106967e-16 6.6215119361877441
   vertex -60 7.3478803743571783e-15 60
   vertex -5.8079638481140137 6.7375107619063344e-16 5.5015950202941895
  endloop
 endfacet
 facet normal 9.8604014504559914e-24 -1 1.2246468194816157e-16
  outer loop
   vertex -6.8548569679260254 5.0509712845296802e-16 4.1244311332702637
   vertex -5.8079638481140137 6.7375107619063344e-16 5.5015950202941895
   vertex -60 7.3478803743571783e-15 60
  endloop
 endfacet
 facet normal 2.3750917541729913e-23 -1 1.2246469696643964e-16
  outer loop
   vertex -2.9611051082611084 9.1013478424237758e-16 7.4318141937255859
   vertex -60 7.3478803743571783e-15 60
   vertex -4.489497184753418 8.1090132752106967e-16 6.6215119361877441
  endloop
 endfacet
 facet normal 3.140053166932519e-24 -1 1.2246467555621105e-16
  outer loop
   vertex -7.5812249183654785 3.1282522869811294e-16 2.5544118881225586
   vertex -6.8548569679260254 5.0509712845296802e-16 4.1244311332702637
   vertex -60 7.3478803743571783e-15 60
  endloop
 endfacet
 facet normal -4.6556805959120687e-24 -1 1.2246466614397647e-16
  outer loop
   vertex -1.2942559719085693 9.668111351717021e-16 7.8946118354797363
   vertex -60 7.3478803743571783e-15 60
   vertex -2.9611051082611084 9.1013478424237758e-16 7.4318141937255859
  endloop
 endfacet
 facet normal 2.1338697076538101e-24 -1 1.2246467463807433e-16
  outer loop
   vertex -7.9531040191650391 1.0592607579580095e-16 0.86495202779769897
   vertex -7.5812249183654785 3.1282522869811294e-16 2.5544118881225586
   vertex -60 7.3478803743571783e-15 60
  endloop
 endfacet
 facet normal 1.0466145348730118e-23 -1 1.2246468318133267e-16
  outer loop
   vertex 0.43311101198196411 9.7828059655223577e-16 7.9882669448852539
   vertex -60 7.3478803743571783e-15 60
   vertex -1.2942559719085693 9.668111351717021e-16 7.8946118354797363
  endloop
 endfacet
 facet normal 1.1505000566059115e-23 -1 1.2246468288594578e-16
  outer loop
   vertex -7.9531040191650391 -1.0592607579580095e-16 -0.86495202779769897
   vertex -7.9531040191650391 1.0592607579580095e-16 0.86495202779769897
   vertex -60 7.3478803743571783e-15 60
  endloop
 endfacet
 facet normal -9.8604014504559914e-24 -1 1.2246468194816157e-16
  outer loop
   vertex -60 -7.3478803743571783e-15 -60
   vertex -5.8079638481140137 -6.7375107619063344e-16 -5.5015950202941895
   vertex -6.8548569679260254 -5.0509712845296802e-16 -4.1244311332702637
  endloop
 endfacet
 facet normal -3.140053166932519e-24 -1 1.2246467555621105e-16
  outer loop
   vertex -60 -7.3478803743571783e-15 -60
   vertex -6.8548569679260254 -5.0509712845296802e-16 -4.1244311332702637
   vertex -7.5812249183654785 -3.1282522869811294e-16 -2.5544118881225586
  endloop
 endfacet
 facet normal -2.1338697076538101e-24 -1 1.2246467463807433e-16
  outer loop
   vertex -60 -7.3478803743571783e-15 -60
   vertex -7.5812249183654785 -3.1282522869811294e-16 -2.5544118881225586
   vertex -7.9531040191650391 -1.0592607579580095e-16 -0.86495202779769897
  endloop
 endfacet
 facet normal -1.6585455949044178e-25 -1 1.2246467290595297e-16
  outer loop
   vertex -60 -7.3478803743571783e-15 -60
   vertex -7.9531040191650391 -1.0592607579580095e-16 -0.86495202779769897
   vertex -60 7.3478803743571783e-15 60
  endloop
 endfacet
 facet normal -3.7720394482795526e-23 -1 1.2246471422019109e-16
  outer loop
   vertex 60 7.3478803743571783e-15 60
   vertex 0.43311101198196411 9.7828059655223577e-16 7.9882669448852539
   vertex 2.1402270793914795 9.4400667889101139e-16 7.708399772644043
  endloop
 endfacet
 facet normal 8.8771827388911874e-24 -1 1.2246466266075848e-16
  outer loop
   vertex 60 7.3478803743571783e-15 60
   vertex 2.1402270793914795 9.4400667889101139e-16 7.708399772644043
   vertex 3.7472670078277588 8.655921273429117e-16 7.0680961608886719
  endloop
 endfacet
 facet normal -1.3032959457950054e-24 -1 1.2246467347993763e-16
  outer loop
   vertex 60 7.3478803743571783e-15 60
   vertex 3.7472670078277588 8.655921273429117e-16 7.0680961608886719
   vertex 5.1790900230407715 7.4670342989924536e-16 6.0972962379455566
  endloop
 endfacet
 facet normal 0 -1 1.2246467102058172e-16
  outer loop
   vertex 60 7.3478803743571783e-15 60
   vertex -60 7.3478803743571783e-15 60
   vertex 0.43311101198196411 9.7828059655223577e-16 7.9882669448852539
  endloop
 endfacet
 facet normal 8.1790643130613495e-25 -1 1.2246467132260199e-16
  outer loop
   vertex 6.368743896484375 5.9289976967196074e-16 4.8413939476013184
   vertex 60 7.3478803743571783e-15 60
   vertex 5.1790900230407715 7.4670342989924536e-16 6.0972962379455566
  endloop
 endfacet
 facet normal 2.7145738562238688e-24 -1 1.2246466944387788e-16
  outer loop
   vertex -4.489497184753418 -8.1090132752106967e-16 -6.6215119361877441
   vertex -5.8079638481140137 -6.7375107619063344e-16 -5.5015950202941895
   vertex -60 -7.3478803743571783e-15 -60
  endloop
 endfacet
 facet normal -9.4851118116718549e-24 -1 1.2246468134032765e-16
  outer loop
   vertex 7.2606029510498047 4.1137269461126327e-16 3.3591129779815674
   vertex 60 7.3478803743571783e-15 60
   vertex 6.368743896484375 5.9289976967196074e-16 4.8413939476013184
  endloop
 endfacet
 facet normal -2.3750917541729936e-23 -1 1.2246469696643964e-16
  outer loop
   vertex -2.9611051082611084 -9.1013478424237758e-16 -7.4318141937255859
   vertex -4.489497184753418 -8.1090132752106967e-16 -6.6215119361877441
   vertex -60 -7.3478803743571783e-15 -60
  endloop
 endfacet
 facet normal -4.7315581860572422e-24 -1 1.2246467691420446e-16
  outer loop
   vertex 7.8129639625549316 2.106103483513679e-16 1.7197639942169189
   vertex 60 7.3478803743571783e-15 60
   vertex 7.2606029510498047 4.1137269461126327e-16 3.3591129779815674
  endloop
 endfacet
 facet normal 4.6556805959120643e-24 -1 1.2246466614397657e-16
  outer loop
   vertex -1.2942559719085693 -9.668111351717021e-16 -7.8946118354797363
   vertex -2.9611051082611084 -9.1013478424237758e-16 -7.4318141937255859
   vertex -60 -7.3478803743571783e-15 -60
  endloop
 endfacet
 facet normal -7.942874688939922e-24 -1 1.2246467978977771e-16
  outer loop
   vertex 8 0 0
   vertex 60 7.3478803743571783e-15 60
   vertex 7.8129639625549316 2.106103483513679e-16 1.7197639942169189
  endloop
 endfacet
 facet normal -1.0466145348730109e-23 -1 1.224646831813325e-16
  outer loop
   vertex 0.43311101198196411 -9.7828059655223577e-16 -7.9882669448852539
   vertex -1.2942559719085693 -9.668111351717021e-16 -7.8946118354797363
   vertex -60 -7.3478803743571783e-15 -60
  endloop
 endfacet
 facet normal 7.942874688939922e-24 -1 1.2246467978977771e-16
  outer loop
   vertex 60 -7.3478803743571783e-15 -60
   vertex 8 0 0
   vertex 7.8129639625549316 -2.106103483513679e-16 -1.7197639942169189
  endloop
 endfacet
 facet normal 4.7315582396553985e-24 -1 1.2246467691420446e-16
  outer loop
   vertex 60 -7.3478803743571783e-15 -60
   vertex 7.8129639625549316 -2.106103483513679e-16 -1.7197639942169189
   vertex 7.2606029510498047 -4.1137269461126327e-16 -3.3591129779815674
  endloop
 endfacet
 facet normal 9.4851117135931716e-24 -1 1.2246468134032765e-16
  outer loop
   vertex 60 -7.3478803743571783e-15 -60
   vertex 7.2606029510498047 -4.1137269461126327e-16 -3.3591129779815674
   vertex 6.368743896484375 -5.9289976967196074e-16 -4.8413939476013184
  endloop
 endfacet
 facet normal -8.1790624146971067e-25 -1 1.224646713226018e-16
  outer loop
   vertex 60 -7.3478803743571783e-15 -60
   vertex 6.368743896484375 -5.9289976967196074e-16 -4.8413939476013184
   vertex 5.1790900230407715 -7.4670342989924536e-16 -6.0972962379455566
  endloop
 endfacet
 facet normal 1.3032959457950054e-24 -1 1.2246467347993763e-16
  outer loop
   vertex 60 -7.3478803743571783e-15 -60
   vertex 5.1790900230407715 -7.4670342989924536e-16 -6.0972962379455566
   vertex 3.7472670078277588 -8.655921273429117e-16 -7.0680961608886719
  endloop
 endfacet
 facet normal -8.8771827388911874e-24 -1 1.2246466266075848e-16
  outer loop
   vertex 60 -7.3478803743571783e-15 -60
   vertex 3.7472670078277588 -8.655921273429117e-16 -7.0680961608886719
   vertex 2.1402270793914795 -9.4400667889101139e-16 -7.708399772644043
  endloop
 endfacet
 facet normal 3.7720394482795526e-23 -1 1.2246471422019109e-16
  outer loop
   vertex 60 -7.3478803743571783e-15 -60
   vertex 2.1402270793914795 -9.4400667889101139e-16 -7.708399772644043
   vertex 0.43311101198196411 -9.7828059655223577e-16 -7.9882669448852539
  endloop
 endfacet
 facet normal 0 -1 1.2246467102058172e-16
  outer loop
   vertex 60 -7.3478803743571783e-15 -60
   vertex 0.43311101198196411 -9.7828059655223577e-16 -7.9882669448852539
   vertex -60 -7.3478803743571783e-15 -60
  endloop
 endfacet
 facet normal 0 -1 1.2246467290595297e-16
  outer loop
   vertex 60 -7.3478803743571783e-15 -60
   vertex 60 7.3478803743571783e-15 60
   vertex 8 0 0
  endloop
 endfacet
 facet normal -5.5610874107037022e-23 -1 1.2246473171814796e-16
  outer loop
   vertex -6.8548569679260254 5.0509712845296802e-16 4.1244311332702637
   vertex -4.489497184753418 8.1090132752106967e-16 6.6215119361877441
   vertex -5.8079638481140137 6.7375107619063344e-16 5.5015950202941895
  endloop
 endfacet
 facet normal 3.5336500887342006e-23 -1 1.2246468288594578e-16
  outer loop
   vertex -7.5812249183654785 -3.1282522869811294e-16 -2.5544118881225586
   vertex -7.9531040191650391 1.0592607579580095e-16 0.86495202779769897
   vertex -7.9531040191650391 -1.0592607579580095e-16 -0.86495202779769897
  endloop
 endfacet
 facet normal -6.92615645630674e-24 -1 1.224646743215047e-16
  outer loop
   vertex 3.7472670078277588 8.655921273429117e-16 7.0680961608886719
   vertex -1.2942559719085693 9.668111351717021e-16 7.8946118354797363
   vertex -2.9611051082611084 9.1013478424237758e-16 7.4318141937255859
  endloop
 endfacet
 facet normal 6.5046913229555174e-24 -1 1.2246475624605834e-16
  outer loop
   vertex 3.7472670078277588 8.655921273429117e-16 7.0680961608886719
   vertex 0.43311101198196411 9.7828059655223577e-16 7.9882669448852539
   vertex -1.2942559719085693 9.668111351717021e-16 7.8946118354797363
  endloop
 endfacet
 facet normal -8.4660190461211364e-23 -1 1.2246442789979388e-16
  outer loop
   vertex 3.7472670078277588 8.655921273429117e-16 7.0680961608886719
   vertex 2.1402270793914795 9.4400667889101139e-16 7.708399772644043
   vertex 0.43311101198196411 9.7828059655223577e-16 7.9882669448852539
  endloop
 endfacet
 facet normal 5.747249094393101e-24 -1 1.2246467966791322e-16
  outer loop
   vertex -6.8548569679260254 -5.0509712845296802e-16 -4.1244311332702637
   vertex -7.9531040191650391 1.0592607579580095e-16 0.86495202779769897
   vertex -7.5812249183654785 -3.1282522869811294e-16 -2.5544118881225586
  endloop
 endfacet
 facet normal -1.0202516191171447e-23 -1 1.2246467735352452e-16
  outer loop
   vertex -5.8079638481140137 -6.7375107619063344e-16 -5.5015950202941895
   vertex -7.5812249183654785 3.1282522869811294e-16 2.5544118881225586
   vertex -7.9531040191650391 1.0592607579580095e-16 0.86495202779769897
  endloop
 endfacet
 facet normal -3.7938552191334051e-24 -1 1.2246467876417735e-16
  outer loop
   vertex -5.8079638481140137 -6.7375107619063344e-16 -5.5015950202941895
   vertex -6.8548569679260254 5.0509712845296802e-16 4.1244311332702637
   vertex -7.5812249183654785 3.1282522869811294e-16 2.5544118881225586
  endloop
 endfacet
 facet normal -2.0443883565058697e-23 -1 1.2246467390280494e-16
  outer loop
   vertex -5.8079638481140137 -6.7375107619063344e-16 -5.5015950202941895
   vertex -7.9531040191650391 1.0592607579580095e-16 0.86495202779769897
   vertex -6.8548569679260254 -5.0509712845296802e-16 -4.1244311332702637
  endloop
 endfacet
 facet normal -9.2000602155814685e-24 -1 1.2246466183307963e-16
  outer loop
   vertex 6.368743896484375 5.9289976967196074e-16 4.8413939476013184
   vertex 5.1790900230407715 7.4670342989924536e-16 6.0972962379455566
   vertex 3.7472670078277588 8.655921273429117e-16 7.0680961608886719
  endloop
 endfacet
 facet normal -1.0652601301104021e-22 -1 1.2246454083605884e-16
  outer loop
   vertex -2.9611051082611084 -9.1013478424237758e-16 -7.4318141937255859
   vertex -5.8079638481140137 -6.7375107619063344e-16 -5.5015950202941895
   vertex -4.489497184753418 -8.1090132752106967e-16 -6.6215119361877441
  endloop
 endfacet
 facet normal 3.0093036565001882e-23 -1 1.2246468500393508e-16
  outer loop
   vertex -2.9611051082611084 -9.1013478424237758e-16 -7.4318141937255859
   vertex -2.9611051082611084 9.1013478424237758e-16 7.4318141937255859
   vertex -4.489497184753418 8.1090132752106967e-16 6.6215119361877441
  endloop
 endfacet
 facet normal -2.4039170381415668e-24 -1 1.2246468560094203e-16
  outer loop
   vertex -2.9611051082611084 -9.1013478424237758e-16 -7.4318141937255859
   vertex 7.2606029510498047 4.1137269461126327e-16 3.3591129779815674
   vertex 6.368743896484375 5.9289976967196074e-16 4.8413939476013184
  endloop
 endfacet
 facet normal -2.547683748911312e-24 -1 1.2246468145404106e-16
  outer loop
   vertex -2.9611051082611084 -9.1013478424237758e-16 -7.4318141937255859
   vertex -4.489497184753418 8.1090132752106967e-16 6.6215119361877441
   vertex -6.8548569679260254 5.0509712845296802e-16 4.1244311332702637
  endloop
 endfacet
 facet normal -6.3469708514441707e-24 -1 1.2246468500393508e-16
  outer loop
   vertex -2.9611051082611084 -9.1013478424237758e-16 -7.4318141937255859
   vertex 3.7472670078277588 8.655921273429117e-16 7.0680961608886719
   vertex -2.9611051082611084 9.1013478424237758e-16 7.4318141937255859
  endloop
 endfacet
 facet normal 5.7339184803149965e-24 -1 1.2246467941472114e-16
  outer loop
   vertex -2.9611051082611084 -9.1013478424237758e-16 -7.4318141937255859
   vertex 6.368743896484375 5.9289976967196074e-16 4.8413939476013184
   vertex 3.7472670078277588 8.655921273429117e-16 7.0680961608886719
  endloop
 endfacet
 facet normal -1.3741936668902775e-23 -1 1.2246467768225861e-16
  outer loop
   vertex -2.9611051082611084 -9.1013478424237758e-16 -7.4318141937255859
   vertex -6.8548569679260254 5.0509712845296802e-16 4.1244311332702637
   vertex -5.8079638481140137 -6.7375107619063344e-16 -5.5015950202941895
  endloop
 endfacet
 facet normal 6.7308336531038825e-24 -1 1.2246467361801442e-16
  outer loop
   vertex 7.8129639625549316 -2.106103483513679e-16 -1.7197639942169189
   vertex -2.9611051082611084 -9.1013478424237758e-16 -7.4318141937255859
   vertex -1.2942559719085693 -9.668111351717021e-16 -7.8946118354797363
  endloop
 endfacet
 facet normal 6.3666292080684972e-24 -1 1.2246468065361937e-16
  outer loop
   vertex 7.8129639625549316 -2.106103483513679e-16 -1.7197639942169189
   vertex 7.8129639625549316 2.106103483513679e-16 1.7197639942169189
   vertex 7.2606029510498047 4.1137269461126327e-16 3.3591129779815674
  endloop
 endfacet
 facet normal 0 -1 1.2246468065361937e-16
  outer loop
   vertex 7.8129639625549316 -2.106103483513679e-16 -1.7197639942169189
   vertex 8 0 0
   vertex 7.8129639625549316 2.106103483513679e-16 1.7197639942169189
  endloop
 endfacet
 facet normal 3.1842828908146993e-24 -1 1.2246468030751846e-16
  outer loop
   vertex 7.8129639625549316 -2.106103483513679e-16 -1.7197639942169189
   vertex 7.2606029510498047 4.1137269461126327e-16 3.3591129779815674
   vertex -2.9611051082611084 -9.1013478424237758e-16 -7.4318141937255859
  endloop
 endfacet
 facet normal 2.774103235630015e-24 -1 1.2246492738336706e-16
  outer loop
   vertex 2.1402270793914795 -9.4400667889101139e-16 -7.708399772644043
   vertex -1.2942559719085693 -9.668111351717021e-16 -7.8946118354797363
   vertex 0.43311101198196411 -9.7828059655223577e-16 -7.9882669448852539
  endloop
 endfacet
 facet normal 1.7384802803360558e-23 -1 1.2246465790458427e-16
  outer loop
   vertex 2.1402270793914795 -9.4400667889101139e-16 -7.708399772644043
   vertex 7.8129639625549316 -2.106103483513679e-16 -1.7197639942169189
   vertex -1.2942559719085693 -9.668111351717021e-16 -7.8946118354797363
  endloop
 endfacet
 facet normal 3.2253718924354727e-23 -1 1.2246466764090838e-16
  outer loop
   vertex 6.368743896484375 -5.9289976967196074e-16 -4.8413939476013184
   vertex 7.2606029510498047 -4.1137269461126327e-16 -3.3591129779815674
   vertex 7.8129639625549316 -2.106103483513679e-16 -1.7197639942169189
  endloop
 endfacet
 facet normal -3.383977019878155e-23 -1 1.2246472531209143e-16
  outer loop
   vertex 5.1790900230407715 -7.4670342989924536e-16 -6.0972962379455566
   vertex 2.1402270793914795 -9.4400667889101139e-16 -7.708399772644043
   vertex 3.7472670078277588 -8.655921273429117e-16 -7.0680961608886719
  endloop
 endfacet
 facet normal -1.3726847622115549e-23 -1 1.2246468737510366e-16
  outer loop
   vertex 5.1790900230407715 -7.4670342989924536e-16 -6.0972962379455566
   vertex 7.8129639625549316 -2.106103483513679e-16 -1.7197639942169189
   vertex 2.1402270793914795 -9.4400667889101139e-16 -7.708399772644043
  endloop
 endfacet
 facet normal -2.4794069352434339e-23 -1 1.2246469403403049e-16
  outer loop
   vertex 5.1790900230407715 -7.4670342989924536e-16 -6.0972962379455566
   vertex 6.368743896484375 -5.9289976967196074e-16 -4.8413939476013184
   vertex 7.8129639625549316 -2.106103483513679e-16 -1.7197639942169189
  endloop
 endfacet
endsolid
